<?xml version="1.0" encoding="UTF-8"?>
<svg xmlns="http://www.w3.org/2000/svg" version="1.1" width="271.2" height="910.0" viewBox="0 0 271.2 910.0">
<g fill="none" stroke="black" stroke-width="1.0">
<path d="M 74.77 72.60 L 74.06 72.60 L 73.35 72.60 L 72.64 72.60 L 71.93 72.60 L 71.22 72.60 L 70.51 72.60 L 69.80 72.60 L 69.09 72.60 L 68.38 72.60 L 67.67 72.60 L 66.97 72.60 L 66.26 72.60 L 65.55 72.60 L 64.84 72.60 L 64.13 72.60 L 63.42 72.60 L 62.71 72.60 L 62.00 72.60 L 61.29 72.60 L 60.58 72.60 L 59.87 72.60 L 59.16 72.60 L 58.45 72.60 L 57.74 72.60 L 57.03 72.60 L 56.32 72.60 L 55.61 72.60 L 54.90 72.60 L 54.19 72.60 L 53.48 72.60 L 52.77 72.60 L 52.06 72.60 L 51.35 72.60 L 50.64 72.60 L 49.93 72.60 L 49.22 72.60 L 48.52 72.60 L 47.81 72.60 L 47.10 72.60 L 46.39 72.60 L 45.68 72.60 L 44.97 72.60 L 44.26 72.60 L 43.55 72.60 L 42.84 72.60 L 42.13 72.60 L 41.42 72.60 L 40.71 72.60 L 40.00 72.60"/>
<path d="M 74.77 72.60 L 74.90 103.25 L 75.27 133.89 L 75.90 164.54 L 76.78 195.17 L 77.90 225.80 L 79.25 256.42 L 80.84 287.03 L 82.66 317.63 L 84.69 348.21 L 86.93 378.78 L 89.38 409.33 L 92.01 439.87 L 94.82 470.39 L 97.79 500.89 L 100.92 531.38 L 104.19 561.86 L 107.60 592.32 L 111.11 622.76 L 114.65 653.21 L 118.33 683.64 L 122.39 714.02 L 126.25 744.42 L 129.30 774.92 L 132.38 805.41 L 138.85 805.41 L 141.94 774.92 L 144.99 744.42 L 148.85 714.02 L 152.91 683.64 L 156.59 653.21 L 160.12 622.76 L 163.64 592.32 L 167.05 561.86 L 170.32 531.38 L 173.45 500.89 L 176.42 470.39 L 179.23 439.87 L 181.86 409.33 L 184.30 378.78 L 186.55 348.21 L 188.58 317.63 L 190.40 287.03 L 191.99 256.42 L 193.34 225.80 L 194.46 195.17 L 195.34 164.54 L 195.96 133.89 L 196.34 103.25 L 196.47 72.60"/>
<path d="M 231.24 72.60 L 230.53 72.60 L 229.82 72.60 L 229.11 72.60 L 228.40 72.60 L 227.69 72.60 L 226.98 72.60 L 226.27 72.60 L 225.56 72.60 L 224.85 72.60 L 224.14 72.60 L 223.43 72.60 L 222.72 72.60 L 222.01 72.60 L 221.30 72.60 L 220.60 72.60 L 219.89 72.60 L 219.18 72.60 L 218.47 72.60 L 217.76 72.60 L 217.05 72.60 L 216.34 72.60 L 215.63 72.60 L 214.92 72.60 L 214.21 72.60 L 213.50 72.60 L 212.79 72.60 L 212.08 72.60 L 211.37 72.60 L 210.66 72.60 L 209.95 72.60 L 209.24 72.60 L 208.53 72.60 L 207.82 72.60 L 207.11 72.60 L 206.40 72.60 L 205.69 72.60 L 204.98 72.60 L 204.27 72.60 L 203.56 72.60 L 202.86 72.60 L 202.15 72.60 L 201.44 72.60 L 200.73 72.60 L 200.02 72.60 L 199.31 72.60 L 198.60 72.60 L 197.89 72.60 L 197.18 72.60 L 196.47 72.60"/>
<path d="M 40.00 72.60 L 40.20 104.84 L 40.80 137.09 L 41.80 169.32 L 43.19 201.54 L 44.96 233.74 L 47.11 265.91 L 49.63 298.06 L 52.51 330.18 L 55.72 362.27 L 59.27 394.32 L 63.12 426.34 L 67.27 458.32 L 71.70 490.26 L 76.38 522.16 L 81.29 554.03 L 86.43 585.87 L 91.80 617.67 L 97.30 649.44 L 102.84 681.21 L 108.61 712.94 L 114.98 744.55 L 120.99 776.23 L 125.77 808.12 L 130.63 840.00 L 140.61 840.00 L 145.47 808.12 L 150.25 776.23 L 156.26 744.55 L 162.63 712.94 L 168.40 681.21 L 173.94 649.44 L 179.44 617.67 L 184.81 585.87 L 189.95 554.03 L 194.86 522.16 L 199.54 490.26 L 203.97 458.32 L 208.12 426.34 L 211.97 394.32 L 215.52 362.27 L 218.73 330.18 L 221.61 298.06 L 224.13 265.91 L 226.28 233.74 L 228.05 201.54 L 229.44 169.32 L 230.44 137.09 L 231.04 104.84 L 231.24 72.60"/>
<path d="M 231.24 74.77 L 231.24 74.06 L 231.24 73.35 L 231.24 72.64 L 231.24 71.93 L 231.24 71.22 L 231.24 70.51 L 231.24 69.80 L 231.24 69.09 L 231.24 68.38 L 231.24 67.67 L 231.24 66.97 L 231.24 66.26 L 231.24 65.55 L 231.24 64.84 L 231.24 64.13 L 231.24 63.42 L 231.24 62.71 L 231.24 62.00 L 231.24 61.29 L 231.24 60.58 L 231.24 59.87 L 231.24 59.16 L 231.24 58.45 L 231.24 57.74 L 231.24 57.03 L 231.24 56.32 L 231.24 55.61 L 231.24 54.90 L 231.24 54.19 L 231.24 53.48 L 231.24 52.77 L 231.24 52.06 L 231.24 51.35 L 231.24 50.64 L 231.24 49.93 L 231.24 49.22 L 231.24 48.52 L 231.24 47.81 L 231.24 47.10 L 231.24 46.39 L 231.24 45.68 L 231.24 44.97 L 231.24 44.26 L 231.24 43.55 L 231.24 42.84 L 231.24 42.13 L 231.24 41.42 L 231.24 40.71 L 231.24 40.00"/>
<path d="M 231.24 74.77 L 227.34 74.77 L 223.43 74.77 L 219.53 74.77 L 215.63 74.77 L 211.72 74.77 L 207.82 74.77 L 203.92 74.77 L 200.02 74.77 L 196.11 74.77 L 192.21 74.77 L 188.31 74.77 L 184.40 74.77 L 180.50 74.77 L 176.60 74.77 L 172.70 74.77 L 168.79 74.77 L 164.89 74.77 L 160.99 74.77 L 157.09 74.77 L 153.18 74.77 L 149.28 74.77 L 145.38 74.77 L 141.47 74.77 L 137.57 74.77 L 133.67 74.77 L 129.77 74.77 L 125.86 74.77 L 121.96 74.77 L 118.06 74.77 L 114.15 74.77 L 110.25 74.77 L 106.35 74.77 L 102.45 74.77 L 98.54 74.77 L 94.64 74.77 L 90.74 74.77 L 86.83 74.77 L 82.93 74.77 L 79.03 74.77 L 75.13 74.77 L 71.22 74.77 L 67.32 74.77 L 63.42 74.77 L 59.51 74.77 L 55.61 74.77 L 51.71 74.77 L 47.81 74.77 L 43.90 74.77 L 40.00 74.77"/>
<path d="M 40.00 74.77 L 40.00 74.06 L 40.00 73.35 L 40.00 72.64 L 40.00 71.93 L 40.00 71.22 L 40.00 70.51 L 40.00 69.80 L 40.00 69.09 L 40.00 68.38 L 40.00 67.67 L 40.00 66.97 L 40.00 66.26 L 40.00 65.55 L 40.00 64.84 L 40.00 64.13 L 40.00 63.42 L 40.00 62.71 L 40.00 62.00 L 40.00 61.29 L 40.00 60.58 L 40.00 59.87 L 40.00 59.16 L 40.00 58.45 L 40.00 57.74 L 40.00 57.03 L 40.00 56.32 L 40.00 55.61 L 40.00 54.90 L 40.00 54.19 L 40.00 53.48 L 40.00 52.77 L 40.00 52.06 L 40.00 51.35 L 40.00 50.64 L 40.00 49.93 L 40.00 49.22 L 40.00 48.52 L 40.00 47.81 L 40.00 47.10 L 40.00 46.39 L 40.00 45.68 L 40.00 44.97 L 40.00 44.26 L 40.00 43.55 L 40.00 42.84 L 40.00 42.13 L 40.00 41.42 L 40.00 40.71 L 40.00 40.00"/>
<path d="M 231.24 40.00 L 227.34 40.00 L 223.43 40.00 L 219.53 40.00 L 215.63 40.00 L 211.72 40.00 L 207.82 40.00 L 203.92 40.00 L 200.02 40.00 L 196.11 40.00 L 192.21 40.00 L 188.31 40.00 L 184.40 40.00 L 180.50 40.00 L 176.60 40.00 L 172.70 40.00 L 168.79 40.00 L 164.89 40.00 L 160.99 40.00 L 157.09 40.00 L 153.18 40.00 L 149.28 40.00 L 145.38 40.00 L 141.47 40.00 L 137.57 40.00 L 133.67 40.00 L 129.77 40.00 L 125.86 40.00 L 121.96 40.00 L 118.06 40.00 L 114.15 40.00 L 110.25 40.00 L 106.35 40.00 L 102.45 40.00 L 98.54 40.00 L 94.64 40.00 L 90.74 40.00 L 86.83 40.00 L 82.93 40.00 L 79.03 40.00 L 75.13 40.00 L 71.22 40.00 L 67.32 40.00 L 63.42 40.00 L 59.51 40.00 L 55.61 40.00 L 51.71 40.00 L 47.81 40.00 L 43.90 40.00 L 40.00 40.00"/>
</g>
<g stroke="black" stroke-width="1" fill="black">
<line x1="40.0" y1="895.0" x2="474.6" y2="895.0"/>
<line x1="40.0" y1="890.0" x2="40.0" y2="900.0"/>
<line x1="474.6" y1="890.0" x2="474.6" y2="900.0"/>
<text x="257.3" y="887.0" text-anchor="middle" font-family="sans-serif" font-size="10">100 mm</text>
</g>
</svg>