<?xml version="1.0" encoding="UTF-8"?>
<svg xmlns="http://www.w3.org/2000/svg" version="1.1" width="880.0" height="130.2" viewBox="0 0 880.0 130.2">
<g fill="none" stroke="black" stroke-width="1.0">
<path d="M 671.34 40.00 L 671.34 40.41 L 671.34 40.83 L 671.34 41.24 L 671.34 41.65 L 671.34 42.07 L 671.34 42.48 L 671.34 42.89 L 671.34 43.30 L 671.34 43.72 L 671.34 44.13 L 671.34 44.54 L 671.34 44.96 L 671.34 45.37 L 671.34 45.78 L 671.34 46.20 L 671.34 46.61 L 671.34 47.02 L 671.34 47.43 L 671.34 47.85 L 671.34 48.26 L 671.34 48.67 L 671.34 49.09 L 671.34 49.50 L 671.34 49.91 L 671.34 50.33 L 671.34 50.74 L 671.34 51.15 L 671.34 51.57 L 671.34 51.98 L 671.34 52.39 L 671.34 52.80 L 671.34 53.22 L 671.34 53.63 L 671.34 54.04 L 671.34 54.46 L 671.34 54.87 L 671.34 55.28 L 671.34 55.70 L 671.34 56.11 L 671.34 56.52 L 671.34 56.93 L 671.34 57.35 L 671.34 57.76 L 671.34 58.17 L 671.34 58.59 L 671.34 59.00 L 671.34 59.41 L 671.34 59.83 L 671.34 60.24"/>
<path d="M 840.00 40.00 L 836.56 40.00 L 833.12 40.00 L 829.67 40.00 L 826.23 40.00 L 822.79 40.00 L 819.35 40.00 L 815.91 40.00 L 812.46 40.00 L 809.02 40.00 L 805.58 40.00 L 802.14 40.00 L 798.70 40.00 L 795.25 40.00 L 791.81 40.00 L 788.37 40.00 L 784.93 40.00 L 781.49 40.00 L 778.04 40.00 L 774.60 40.00 L 771.16 40.00 L 767.72 40.00 L 764.28 40.00 L 760.83 40.00 L 757.39 40.00 L 753.95 40.00 L 750.51 40.00 L 747.07 40.00 L 743.62 40.00 L 740.18 40.00 L 736.74 40.00 L 733.30 40.00 L 729.86 40.00 L 726.41 40.00 L 722.97 40.00 L 719.53 40.00 L 716.09 40.00 L 712.65 40.00 L 709.20 40.00 L 705.76 40.00 L 702.32 40.00 L 698.88 40.00 L 695.44 40.00 L 691.99 40.00 L 688.55 40.00 L 685.11 40.00 L 681.67 40.00 L 678.23 40.00 L 674.79 40.00 L 671.34 40.00"/>
<path d="M 840.00 60.24 L 840.00 59.83 L 840.00 59.41 L 840.00 59.00 L 840.00 58.59 L 840.00 58.17 L 840.00 57.76 L 840.00 57.35 L 840.00 56.93 L 840.00 56.52 L 840.00 56.11 L 840.00 55.70 L 840.00 55.28 L 840.00 54.87 L 840.00 54.46 L 840.00 54.04 L 840.00 53.63 L 840.00 53.22 L 840.00 52.80 L 840.00 52.39 L 840.00 51.98 L 840.00 51.57 L 840.00 51.15 L 840.00 50.74 L 840.00 50.33 L 840.00 49.91 L 840.00 49.50 L 840.00 49.09 L 840.00 48.67 L 840.00 48.26 L 840.00 47.85 L 840.00 47.43 L 840.00 47.02 L 840.00 46.61 L 840.00 46.20 L 840.00 45.78 L 840.00 45.37 L 840.00 44.96 L 840.00 44.54 L 840.00 44.13 L 840.00 43.72 L 840.00 43.30 L 840.00 42.89 L 840.00 42.48 L 840.00 42.07 L 840.00 41.65 L 840.00 41.24 L 840.00 40.83 L 840.00 40.41 L 840.00 40.00"/>
<path d="M 671.34 60.24 L 674.79 60.24 L 678.23 60.24 L 681.67 60.24 L 685.11 60.24 L 688.55 60.24 L 691.99 60.24 L 695.44 60.24 L 698.88 60.24 L 702.32 60.24 L 705.76 60.24 L 709.20 60.24 L 712.65 60.24 L 716.09 60.24 L 719.53 60.24 L 722.97 60.24 L 726.41 60.24 L 729.86 60.24 L 733.30 60.24 L 736.74 60.24 L 740.18 60.24 L 743.62 60.24 L 747.07 60.24 L 750.51 60.24 L 753.95 60.24 L 757.39 60.24 L 760.83 60.24 L 764.28 60.24 L 767.72 60.24 L 771.16 60.24 L 774.60 60.24 L 778.04 60.24 L 781.49 60.24 L 784.93 60.24 L 788.37 60.24 L 791.81 60.24 L 795.25 60.24 L 798.70 60.24 L 802.14 60.24 L 805.58 60.24 L 809.02 60.24 L 812.46 60.24 L 815.91 60.24 L 819.35 60.24 L 822.79 60.24 L 826.23 60.24 L 829.67 60.24 L 833.12 60.24 L 836.56 60.24 L 840.00 60.24"/>
<path d="M 111.15 52.49 L 111.15 52.39 L 111.15 52.30 L 111.15 52.20 L 111.15 52.10 L 111.15 52.01 L 111.15 51.91 L 111.15 51.81 L 111.15 51.72 L 111.15 51.62 L 111.15 51.52 L 111.15 51.43 L 111.15 51.33 L 111.15 51.23 L 111.15 51.14 L 111.15 51.04 L 111.15 50.94 L 111.15 50.85 L 111.15 50.75 L 111.15 50.65 L 111.15 50.56 L 111.15 50.46 L 111.15 50.36 L 111.15 50.26 L 111.15 50.17 L 111.15 50.07 L 111.15 49.97 L 111.15 49.88 L 111.15 49.78 L 111.15 49.68 L 111.15 49.59 L 111.15 49.49 L 111.15 49.39 L 111.15 49.30 L 111.15 49.20 L 111.15 49.10 L 111.15 49.01 L 111.15 48.91 L 111.15 48.81 L 111.15 48.72 L 111.15 48.62 L 111.15 48.52 L 111.15 48.43 L 111.15 48.33 L 111.15 48.23 L 111.15 48.13 L 111.15 48.04 L 111.15 47.94 L 111.15 47.84 L 111.15 47.75"/>
<path d="M 111.15 52.49 L 109.70 52.49 L 108.25 52.49 L 106.80 52.49 L 105.34 52.49 L 103.89 52.49 L 102.44 52.49 L 100.99 52.49 L 99.54 52.49 L 98.08 52.49 L 96.63 52.49 L 95.18 52.49 L 93.73 52.49 L 92.28 52.49 L 90.82 52.49 L 89.37 52.49 L 87.92 52.49 L 86.47 52.49 L 85.01 52.49 L 83.56 52.49 L 82.11 52.49 L 80.66 52.49 L 79.21 52.49 L 77.75 52.49 L 76.30 52.49 L 74.85 52.49 L 73.40 52.49 L 71.95 52.49 L 70.49 52.49 L 69.04 52.49 L 67.59 52.49 L 66.14 52.49 L 64.69 52.49 L 63.23 52.49 L 61.78 52.49 L 60.33 52.49 L 58.88 52.49 L 57.43 52.49 L 55.97 52.49 L 54.52 52.49 L 53.07 52.49 L 51.62 52.49 L 50.16 52.49 L 48.71 52.49 L 47.26 52.49 L 45.81 52.49 L 44.36 52.49 L 42.90 52.49 L 41.45 52.49 L 40.00 52.49"/>
<path d="M 40.00 52.49 L 40.00 52.39 L 40.00 52.30 L 40.00 52.20 L 40.00 52.10 L 40.00 52.01 L 40.00 51.91 L 40.00 51.81 L 40.00 51.72 L 40.00 51.62 L 40.00 51.52 L 40.00 51.43 L 40.00 51.33 L 40.00 51.23 L 40.00 51.14 L 40.00 51.04 L 40.00 50.94 L 40.00 50.85 L 40.00 50.75 L 40.00 50.65 L 40.00 50.56 L 40.00 50.46 L 40.00 50.36 L 40.00 50.26 L 40.00 50.17 L 40.00 50.07 L 40.00 49.97 L 40.00 49.88 L 40.00 49.78 L 40.00 49.68 L 40.00 49.59 L 40.00 49.49 L 40.00 49.39 L 40.00 49.30 L 40.00 49.20 L 40.00 49.10 L 40.00 49.01 L 40.00 48.91 L 40.00 48.81 L 40.00 48.72 L 40.00 48.62 L 40.00 48.52 L 40.00 48.43 L 40.00 48.33 L 40.00 48.23 L 40.00 48.13 L 40.00 48.04 L 40.00 47.94 L 40.00 47.84 L 40.00 47.75"/>
<path d="M 111.15 47.75 L 109.70 47.75 L 108.25 47.75 L 106.80 47.75 L 105.34 47.75 L 103.89 47.75 L 102.44 47.75 L 100.99 47.75 L 99.54 47.75 L 98.08 47.75 L 96.63 47.75 L 95.18 47.75 L 93.73 47.75 L 92.28 47.75 L 90.82 47.75 L 89.37 47.75 L 87.92 47.75 L 86.47 47.75 L 85.01 47.75 L 83.56 47.75 L 82.11 47.75 L 80.66 47.75 L 79.21 47.75 L 77.75 47.75 L 76.30 47.75 L 74.85 47.75 L 73.40 47.75 L 71.95 47.75 L 70.49 47.75 L 69.04 47.75 L 67.59 47.75 L 66.14 47.75 L 64.69 47.75 L 63.23 47.75 L 61.78 47.75 L 60.33 47.75 L 58.88 47.75 L 57.43 47.75 L 55.97 47.75 L 54.52 47.75 L 53.07 47.75 L 51.62 47.75 L 50.16 47.75 L 48.71 47.75 L 47.26 47.75 L 45.81 47.75 L 44.36 47.75 L 42.90 47.75 L 41.45 47.75 L 40.00 47.75"/>
<path d="M 75.58 46.56 L 76.03 46.59 L 76.48 46.68 L 76.91 46.82 L 77.32 47.02 L 77.70 47.27 L 78.05 47.56 L 78.36 47.90 L 78.62 48.28 L 78.83 48.68 L 78.99 49.11 L 79.09 49.55 L 79.13 50.01 L 79.12 50.46 L 79.04 50.91 L 78.91 51.35 L 78.73 51.76 L 78.49 52.15 L 78.21 52.51 L 77.88 52.83 L 77.52 53.10 L 77.12 53.32 L 76.70 53.50 L 76.26 53.61 L 75.80 53.67 L 75.35 53.67 L 74.90 53.61 L 74.46 53.50 L 74.03 53.32 L 73.64 53.10 L 73.27 52.83 L 72.94 52.51 L 72.66 52.15 L 72.42 51.76 L 72.24 51.35 L 72.11 50.91 L 72.03 50.46 L 72.02 50.01 L 72.06 49.55 L 72.17 49.11 L 72.32 48.68 L 72.53 48.28 L 72.79 47.90 L 73.10 47.56 L 73.45 47.27 L 73.83 47.02 L 74.24 46.82 L 74.67 46.68 L 75.12 46.59 L 75.58 46.56"/>
</g>
<g stroke="black" stroke-width="1" fill="black">
<line x1="40.0" y1="115.2" x2="158.6" y2="115.2"/>
<line x1="40.0" y1="110.2" x2="40.0" y2="120.2"/>
<line x1="158.6" y1="110.2" x2="158.6" y2="120.2"/>
<text x="99.3" y="107.2" text-anchor="middle" font-family="sans-serif" font-size="10">0.5 m</text>
</g>
</svg>