<?xml version="1.0" encoding="UTF-8"?>
<svg xmlns="http://www.w3.org/2000/svg" version="1.1" width="880.0" height="566.9" viewBox="0 0 880.0 566.9">
<g fill="none" stroke="black" stroke-width="1.0">
<path d="M 834.07 45.56 L 834.19 45.56 L 834.31 45.56 L 834.43 45.56 L 834.56 45.56 L 834.68 45.56 L 834.80 45.56 L 834.92 45.56 L 835.04 45.56 L 835.16 45.56 L 835.28 45.56 L 835.40 45.56 L 835.52 45.56 L 835.64 45.56 L 835.76 45.56 L 835.89 45.56 L 836.01 45.56 L 836.13 45.56 L 836.25 45.56 L 836.37 45.56 L 836.49 45.56 L 836.61 45.56 L 836.73 45.56 L 836.85 45.56 L 836.97 45.56 L 837.10 45.56 L 837.22 45.56 L 837.34 45.56 L 837.46 45.56 L 837.58 45.56 L 837.70 45.56 L 837.82 45.56 L 837.94 45.56 L 838.06 45.56 L 838.18 45.56 L 838.31 45.56 L 838.43 45.56 L 838.55 45.56 L 838.67 45.56 L 838.79 45.56 L 838.91 45.56 L 839.03 45.56 L 839.15 45.56 L 839.27 45.56 L 839.39 45.56 L 839.52 45.56 L 839.64 45.56 L 839.76 45.56 L 839.88 45.56 L 840.00 45.56"/>
<path d="M 840.00 45.56 L 838.46 71.08 L 833.86 96.24 L 826.55 120.76 L 816.86 144.43 L 805.16 167.18 L 791.81 189.00 L 777.12 209.95 L 761.33 230.09 L 744.65 249.49 L 727.23 268.24 L 709.21 286.40 L 690.68 304.05 L 671.74 321.25 L 652.44 338.06 L 632.81 354.48 L 612.93 370.59 L 592.93 386.55 L 572.87 402.44 L 552.49 417.92 L 531.49 432.53 L 510.49 447.15 L 490.83 463.51 L 472.52 481.38 L 452.26 496.87 L 427.74 496.87 L 407.48 481.38 L 389.17 463.51 L 369.51 447.15 L 348.51 432.53 L 327.51 417.92 L 307.13 402.44 L 287.07 386.55 L 267.07 370.59 L 247.19 354.48 L 227.56 338.06 L 208.26 321.25 L 189.32 304.05 L 170.79 286.40 L 152.77 268.24 L 135.35 249.49 L 118.67 230.09 L 102.88 209.95 L 88.19 189.00 L 74.84 167.18 L 63.14 144.43 L 53.45 120.76 L 46.14 96.24 L 41.54 71.08 L 40.00 45.56"/>
<path d="M 40.00 45.56 L 40.12 45.56 L 40.24 45.56 L 40.36 45.56 L 40.48 45.56 L 40.61 45.56 L 40.73 45.56 L 40.85 45.56 L 40.97 45.56 L 41.09 45.56 L 41.21 45.56 L 41.33 45.56 L 41.45 45.56 L 41.57 45.56 L 41.69 45.56 L 41.82 45.56 L 41.94 45.56 L 42.06 45.56 L 42.18 45.56 L 42.30 45.56 L 42.42 45.56 L 42.54 45.56 L 42.66 45.56 L 42.78 45.56 L 42.90 45.56 L 43.03 45.56 L 43.15 45.56 L 43.27 45.56 L 43.39 45.56 L 43.51 45.56 L 43.63 45.56 L 43.75 45.56 L 43.87 45.56 L 43.99 45.56 L 44.11 45.56 L 44.24 45.56 L 44.36 45.56 L 44.48 45.56 L 44.60 45.56 L 44.72 45.56 L 44.84 45.56 L 44.96 45.56 L 45.08 45.56 L 45.20 45.56 L 45.32 45.56 L 45.44 45.56 L 45.57 45.56 L 45.69 45.56 L 45.81 45.56 L 45.93 45.56"/>
<path d="M 834.07 45.56 L 832.55 70.73 L 828.03 95.54 L 820.84 119.72 L 811.30 143.07 L 799.78 165.52 L 786.64 187.06 L 772.18 207.73 L 756.63 227.61 L 740.20 246.76 L 723.04 265.26 L 705.28 283.19 L 687.03 300.61 L 668.37 317.60 L 649.35 334.19 L 630.01 350.40 L 610.42 366.30 L 590.71 382.06 L 570.95 397.75 L 550.86 413.03 L 530.16 427.46 L 509.47 441.90 L 490.09 458.04 L 472.05 475.69 L 452.08 490.98 L 427.92 490.98 L 407.95 475.69 L 389.91 458.04 L 370.53 441.90 L 349.84 427.46 L 329.14 413.03 L 309.05 397.75 L 289.29 382.06 L 269.58 366.30 L 249.99 350.40 L 230.65 334.19 L 211.63 317.60 L 192.97 300.61 L 174.72 283.19 L 156.96 265.26 L 139.80 246.76 L 123.37 227.61 L 107.82 207.73 L 93.36 187.06 L 80.22 165.52 L 68.70 143.07 L 59.16 119.72 L 51.97 95.54 L 47.45 70.73 L 45.93 45.56"/>
<path d="M 40.00 40.00 L 40.00 40.12 L 40.00 40.24 L 40.00 40.36 L 40.00 40.48 L 40.00 40.60 L 40.00 40.73 L 40.00 40.85 L 40.00 40.97 L 40.00 41.09 L 40.00 41.21 L 40.00 41.33 L 40.00 41.45 L 40.00 41.57 L 40.00 41.69 L 40.00 41.81 L 40.00 41.94 L 40.00 42.06 L 40.00 42.18 L 40.00 42.30 L 40.00 42.42 L 40.00 42.54 L 40.00 42.66 L 40.00 42.78 L 40.00 42.90 L 40.00 43.02 L 40.00 43.15 L 40.00 43.27 L 40.00 43.39 L 40.00 43.51 L 40.00 43.63 L 40.00 43.75 L 40.00 43.87 L 40.00 43.99 L 40.00 44.11 L 40.00 44.23 L 40.00 44.36 L 40.00 44.48 L 40.00 44.60 L 40.00 44.72 L 40.00 44.84 L 40.00 44.96 L 40.00 45.08 L 40.00 45.20 L 40.00 45.32 L 40.00 45.44 L 40.00 45.56 L 40.00 45.69 L 40.00 45.81 L 40.00 45.93"/>
<path d="M 840.00 40.00 L 823.67 40.00 L 807.35 40.00 L 791.02 40.00 L 774.69 40.00 L 758.37 40.00 L 742.04 40.00 L 725.71 40.00 L 709.39 40.00 L 693.06 40.00 L 676.73 40.00 L 660.41 40.00 L 644.08 40.00 L 627.76 40.00 L 611.43 40.00 L 595.10 40.00 L 578.78 40.00 L 562.45 40.00 L 546.12 40.00 L 529.80 40.00 L 513.47 40.00 L 497.14 40.00 L 480.82 40.00 L 464.49 40.00 L 448.16 40.00 L 431.84 40.00 L 415.51 40.00 L 399.18 40.00 L 382.86 40.00 L 366.53 40.00 L 350.20 40.00 L 333.88 40.00 L 317.55 40.00 L 301.22 40.00 L 284.90 40.00 L 268.57 40.00 L 252.24 40.00 L 235.92 40.00 L 219.59 40.00 L 203.27 40.00 L 186.94 40.00 L 170.61 40.00 L 154.29 40.00 L 137.96 40.00 L 121.63 40.00 L 105.31 40.00 L 88.98 40.00 L 72.65 40.00 L 56.33 40.00 L 40.00 40.00"/>
<path d="M 840.00 40.00 L 840.00 40.12 L 840.00 40.24 L 840.00 40.36 L 840.00 40.48 L 840.00 40.60 L 840.00 40.73 L 840.00 40.85 L 840.00 40.97 L 840.00 41.09 L 840.00 41.21 L 840.00 41.33 L 840.00 41.45 L 840.00 41.57 L 840.00 41.69 L 840.00 41.81 L 840.00 41.94 L 840.00 42.06 L 840.00 42.18 L 840.00 42.30 L 840.00 42.42 L 840.00 42.54 L 840.00 42.66 L 840.00 42.78 L 840.00 42.90 L 840.00 43.02 L 840.00 43.15 L 840.00 43.27 L 840.00 43.39 L 840.00 43.51 L 840.00 43.63 L 840.00 43.75 L 840.00 43.87 L 840.00 43.99 L 840.00 44.11 L 840.00 44.23 L 840.00 44.36 L 840.00 44.48 L 840.00 44.60 L 840.00 44.72 L 840.00 44.84 L 840.00 44.96 L 840.00 45.08 L 840.00 45.20 L 840.00 45.32 L 840.00 45.44 L 840.00 45.56 L 840.00 45.69 L 840.00 45.81 L 840.00 45.93"/>
<path d="M 840.00 45.93 L 823.67 45.93 L 807.35 45.93 L 791.02 45.93 L 774.69 45.93 L 758.37 45.93 L 742.04 45.93 L 725.71 45.93 L 709.39 45.93 L 693.06 45.93 L 676.73 45.93 L 660.41 45.93 L 644.08 45.93 L 627.76 45.93 L 611.43 45.93 L 595.10 45.93 L 578.78 45.93 L 562.45 45.93 L 546.12 45.93 L 529.80 45.93 L 513.47 45.93 L 497.14 45.93 L 480.82 45.93 L 464.49 45.93 L 448.16 45.93 L 431.84 45.93 L 415.51 45.93 L 399.18 45.93 L 382.86 45.93 L 366.53 45.93 L 350.20 45.93 L 333.88 45.93 L 317.55 45.93 L 301.22 45.93 L 284.90 45.93 L 268.57 45.93 L 252.24 45.93 L 235.92 45.93 L 219.59 45.93 L 203.27 45.93 L 186.94 45.93 L 170.61 45.93 L 154.29 45.93 L 137.96 45.93 L 121.63 45.93 L 105.31 45.93 L 88.98 45.93 L 72.65 45.93 L 56.33 45.93 L 40.00 45.93"/>
</g>
<g stroke="black" stroke-width="1" fill="black">
<line x1="40.0" y1="551.9" x2="188.2" y2="551.9"/>
<line x1="40.0" y1="546.9" x2="40.0" y2="556.9"/>
<line x1="188.2" y1="546.9" x2="188.2" y2="556.9"/>
<text x="114.1" y="543.9" text-anchor="middle" font-family="sans-serif" font-size="10">200 mm</text>
</g>
</svg>