<?xml version="1.0" encoding="UTF-8"?>
<svg xmlns="http://www.w3.org/2000/svg" version="1.1" width="880.0" height="767.3" viewBox="0 0 880.0 767.3">
<g fill="none" stroke="black" stroke-width="1.0">
<path d="M 837.09 42.73 L 837.15 42.73 L 837.21 42.73 L 837.27 42.73 L 837.33 42.73 L 837.39 42.73 L 837.45 42.73 L 837.51 42.73 L 837.57 42.73 L 837.62 42.73 L 837.68 42.73 L 837.74 42.73 L 837.80 42.73 L 837.86 42.73 L 837.92 42.73 L 837.98 42.73 L 838.04 42.73 L 838.10 42.73 L 838.16 42.73 L 838.22 42.73 L 838.28 42.73 L 838.34 42.73 L 838.40 42.73 L 838.46 42.73 L 838.51 42.73 L 838.57 42.73 L 838.63 42.73 L 838.69 42.73 L 838.75 42.73 L 838.81 42.73 L 838.87 42.73 L 838.93 42.73 L 838.99 42.73 L 839.05 42.73 L 839.11 42.73 L 839.17 42.73 L 839.23 42.73 L 839.29 42.73 L 839.35 42.73 L 839.41 42.73 L 839.46 42.73 L 839.52 42.73 L 839.58 42.73 L 839.64 42.73 L 839.70 42.73 L 839.76 42.73 L 839.82 42.73 L 839.88 42.73 L 839.94 42.73 L 840.00 42.73"/>
<path d="M 840.00 42.73 L 837.83 64.48 L 831.61 85.44 L 822.17 105.18 L 810.28 123.55 L 796.62 140.66 L 781.68 156.65 L 765.77 171.70 L 749.15 185.95 L 731.97 199.53 L 714.35 212.53 L 696.38 225.04 L 678.14 237.14 L 659.66 248.90 L 640.98 260.32 L 622.13 271.45 L 603.16 282.40 L 584.17 293.29 L 565.09 304.04 L 545.76 314.33 L 526.11 323.97 L 506.64 333.99 L 488.06 345.56 L 470.13 358.12 L 450.75 368.18 L 429.25 368.18 L 409.87 358.12 L 391.94 345.56 L 373.36 333.99 L 353.89 323.97 L 334.24 314.33 L 314.91 304.04 L 295.83 293.29 L 276.84 282.40 L 257.87 271.45 L 239.02 260.32 L 220.34 248.90 L 201.86 237.14 L 183.62 225.04 L 165.65 212.53 L 148.03 199.53 L 130.85 185.95 L 114.23 171.70 L 98.32 156.65 L 83.38 140.66 L 69.72 123.55 L 57.83 105.18 L 48.39 85.44 L 42.17 64.48 L 40.00 42.73"/>
<path d="M 40.00 42.73 L 40.06 42.73 L 40.12 42.73 L 40.18 42.73 L 40.24 42.73 L 40.30 42.73 L 40.36 42.73 L 40.42 42.73 L 40.48 42.73 L 40.54 42.73 L 40.59 42.73 L 40.65 42.73 L 40.71 42.73 L 40.77 42.73 L 40.83 42.73 L 40.89 42.73 L 40.95 42.73 L 41.01 42.73 L 41.07 42.73 L 41.13 42.73 L 41.19 42.73 L 41.25 42.73 L 41.31 42.73 L 41.37 42.73 L 41.43 42.73 L 41.49 42.73 L 41.54 42.73 L 41.60 42.73 L 41.66 42.73 L 41.72 42.73 L 41.78 42.73 L 41.84 42.73 L 41.90 42.73 L 41.96 42.73 L 42.02 42.73 L 42.08 42.73 L 42.14 42.73 L 42.20 42.73 L 42.26 42.73 L 42.32 42.73 L 42.38 42.73 L 42.43 42.73 L 42.49 42.73 L 42.55 42.73 L 42.61 42.73 L 42.67 42.73 L 42.73 42.73 L 42.79 42.73 L 42.85 42.73 L 42.91 42.73"/>
<path d="M 837.09 42.73 L 834.93 64.30 L 828.75 85.10 L 819.36 104.67 L 807.55 122.88 L 793.98 139.84 L 779.14 155.70 L 763.35 170.61 L 746.84 184.73 L 729.78 198.18 L 712.29 211.06 L 694.46 223.46 L 676.34 235.45 L 658.01 247.10 L 639.47 258.42 L 620.75 269.45 L 601.93 280.29 L 583.08 291.08 L 564.15 301.74 L 544.96 311.93 L 525.45 321.48 L 506.13 331.41 L 487.69 342.87 L 469.90 355.33 L 450.67 365.29 L 429.33 365.29 L 410.10 355.33 L 392.31 342.87 L 373.87 331.41 L 354.55 321.48 L 335.04 311.93 L 315.85 301.74 L 296.92 291.08 L 278.07 280.29 L 259.25 269.45 L 240.53 258.42 L 221.99 247.10 L 203.66 235.45 L 185.54 223.46 L 167.71 211.06 L 150.22 198.18 L 133.16 184.73 L 116.65 170.61 L 100.86 155.70 L 86.02 139.84 L 72.45 122.88 L 60.64 104.67 L 51.25 85.10 L 45.07 64.30 L 42.91 42.73"/>
<path d="M 40.00 40.00 L 40.00 40.06 L 40.00 40.12 L 40.00 40.18 L 40.00 40.24 L 40.00 40.30 L 40.00 40.36 L 40.00 40.42 L 40.00 40.47 L 40.00 40.53 L 40.00 40.59 L 40.00 40.65 L 40.00 40.71 L 40.00 40.77 L 40.00 40.83 L 40.00 40.89 L 40.00 40.95 L 40.00 41.01 L 40.00 41.07 L 40.00 41.13 L 40.00 41.19 L 40.00 41.25 L 40.00 41.31 L 40.00 41.37 L 40.00 41.42 L 40.00 41.48 L 40.00 41.54 L 40.00 41.60 L 40.00 41.66 L 40.00 41.72 L 40.00 41.78 L 40.00 41.84 L 40.00 41.90 L 40.00 41.96 L 40.00 42.02 L 40.00 42.08 L 40.00 42.14 L 40.00 42.20 L 40.00 42.26 L 40.00 42.32 L 40.00 42.37 L 40.00 42.43 L 40.00 42.49 L 40.00 42.55 L 40.00 42.61 L 40.00 42.67 L 40.00 42.73 L 40.00 42.79 L 40.00 42.85 L 40.00 42.91"/>
<path d="M 840.00 40.00 L 823.67 40.00 L 807.35 40.00 L 791.02 40.00 L 774.69 40.00 L 758.37 40.00 L 742.04 40.00 L 725.71 40.00 L 709.39 40.00 L 693.06 40.00 L 676.73 40.00 L 660.41 40.00 L 644.08 40.00 L 627.76 40.00 L 611.43 40.00 L 595.10 40.00 L 578.78 40.00 L 562.45 40.00 L 546.12 40.00 L 529.80 40.00 L 513.47 40.00 L 497.14 40.00 L 480.82 40.00 L 464.49 40.00 L 448.16 40.00 L 431.84 40.00 L 415.51 40.00 L 399.18 40.00 L 382.86 40.00 L 366.53 40.00 L 350.20 40.00 L 333.88 40.00 L 317.55 40.00 L 301.22 40.00 L 284.90 40.00 L 268.57 40.00 L 252.24 40.00 L 235.92 40.00 L 219.59 40.00 L 203.27 40.00 L 186.94 40.00 L 170.61 40.00 L 154.29 40.00 L 137.96 40.00 L 121.63 40.00 L 105.31 40.00 L 88.98 40.00 L 72.65 40.00 L 56.33 40.00 L 40.00 40.00"/>
<path d="M 840.00 40.00 L 840.00 40.06 L 840.00 40.12 L 840.00 40.18 L 840.00 40.24 L 840.00 40.30 L 840.00 40.36 L 840.00 40.42 L 840.00 40.47 L 840.00 40.53 L 840.00 40.59 L 840.00 40.65 L 840.00 40.71 L 840.00 40.77 L 840.00 40.83 L 840.00 40.89 L 840.00 40.95 L 840.00 41.01 L 840.00 41.07 L 840.00 41.13 L 840.00 41.19 L 840.00 41.25 L 840.00 41.31 L 840.00 41.37 L 840.00 41.42 L 840.00 41.48 L 840.00 41.54 L 840.00 41.60 L 840.00 41.66 L 840.00 41.72 L 840.00 41.78 L 840.00 41.84 L 840.00 41.90 L 840.00 41.96 L 840.00 42.02 L 840.00 42.08 L 840.00 42.14 L 840.00 42.20 L 840.00 42.26 L 840.00 42.32 L 840.00 42.37 L 840.00 42.43 L 840.00 42.49 L 840.00 42.55 L 840.00 42.61 L 840.00 42.67 L 840.00 42.73 L 840.00 42.79 L 840.00 42.85 L 840.00 42.91"/>
<path d="M 840.00 42.91 L 823.67 42.91 L 807.35 42.91 L 791.02 42.91 L 774.69 42.91 L 758.37 42.91 L 742.04 42.91 L 725.71 42.91 L 709.39 42.91 L 693.06 42.91 L 676.73 42.91 L 660.41 42.91 L 644.08 42.91 L 627.76 42.91 L 611.43 42.91 L 595.10 42.91 L 578.78 42.91 L 562.45 42.91 L 546.12 42.91 L 529.80 42.91 L 513.47 42.91 L 497.14 42.91 L 480.82 42.91 L 464.49 42.91 L 448.16 42.91 L 431.84 42.91 L 415.51 42.91 L 399.18 42.91 L 382.86 42.91 L 366.53 42.91 L 350.20 42.91 L 333.88 42.91 L 317.55 42.91 L 301.22 42.91 L 284.90 42.91 L 268.57 42.91 L 252.24 42.91 L 235.92 42.91 L 219.59 42.91 L 203.27 42.91 L 186.94 42.91 L 170.61 42.91 L 154.29 42.91 L 137.96 42.91 L 121.63 42.91 L 105.31 42.91 L 88.98 42.91 L 72.65 42.91 L 56.33 42.91 L 40.00 42.91"/>
<path d="M 422.55 370.01 L 423.26 370.01 L 423.97 370.01 L 424.68 370.01 L 425.39 370.01 L 426.11 370.01 L 426.82 370.01 L 427.53 370.01 L 428.24 370.01 L 428.96 370.01 L 429.67 370.01 L 430.38 370.01 L 431.09 370.01 L 431.81 370.01 L 432.52 370.01 L 433.23 370.01 L 433.94 370.01 L 434.66 370.01 L 435.37 370.01 L 436.08 370.01 L 436.79 370.01 L 437.51 370.01 L 438.22 370.01 L 438.93 370.01 L 439.64 370.01 L 440.36 370.01 L 441.07 370.01 L 441.78 370.01 L 442.49 370.01 L 443.21 370.01 L 443.92 370.01 L 444.63 370.01 L 445.34 370.01 L 446.06 370.01 L 446.77 370.01 L 447.48 370.01 L 448.19 370.01 L 448.91 370.01 L 449.62 370.01 L 450.33 370.01 L 451.04 370.01 L 451.76 370.01 L 452.47 370.01 L 453.18 370.01 L 453.89 370.01 L 454.61 370.01 L 455.32 370.01 L 456.03 370.01 L 456.74 370.01 L 457.45 370.01"/>
<path d="M 457.45 370.01 L 457.28 376.69 L 457.10 383.36 L 456.92 390.04 L 456.74 396.72 L 456.56 403.40 L 456.39 410.08 L 456.21 416.76 L 456.03 423.44 L 455.85 430.12 L 455.67 436.80 L 455.50 443.48 L 455.32 450.16 L 455.14 456.84 L 454.96 463.51 L 454.78 470.19 L 454.61 476.87 L 454.43 483.55 L 454.25 490.23 L 454.07 496.91 L 453.89 503.59 L 453.71 510.27 L 453.54 516.95 L 453.36 523.63 L 453.18 530.31 L 453.00 536.99 L 452.82 543.66 L 452.65 550.34 L 452.47 557.02 L 452.29 563.70 L 452.11 570.38 L 451.93 577.06 L 451.76 583.74 L 451.58 590.42 L 451.40 597.10 L 451.22 603.78 L 451.04 610.46 L 450.86 617.14 L 450.69 623.82 L 450.51 630.49 L 450.33 637.17 L 450.15 643.85 L 449.97 650.53 L 449.80 657.21 L 449.62 663.89 L 449.44 670.57 L 449.26 677.25 L 449.08 683.93 L 448.91 690.61 L 448.73 697.29"/>
<path d="M 431.27 697.29 L 431.63 697.29 L 431.98 697.29 L 432.34 697.29 L 432.70 697.29 L 433.05 697.29 L 433.41 697.29 L 433.77 697.29 L 434.12 697.29 L 434.48 697.29 L 434.83 697.29 L 435.19 697.29 L 435.55 697.29 L 435.90 697.29 L 436.26 697.29 L 436.62 697.29 L 436.97 697.29 L 437.33 697.29 L 437.68 697.29 L 438.04 697.29 L 438.40 697.29 L 438.75 697.29 L 439.11 697.29 L 439.47 697.29 L 439.82 697.29 L 440.18 697.29 L 440.53 697.29 L 440.89 697.29 L 441.25 697.29 L 441.60 697.29 L 441.96 697.29 L 442.32 697.29 L 442.67 697.29 L 443.03 697.29 L 443.38 697.29 L 443.74 697.29 L 444.10 697.29 L 444.45 697.29 L 444.81 697.29 L 445.17 697.29 L 445.52 697.29 L 445.88 697.29 L 446.23 697.29 L 446.59 697.29 L 446.95 697.29 L 447.30 697.29 L 447.66 697.29 L 448.02 697.29 L 448.37 697.29 L 448.73 697.29"/>
<path d="M 422.55 370.01 L 422.72 376.69 L 422.90 383.36 L 423.08 390.04 L 423.26 396.72 L 423.44 403.40 L 423.61 410.08 L 423.79 416.76 L 423.97 423.44 L 424.15 430.12 L 424.33 436.80 L 424.50 443.48 L 424.68 450.16 L 424.86 456.84 L 425.04 463.51 L 425.22 470.19 L 425.39 476.87 L 425.57 483.55 L 425.75 490.23 L 425.93 496.91 L 426.11 503.59 L 426.29 510.27 L 426.46 516.95 L 426.64 523.63 L 426.82 530.31 L 427.00 536.99 L 427.18 543.66 L 427.35 550.34 L 427.53 557.02 L 427.71 563.70 L 427.89 570.38 L 428.07 577.06 L 428.24 583.74 L 428.42 590.42 L 428.60 597.10 L 428.78 603.78 L 428.96 610.46 L 429.14 617.14 L 429.31 623.82 L 429.49 630.49 L 429.67 637.17 L 429.85 643.85 L 430.03 650.53 L 430.20 657.21 L 430.38 663.89 L 430.56 670.57 L 430.74 677.25 L 430.92 683.93 L 431.09 690.61 L 431.27 697.29"/>
</g>
<g stroke="black" stroke-width="1" fill="black">
<line x1="40.0" y1="752.3" x2="221.8" y2="752.3"/>
<line x1="40.0" y1="747.3" x2="40.0" y2="757.3"/>
<line x1="221.8" y1="747.3" x2="221.8" y2="757.3"/>
<text x="130.9" y="744.3" text-anchor="middle" font-family="sans-serif" font-size="10">0.5 m</text>
</g>
</svg>