<?xml version="1.0" encoding="UTF-8"?>
<svg xmlns="http://www.w3.org/2000/svg" version="1.1" width="880.0" height="120.4" viewBox="0 0 880.0 120.4">
<g fill="none" stroke="black" stroke-width="1.0">
<path d="M 796.38 50.30 L 800.60 50.21 L 804.82 50.09 L 809.03 49.93 L 813.24 49.72 L 817.45 49.46 L 821.65 49.14 L 825.85 48.75 L 830.04 48.26 L 834.21 47.63 L 838.32 46.70 L 840.00 44.32 L 835.99 43.07 L 831.83 42.34 L 827.65 41.80 L 823.46 41.37 L 819.26 41.03 L 815.05 40.74 L 810.84 40.51 L 806.63 40.33 L 802.41 40.19 L 798.20 40.09 L 793.98 40.02 L 789.76 40.00 L 785.55 40.01 L 781.33 40.06 L 777.11 40.15 L 772.90 40.28 L 768.69 40.46 L 764.48 40.68 L 760.27 40.97 L 756.07 41.32 L 751.87 41.75 L 747.69 42.31 L 743.55 43.08 L 739.59 44.46 L 741.79 46.82 L 745.91 47.75 L 750.08 48.38 L 754.26 48.86 L 758.46 49.25 L 762.67 49.56 L 766.88 49.80 L 771.09 50.00 L 775.30 50.15 L 779.52 50.26 L 783.74 50.32 L 787.95 50.35 L 792.17 50.34 L 796.38 50.30"/>
<path d="M 44.11 41.06 L 44.64 41.09 L 45.16 41.19 L 45.66 41.36 L 46.13 41.59 L 46.58 41.88 L 46.98 42.22 L 47.33 42.61 L 47.63 43.04 L 47.88 43.51 L 48.06 44.01 L 48.18 44.52 L 48.23 45.04 L 48.21 45.57 L 48.13 46.09 L 47.98 46.60 L 47.76 47.08 L 47.49 47.53 L 47.16 47.94 L 46.78 48.31 L 46.36 48.63 L 45.90 48.89 L 45.41 49.08 L 44.90 49.22 L 44.38 49.29 L 43.85 49.29 L 43.33 49.22 L 42.82 49.08 L 42.33 48.89 L 41.87 48.63 L 41.45 48.31 L 41.07 47.94 L 40.74 47.53 L 40.46 47.08 L 40.25 46.60 L 40.10 46.09 L 40.02 45.57 L 40.00 45.04 L 40.05 44.52 L 40.17 44.01 L 40.35 43.51 L 40.59 43.04 L 40.90 42.61 L 41.25 42.22 L 41.65 41.88 L 42.09 41.59 L 42.57 41.36 L 43.07 41.19 L 43.59 41.09 L 44.11 41.06"/>
</g>
<g stroke="black" stroke-width="1" fill="black">
<line x1="40.0" y1="105.4" x2="177.2" y2="105.4"/>
<line x1="40.0" y1="100.4" x2="40.0" y2="110.4"/>
<line x1="177.2" y1="100.4" x2="177.2" y2="110.4"/>
<text x="108.6" y="97.4" text-anchor="middle" font-family="sans-serif" font-size="10">0.5 m</text>
</g>
</svg>