<?xml version="1.0" encoding="UTF-8"?>
<svg xmlns="http://www.w3.org/2000/svg" version="1.1" width="880.0" height="323.3" viewBox="0 0 880.0 323.3">
<g fill="none" stroke="black" stroke-width="1.0">
<path d="M 41.20 178.42 L 74.14 187.94 L 107.71 195.06 L 141.34 201.86 L 174.86 209.14 L 208.31 216.78 L 241.81 224.21 L 275.48 230.79 L 309.37 236.12 L 343.42 240.34 L 377.47 244.52 L 411.51 248.82 L 445.67 251.99 L 479.95 253.29 L 514.25 252.52 L 548.45 249.82 L 582.47 245.43 L 616.27 239.53 L 649.73 231.96 L 682.57 222.08 L 714.48 209.48 L 746.07 196.09 L 777.66 182.71 L 809.02 168.79 L 840.00 154.10 L 840.00 139.19 L 809.02 124.50 L 777.66 110.58 L 746.07 97.20 L 714.48 83.81 L 682.57 71.21 L 649.73 61.33 L 616.27 53.76 L 582.47 47.86 L 548.45 43.48 L 514.25 40.77 L 479.95 40.00 L 445.67 41.30 L 411.51 44.47 L 377.47 48.77 L 343.42 52.95 L 309.37 57.17 L 275.48 62.50 L 241.81 69.08 L 208.31 76.51 L 174.86 84.15 L 141.34 91.43 L 107.71 98.24 L 74.14 105.35 L 41.20 114.87"/>
<path d="M 41.20 178.42 L 41.20 178.38 L 41.20 178.34 L 41.20 178.31 L 41.20 178.27 L 41.20 178.23 L 41.20 178.19 L 41.20 178.15 L 41.20 178.12 L 41.20 178.08 L 41.20 178.04 L 41.20 178.00 L 41.20 177.96 L 41.20 177.92 L 41.20 177.89 L 41.20 177.85 L 41.20 177.81 L 41.20 177.77 L 41.20 177.73 L 41.20 177.70 L 41.20 177.66 L 41.20 177.62 L 41.20 177.58 L 41.20 177.54 L 41.20 177.50 L 41.20 177.47 L 41.20 177.43 L 41.20 177.39 L 41.20 177.35 L 41.20 177.31 L 41.20 177.27 L 41.20 177.24 L 41.20 177.20 L 41.20 177.16 L 41.20 177.12 L 41.20 177.08 L 41.20 177.05 L 41.20 177.01 L 41.20 176.97 L 41.20 176.93 L 41.20 176.89 L 41.20 176.85 L 41.20 176.82 L 41.20 176.78 L 41.20 176.74 L 41.20 176.70 L 41.20 176.66 L 41.20 176.63 L 41.20 176.59 L 41.20 176.55"/>
<path d="M 41.20 176.55 L 73.98 186.10 L 107.41 193.18 L 140.89 199.95 L 174.28 207.21 L 207.58 214.83 L 240.93 222.26 L 274.45 228.86 L 308.19 234.20 L 342.10 238.43 L 376.01 242.56 L 409.90 246.88 L 443.91 250.11 L 478.04 251.51 L 512.20 250.86 L 546.26 248.28 L 580.16 244.02 L 613.83 238.26 L 647.18 230.87 L 679.96 221.26 L 711.80 208.87 L 743.26 195.55 L 774.74 182.27 L 806.01 168.52 L 836.95 154.07 L 836.95 139.22 L 806.01 124.77 L 774.74 111.02 L 743.26 97.74 L 711.80 84.42 L 679.96 72.03 L 647.18 62.42 L 613.83 55.03 L 580.16 49.27 L 546.26 45.01 L 512.20 42.43 L 478.04 41.78 L 443.91 43.18 L 409.90 46.42 L 376.01 50.73 L 342.10 54.86 L 308.19 59.09 L 274.45 64.43 L 240.93 71.03 L 207.58 78.46 L 174.28 86.08 L 140.89 93.34 L 107.41 100.11 L 73.98 107.19 L 41.20 116.74"/>
<path d="M 41.20 116.74 L 41.20 116.70 L 41.20 116.67 L 41.20 116.63 L 41.20 116.59 L 41.20 116.55 L 41.20 116.51 L 41.20 116.47 L 41.20 116.44 L 41.20 116.40 L 41.20 116.36 L 41.20 116.32 L 41.20 116.28 L 41.20 116.25 L 41.20 116.21 L 41.20 116.17 L 41.20 116.13 L 41.20 116.09 L 41.20 116.05 L 41.20 116.02 L 41.20 115.98 L 41.20 115.94 L 41.20 115.90 L 41.20 115.86 L 41.20 115.82 L 41.20 115.79 L 41.20 115.75 L 41.20 115.71 L 41.20 115.67 L 41.20 115.63 L 41.20 115.60 L 41.20 115.56 L 41.20 115.52 L 41.20 115.48 L 41.20 115.44 L 41.20 115.40 L 41.20 115.37 L 41.20 115.33 L 41.20 115.29 L 41.20 115.25 L 41.20 115.21 L 41.20 115.18 L 41.20 115.14 L 41.20 115.10 L 41.20 115.06 L 41.20 115.02 L 41.20 114.98 L 41.20 114.95 L 41.20 114.91 L 41.20 114.87"/>
<path d="M 40.00 178.42 L 40.02 178.42 L 40.05 178.42 L 40.07 178.42 L 40.10 178.42 L 40.12 178.42 L 40.15 178.42 L 40.17 178.42 L 40.20 178.42 L 40.22 178.42 L 40.25 178.42 L 40.27 178.42 L 40.29 178.42 L 40.32 178.42 L 40.34 178.42 L 40.37 178.42 L 40.39 178.42 L 40.42 178.42 L 40.44 178.42 L 40.47 178.42 L 40.49 178.42 L 40.52 178.42 L 40.54 178.42 L 40.57 178.42 L 40.59 178.42 L 40.61 178.42 L 40.64 178.42 L 40.66 178.42 L 40.69 178.42 L 40.71 178.42 L 40.74 178.42 L 40.76 178.42 L 40.79 178.42 L 40.81 178.42 L 40.84 178.42 L 40.86 178.42 L 40.88 178.42 L 40.91 178.42 L 40.93 178.42 L 40.96 178.42 L 40.98 178.42 L 41.01 178.42 L 41.03 178.42 L 41.06 178.42 L 41.08 178.42 L 41.11 178.42 L 41.13 178.42 L 41.16 178.42 L 41.18 178.42 L 41.20 178.42"/>
<path d="M 40.00 114.87 L 40.00 116.17 L 40.00 117.46 L 40.00 118.76 L 40.00 120.06 L 40.00 121.35 L 40.00 122.65 L 40.00 123.95 L 40.00 125.25 L 40.00 126.54 L 40.00 127.84 L 40.00 129.14 L 40.00 130.43 L 40.00 131.73 L 40.00 133.03 L 40.00 134.32 L 40.00 135.62 L 40.00 136.92 L 40.00 138.22 L 40.00 139.51 L 40.00 140.81 L 40.00 142.11 L 40.00 143.40 L 40.00 144.70 L 40.00 146.00 L 40.00 147.29 L 40.00 148.59 L 40.00 149.89 L 40.00 151.18 L 40.00 152.48 L 40.00 153.78 L 40.00 155.08 L 40.00 156.37 L 40.00 157.67 L 40.00 158.97 L 40.00 160.26 L 40.00 161.56 L 40.00 162.86 L 40.00 164.15 L 40.00 165.45 L 40.00 166.75 L 40.00 168.05 L 40.00 169.34 L 40.00 170.64 L 40.00 171.94 L 40.00 173.23 L 40.00 174.53 L 40.00 175.83 L 40.00 177.12 L 40.00 178.42"/>
<path d="M 40.00 114.87 L 40.02 114.87 L 40.05 114.87 L 40.07 114.87 L 40.10 114.87 L 40.12 114.87 L 40.15 114.87 L 40.17 114.87 L 40.20 114.87 L 40.22 114.87 L 40.25 114.87 L 40.27 114.87 L 40.29 114.87 L 40.32 114.87 L 40.34 114.87 L 40.37 114.87 L 40.39 114.87 L 40.42 114.87 L 40.44 114.87 L 40.47 114.87 L 40.49 114.87 L 40.52 114.87 L 40.54 114.87 L 40.57 114.87 L 40.59 114.87 L 40.61 114.87 L 40.64 114.87 L 40.66 114.87 L 40.69 114.87 L 40.71 114.87 L 40.74 114.87 L 40.76 114.87 L 40.79 114.87 L 40.81 114.87 L 40.84 114.87 L 40.86 114.87 L 40.88 114.87 L 40.91 114.87 L 40.93 114.87 L 40.96 114.87 L 40.98 114.87 L 41.01 114.87 L 41.03 114.87 L 41.06 114.87 L 41.08 114.87 L 41.11 114.87 L 41.13 114.87 L 41.16 114.87 L 41.18 114.87 L 41.20 114.87"/>
<path d="M 41.20 114.87 L 41.20 116.17 L 41.20 117.46 L 41.20 118.76 L 41.20 120.06 L 41.20 121.35 L 41.20 122.65 L 41.20 123.95 L 41.20 125.25 L 41.20 126.54 L 41.20 127.84 L 41.20 129.14 L 41.20 130.43 L 41.20 131.73 L 41.20 133.03 L 41.20 134.32 L 41.20 135.62 L 41.20 136.92 L 41.20 138.22 L 41.20 139.51 L 41.20 140.81 L 41.20 142.11 L 41.20 143.40 L 41.20 144.70 L 41.20 146.00 L 41.20 147.29 L 41.20 148.59 L 41.20 149.89 L 41.20 151.18 L 41.20 152.48 L 41.20 153.78 L 41.20 155.08 L 41.20 156.37 L 41.20 157.67 L 41.20 158.97 L 41.20 160.26 L 41.20 161.56 L 41.20 162.86 L 41.20 164.15 L 41.20 165.45 L 41.20 166.75 L 41.20 168.05 L 41.20 169.34 L 41.20 170.64 L 41.20 171.94 L 41.20 173.23 L 41.20 174.53 L 41.20 175.83 L 41.20 177.12 L 41.20 178.42"/>
<path d="M 71.31 144.39 L 71.60 144.41 L 71.88 144.46 L 72.16 144.55 L 72.42 144.68 L 72.66 144.84 L 72.88 145.02 L 73.08 145.24 L 73.24 145.47 L 73.38 145.73 L 73.48 146.00 L 73.54 146.28 L 73.57 146.57 L 73.56 146.86 L 73.51 147.15 L 73.43 147.43 L 73.31 147.69 L 73.16 147.94 L 72.98 148.16 L 72.77 148.36 L 72.54 148.54 L 72.29 148.68 L 72.02 148.79 L 71.74 148.86 L 71.46 148.90 L 71.17 148.90 L 70.88 148.86 L 70.60 148.79 L 70.33 148.68 L 70.08 148.54 L 69.85 148.36 L 69.64 148.16 L 69.46 147.94 L 69.31 147.69 L 69.19 147.43 L 69.11 147.15 L 69.06 146.86 L 69.05 146.57 L 69.08 146.28 L 69.15 146.00 L 69.25 145.73 L 69.38 145.47 L 69.55 145.24 L 69.74 145.02 L 69.96 144.84 L 70.20 144.68 L 70.46 144.55 L 70.74 144.46 L 71.02 144.41 L 71.31 144.39"/>
</g>
<g stroke="black" stroke-width="1" fill="black">
<line x1="40.0" y1="308.3" x2="190.5" y2="308.3"/>
<line x1="40.0" y1="303.3" x2="40.0" y2="313.3"/>
<line x1="190.5" y1="303.3" x2="190.5" y2="313.3"/>
<text x="115.3" y="300.3" text-anchor="middle" font-family="sans-serif" font-size="10">1 m</text>
</g>
</svg>