<?xml version="1.0" encoding="UTF-8"?>
<svg xmlns="http://www.w3.org/2000/svg" version="1.1" width="880.0" height="398.4" viewBox="0 0 880.0 398.4">
<g fill="none" stroke="#c8c8c8" stroke-width="1.0">
<path d="M 396.25 178.63 L 396.25 178.85 L 396.25 179.08 L 396.25 179.31 L 396.25 179.54 L 396.25 179.77 L 396.25 179.99 L 396.25 180.22 L 396.25 180.45 L 396.25 180.68 L 396.25 180.91 L 396.25 181.13 L 396.25 181.36 L 396.25 181.59 L 396.25 181.82 L 396.25 182.05 L 396.25 182.27 L 396.25 182.50 L 396.25 182.73 L 396.25 182.96 L 396.25 183.19 L 396.25 183.41 L 396.25 183.64 L 396.25 183.87 L 396.25 184.10 L 396.25 184.33 L 396.25 184.56 L 396.25 184.78 L 396.25 185.01 L 396.25 185.24 L 396.25 185.47 L 396.25 185.70 L 396.25 185.92 L 396.25 186.15 L 396.25 186.38 L 396.25 186.61 L 396.25 186.84 L 396.25 187.06 L 396.25 187.29 L 396.25 187.52 L 396.25 187.75 L 396.25 187.98 L 396.25 188.20 L 396.25 188.43 L 396.25 188.66 L 396.25 188.89 L 396.25 189.12 L 396.25 189.35 L 396.25 189.57 L 396.25 189.80"/>
<path d="M 489.38 178.63 L 487.48 178.63 L 485.58 178.63 L 483.68 178.63 L 481.78 178.63 L 479.88 178.63 L 477.98 178.63 L 476.08 178.63 L 474.18 178.63 L 472.28 178.63 L 470.38 178.63 L 468.48 178.63 L 466.58 178.63 L 464.67 178.63 L 462.77 178.63 L 460.87 178.63 L 458.97 178.63 L 457.07 178.63 L 455.17 178.63 L 453.27 178.63 L 451.37 178.63 L 449.47 178.63 L 447.57 178.63 L 445.67 178.63 L 443.77 178.63 L 441.87 178.63 L 439.96 178.63 L 438.06 178.63 L 436.16 178.63 L 434.26 178.63 L 432.36 178.63 L 430.46 178.63 L 428.56 178.63 L 426.66 178.63 L 424.76 178.63 L 422.86 178.63 L 420.96 178.63 L 419.06 178.63 L 417.16 178.63 L 415.25 178.63 L 413.35 178.63 L 411.45 178.63 L 409.55 178.63 L 407.65 178.63 L 405.75 178.63 L 403.85 178.63 L 401.95 178.63 L 400.05 178.63 L 398.15 178.63 L 396.25 178.63"/>
<path d="M 489.38 189.80 L 489.38 189.57 L 489.38 189.35 L 489.38 189.12 L 489.38 188.89 L 489.38 188.66 L 489.38 188.43 L 489.38 188.20 L 489.38 187.98 L 489.38 187.75 L 489.38 187.52 L 489.38 187.29 L 489.38 187.06 L 489.38 186.84 L 489.38 186.61 L 489.38 186.38 L 489.38 186.15 L 489.38 185.92 L 489.38 185.70 L 489.38 185.47 L 489.38 185.24 L 489.38 185.01 L 489.38 184.78 L 489.38 184.56 L 489.38 184.33 L 489.38 184.10 L 489.38 183.87 L 489.38 183.64 L 489.38 183.41 L 489.38 183.19 L 489.38 182.96 L 489.38 182.73 L 489.38 182.50 L 489.38 182.27 L 489.38 182.05 L 489.38 181.82 L 489.38 181.59 L 489.38 181.36 L 489.38 181.13 L 489.38 180.91 L 489.38 180.68 L 489.38 180.45 L 489.38 180.22 L 489.38 179.99 L 489.38 179.77 L 489.38 179.54 L 489.38 179.31 L 489.38 179.08 L 489.38 178.85 L 489.38 178.63"/>
<path d="M 396.25 189.80 L 398.15 189.80 L 400.05 189.80 L 401.95 189.80 L 403.85 189.80 L 405.75 189.80 L 407.65 189.80 L 409.55 189.80 L 411.45 189.80 L 413.35 189.80 L 415.25 189.80 L 417.16 189.80 L 419.06 189.80 L 420.96 189.80 L 422.86 189.80 L 424.76 189.80 L 426.66 189.80 L 428.56 189.80 L 430.46 189.80 L 432.36 189.80 L 434.26 189.80 L 436.16 189.80 L 438.06 189.80 L 439.96 189.80 L 441.87 189.80 L 443.77 189.80 L 445.67 189.80 L 447.57 189.80 L 449.47 189.80 L 451.37 189.80 L 453.27 189.80 L 455.17 189.80 L 457.07 189.80 L 458.97 189.80 L 460.87 189.80 L 462.77 189.80 L 464.67 189.80 L 466.58 189.80 L 468.48 189.80 L 470.38 189.80 L 472.28 189.80 L 474.18 189.80 L 476.08 189.80 L 477.98 189.80 L 479.88 189.80 L 481.78 189.80 L 483.68 189.80 L 485.58 189.80 L 487.48 189.80 L 489.38 189.80"/>
<path d="M 86.89 185.52 L 86.89 185.47 L 86.89 185.42 L 86.89 185.36 L 86.89 185.31 L 86.89 185.26 L 86.89 185.20 L 86.89 185.15 L 86.89 185.10 L 86.89 185.04 L 86.89 184.99 L 86.89 184.94 L 86.89 184.88 L 86.89 184.83 L 86.89 184.77 L 86.89 184.72 L 86.89 184.67 L 86.89 184.61 L 86.89 184.56 L 86.89 184.51 L 86.89 184.45 L 86.89 184.40 L 86.89 184.35 L 86.89 184.29 L 86.89 184.24 L 86.89 184.19 L 86.89 184.13 L 86.89 184.08 L 86.89 184.03 L 86.89 183.97 L 86.89 183.92 L 86.89 183.87 L 86.89 183.81 L 86.89 183.76 L 86.89 183.71 L 86.89 183.65 L 86.89 183.60 L 86.89 183.55 L 86.89 183.49 L 86.89 183.44 L 86.89 183.38 L 86.89 183.33 L 86.89 183.28 L 86.89 183.22 L 86.89 183.17 L 86.89 183.12 L 86.89 183.06 L 86.89 183.01 L 86.89 182.96 L 86.89 182.90"/>
<path d="M 86.89 185.52 L 86.09 185.52 L 85.29 185.52 L 84.48 185.52 L 83.68 185.52 L 82.88 185.52 L 82.08 185.52 L 81.28 185.52 L 80.47 185.52 L 79.67 185.52 L 78.87 185.52 L 78.07 185.52 L 77.27 185.52 L 76.46 185.52 L 75.66 185.52 L 74.86 185.52 L 74.06 185.52 L 73.26 185.52 L 72.46 185.52 L 71.65 185.52 L 70.85 185.52 L 70.05 185.52 L 69.25 185.52 L 68.45 185.52 L 67.64 185.52 L 66.84 185.52 L 66.04 185.52 L 65.24 185.52 L 64.44 185.52 L 63.63 185.52 L 62.83 185.52 L 62.03 185.52 L 61.23 185.52 L 60.43 185.52 L 59.62 185.52 L 58.82 185.52 L 58.02 185.52 L 57.22 185.52 L 56.42 185.52 L 55.62 185.52 L 54.81 185.52 L 54.01 185.52 L 53.21 185.52 L 52.41 185.52 L 51.61 185.52 L 50.80 185.52 L 50.00 185.52 L 49.20 185.52 L 48.40 185.52 L 47.60 185.52"/>
<path d="M 47.60 185.52 L 47.60 185.47 L 47.60 185.42 L 47.60 185.36 L 47.60 185.31 L 47.60 185.26 L 47.60 185.20 L 47.60 185.15 L 47.60 185.10 L 47.60 185.04 L 47.60 184.99 L 47.60 184.94 L 47.60 184.88 L 47.60 184.83 L 47.60 184.77 L 47.60 184.72 L 47.60 184.67 L 47.60 184.61 L 47.60 184.56 L 47.60 184.51 L 47.60 184.45 L 47.60 184.40 L 47.60 184.35 L 47.60 184.29 L 47.60 184.24 L 47.60 184.19 L 47.60 184.13 L 47.60 184.08 L 47.60 184.03 L 47.60 183.97 L 47.60 183.92 L 47.60 183.87 L 47.60 183.81 L 47.60 183.76 L 47.60 183.71 L 47.60 183.65 L 47.60 183.60 L 47.60 183.55 L 47.60 183.49 L 47.60 183.44 L 47.60 183.38 L 47.60 183.33 L 47.60 183.28 L 47.60 183.22 L 47.60 183.17 L 47.60 183.12 L 47.60 183.06 L 47.60 183.01 L 47.60 182.96 L 47.60 182.90"/>
<path d="M 86.89 182.90 L 86.09 182.90 L 85.29 182.90 L 84.48 182.90 L 83.68 182.90 L 82.88 182.90 L 82.08 182.90 L 81.28 182.90 L 80.47 182.90 L 79.67 182.90 L 78.87 182.90 L 78.07 182.90 L 77.27 182.90 L 76.46 182.90 L 75.66 182.90 L 74.86 182.90 L 74.06 182.90 L 73.26 182.90 L 72.46 182.90 L 71.65 182.90 L 70.85 182.90 L 70.05 182.90 L 69.25 182.90 L 68.45 182.90 L 67.64 182.90 L 66.84 182.90 L 66.04 182.90 L 65.24 182.90 L 64.44 182.90 L 63.63 182.90 L 62.83 182.90 L 62.03 182.90 L 61.23 182.90 L 60.43 182.90 L 59.62 182.90 L 58.82 182.90 L 58.02 182.90 L 57.22 182.90 L 56.42 182.90 L 55.62 182.90 L 54.81 182.90 L 54.01 182.90 L 53.21 182.90 L 52.41 182.90 L 51.61 182.90 L 50.80 182.90 L 50.00 182.90 L 49.20 182.90 L 48.40 182.90 L 47.60 182.90"/>
<path d="M 67.24 182.25 L 67.49 182.26 L 67.74 182.31 L 67.98 182.39 L 68.21 182.50 L 68.42 182.64 L 68.61 182.80 L 68.78 182.99 L 68.92 183.19 L 69.04 183.42 L 69.13 183.65 L 69.18 183.90 L 69.21 184.15 L 69.20 184.40 L 69.16 184.65 L 69.09 184.89 L 68.98 185.12 L 68.85 185.34 L 68.70 185.53 L 68.52 185.71 L 68.31 185.86 L 68.10 185.98 L 67.86 186.08 L 67.62 186.14 L 67.37 186.17 L 67.12 186.17 L 66.87 186.14 L 66.62 186.08 L 66.39 185.98 L 66.17 185.86 L 65.97 185.71 L 65.79 185.53 L 65.63 185.34 L 65.50 185.12 L 65.40 184.89 L 65.33 184.65 L 65.29 184.40 L 65.28 184.15 L 65.30 183.90 L 65.36 183.65 L 65.45 183.42 L 65.56 183.19 L 65.71 182.99 L 65.88 182.80 L 66.07 182.64 L 66.28 182.50 L 66.51 182.39 L 66.74 182.31 L 66.99 182.26 L 67.24 182.25"/>
</g>
<g fill="none" stroke="#a4a4a4" stroke-width="1.0">
<path d="M 392.19 178.28 L 392.19 178.52 L 392.19 178.76 L 392.19 179.00 L 392.19 179.25 L 392.19 179.49 L 392.19 179.73 L 392.19 179.97 L 392.19 180.21 L 392.19 180.46 L 392.19 180.70 L 392.19 180.94 L 392.19 181.18 L 392.19 181.43 L 392.19 181.67 L 392.19 181.91 L 392.19 182.15 L 392.19 182.40 L 392.19 182.64 L 392.19 182.88 L 392.19 183.12 L 392.19 183.37 L 392.19 183.61 L 392.19 183.85 L 392.19 184.09 L 392.19 184.33 L 392.19 184.58 L 392.19 184.82 L 392.19 185.06 L 392.19 185.30 L 392.19 185.55 L 392.19 185.79 L 392.19 186.03 L 392.19 186.27 L 392.19 186.52 L 392.19 186.76 L 392.19 187.00 L 392.19 187.24 L 392.19 187.49 L 392.19 187.73 L 392.19 187.97 L 392.19 188.21 L 392.19 188.45 L 392.19 188.70 L 392.19 188.94 L 392.19 189.18 L 392.19 189.42 L 392.19 189.67 L 392.19 189.91 L 392.19 190.15"/>
<path d="M 491.15 178.28 L 489.13 178.28 L 487.11 178.28 L 485.09 178.28 L 483.07 178.28 L 481.05 178.28 L 479.03 178.28 L 477.01 178.28 L 474.99 178.28 L 472.97 178.28 L 470.95 178.28 L 468.93 178.28 L 466.91 178.28 L 464.89 178.28 L 462.88 178.28 L 460.86 178.28 L 458.84 178.28 L 456.82 178.28 L 454.80 178.28 L 452.78 178.28 L 450.76 178.28 L 448.74 178.28 L 446.72 178.28 L 444.70 178.28 L 442.68 178.28 L 440.66 178.28 L 438.64 178.28 L 436.62 178.28 L 434.60 178.28 L 432.58 178.28 L 430.56 178.28 L 428.54 178.28 L 426.52 178.28 L 424.50 178.28 L 422.48 178.28 L 420.46 178.28 L 418.44 178.28 L 416.43 178.28 L 414.41 178.28 L 412.39 178.28 L 410.37 178.28 L 408.35 178.28 L 406.33 178.28 L 404.31 178.28 L 402.29 178.28 L 400.27 178.28 L 398.25 178.28 L 396.23 178.28 L 394.21 178.28 L 392.19 178.28"/>
<path d="M 491.15 190.15 L 491.15 189.91 L 491.15 189.67 L 491.15 189.42 L 491.15 189.18 L 491.15 188.94 L 491.15 188.70 L 491.15 188.45 L 491.15 188.21 L 491.15 187.97 L 491.15 187.73 L 491.15 187.49 L 491.15 187.24 L 491.15 187.00 L 491.15 186.76 L 491.15 186.52 L 491.15 186.27 L 491.15 186.03 L 491.15 185.79 L 491.15 185.55 L 491.15 185.30 L 491.15 185.06 L 491.15 184.82 L 491.15 184.58 L 491.15 184.33 L 491.15 184.09 L 491.15 183.85 L 491.15 183.61 L 491.15 183.37 L 491.15 183.12 L 491.15 182.88 L 491.15 182.64 L 491.15 182.40 L 491.15 182.15 L 491.15 181.91 L 491.15 181.67 L 491.15 181.43 L 491.15 181.18 L 491.15 180.94 L 491.15 180.70 L 491.15 180.46 L 491.15 180.21 L 491.15 179.97 L 491.15 179.73 L 491.15 179.49 L 491.15 179.25 L 491.15 179.00 L 491.15 178.76 L 491.15 178.52 L 491.15 178.28"/>
<path d="M 392.19 190.15 L 394.21 190.15 L 396.23 190.15 L 398.25 190.15 L 400.27 190.15 L 402.29 190.15 L 404.31 190.15 L 406.33 190.15 L 408.35 190.15 L 410.37 190.15 L 412.39 190.15 L 414.41 190.15 L 416.43 190.15 L 418.44 190.15 L 420.46 190.15 L 422.48 190.15 L 424.50 190.15 L 426.52 190.15 L 428.54 190.15 L 430.56 190.15 L 432.58 190.15 L 434.60 190.15 L 436.62 190.15 L 438.64 190.15 L 440.66 190.15 L 442.68 190.15 L 444.70 190.15 L 446.72 190.15 L 448.74 190.15 L 450.76 190.15 L 452.78 190.15 L 454.80 190.15 L 456.82 190.15 L 458.84 190.15 L 460.86 190.15 L 462.88 190.15 L 464.89 190.15 L 466.91 190.15 L 468.93 190.15 L 470.95 190.15 L 472.97 190.15 L 474.99 190.15 L 477.01 190.15 L 479.03 190.15 L 481.05 190.15 L 483.07 190.15 L 485.09 190.15 L 487.11 190.15 L 489.13 190.15 L 491.15 190.15"/>
<path d="M 86.89 185.52 L 86.89 185.47 L 86.89 185.42 L 86.89 185.36 L 86.89 185.31 L 86.89 185.26 L 86.89 185.20 L 86.89 185.15 L 86.89 185.10 L 86.89 185.04 L 86.89 184.99 L 86.89 184.94 L 86.89 184.88 L 86.89 184.83 L 86.89 184.77 L 86.89 184.72 L 86.89 184.67 L 86.89 184.61 L 86.89 184.56 L 86.89 184.51 L 86.89 184.45 L 86.89 184.40 L 86.89 184.35 L 86.89 184.29 L 86.89 184.24 L 86.89 184.19 L 86.89 184.13 L 86.89 184.08 L 86.89 184.03 L 86.89 183.97 L 86.89 183.92 L 86.89 183.87 L 86.89 183.81 L 86.89 183.76 L 86.89 183.71 L 86.89 183.65 L 86.89 183.60 L 86.89 183.55 L 86.89 183.49 L 86.89 183.44 L 86.89 183.38 L 86.89 183.33 L 86.89 183.28 L 86.89 183.22 L 86.89 183.17 L 86.89 183.12 L 86.89 183.06 L 86.89 183.01 L 86.89 182.96 L 86.89 182.90"/>
<path d="M 86.89 185.52 L 86.09 185.52 L 85.29 185.52 L 84.48 185.52 L 83.68 185.52 L 82.88 185.52 L 82.08 185.52 L 81.28 185.52 L 80.47 185.52 L 79.67 185.52 L 78.87 185.52 L 78.07 185.52 L 77.27 185.52 L 76.46 185.52 L 75.66 185.52 L 74.86 185.52 L 74.06 185.52 L 73.26 185.52 L 72.46 185.52 L 71.65 185.52 L 70.85 185.52 L 70.05 185.52 L 69.25 185.52 L 68.45 185.52 L 67.64 185.52 L 66.84 185.52 L 66.04 185.52 L 65.24 185.52 L 64.44 185.52 L 63.63 185.52 L 62.83 185.52 L 62.03 185.52 L 61.23 185.52 L 60.43 185.52 L 59.62 185.52 L 58.82 185.52 L 58.02 185.52 L 57.22 185.52 L 56.42 185.52 L 55.62 185.52 L 54.81 185.52 L 54.01 185.52 L 53.21 185.52 L 52.41 185.52 L 51.61 185.52 L 50.80 185.52 L 50.00 185.52 L 49.20 185.52 L 48.40 185.52 L 47.60 185.52"/>
<path d="M 47.60 185.52 L 47.60 185.47 L 47.60 185.42 L 47.60 185.36 L 47.60 185.31 L 47.60 185.26 L 47.60 185.20 L 47.60 185.15 L 47.60 185.10 L 47.60 185.04 L 47.60 184.99 L 47.60 184.94 L 47.60 184.88 L 47.60 184.83 L 47.60 184.77 L 47.60 184.72 L 47.60 184.67 L 47.60 184.61 L 47.60 184.56 L 47.60 184.51 L 47.60 184.45 L 47.60 184.40 L 47.60 184.35 L 47.60 184.29 L 47.60 184.24 L 47.60 184.19 L 47.60 184.13 L 47.60 184.08 L 47.60 184.03 L 47.60 183.97 L 47.60 183.92 L 47.60 183.87 L 47.60 183.81 L 47.60 183.76 L 47.60 183.71 L 47.60 183.65 L 47.60 183.60 L 47.60 183.55 L 47.60 183.49 L 47.60 183.44 L 47.60 183.38 L 47.60 183.33 L 47.60 183.28 L 47.60 183.22 L 47.60 183.17 L 47.60 183.12 L 47.60 183.06 L 47.60 183.01 L 47.60 182.96 L 47.60 182.90"/>
<path d="M 86.89 182.90 L 86.09 182.90 L 85.29 182.90 L 84.48 182.90 L 83.68 182.90 L 82.88 182.90 L 82.08 182.90 L 81.28 182.90 L 80.47 182.90 L 79.67 182.90 L 78.87 182.90 L 78.07 182.90 L 77.27 182.90 L 76.46 182.90 L 75.66 182.90 L 74.86 182.90 L 74.06 182.90 L 73.26 182.90 L 72.46 182.90 L 71.65 182.90 L 70.85 182.90 L 70.05 182.90 L 69.25 182.90 L 68.45 182.90 L 67.64 182.90 L 66.84 182.90 L 66.04 182.90 L 65.24 182.90 L 64.44 182.90 L 63.63 182.90 L 62.83 182.90 L 62.03 182.90 L 61.23 182.90 L 60.43 182.90 L 59.62 182.90 L 58.82 182.90 L 58.02 182.90 L 57.22 182.90 L 56.42 182.90 L 55.62 182.90 L 54.81 182.90 L 54.01 182.90 L 53.21 182.90 L 52.41 182.90 L 51.61 182.90 L 50.80 182.90 L 50.00 182.90 L 49.20 182.90 L 48.40 182.90 L 47.60 182.90"/>
<path d="M 67.24 182.25 L 67.49 182.26 L 67.74 182.31 L 67.98 182.39 L 68.21 182.50 L 68.42 182.64 L 68.61 182.80 L 68.78 182.99 L 68.92 183.19 L 69.04 183.42 L 69.13 183.65 L 69.18 183.90 L 69.21 184.15 L 69.20 184.40 L 69.16 184.65 L 69.09 184.89 L 68.98 185.12 L 68.85 185.34 L 68.70 185.53 L 68.52 185.71 L 68.31 185.86 L 68.10 185.98 L 67.86 186.08 L 67.62 186.14 L 67.37 186.17 L 67.12 186.17 L 66.87 186.14 L 66.62 186.08 L 66.39 185.98 L 66.17 185.86 L 65.97 185.71 L 65.79 185.53 L 65.63 185.34 L 65.50 185.12 L 65.40 184.89 L 65.33 184.65 L 65.29 184.40 L 65.28 184.15 L 65.30 183.90 L 65.36 183.65 L 65.45 183.42 L 65.56 183.19 L 65.71 182.99 L 65.88 182.80 L 66.07 182.64 L 66.28 182.50 L 66.51 182.39 L 66.74 182.31 L 66.99 182.26 L 67.24 182.25"/>
</g>
<g fill="none" stroke="#808080" stroke-width="1.0">
<path d="M 426.26 186.66 L 428.28 186.62 L 430.29 186.56 L 432.30 186.48 L 434.31 186.38 L 436.32 186.26 L 438.32 186.10 L 440.33 185.92 L 442.33 185.69 L 444.31 185.38 L 446.28 184.94 L 447.08 183.81 L 445.16 183.21 L 443.18 182.86 L 441.19 182.60 L 439.18 182.40 L 437.18 182.23 L 435.17 182.10 L 433.16 181.99 L 431.15 181.90 L 429.14 181.83 L 427.13 181.78 L 425.12 181.75 L 423.10 181.74 L 421.09 181.75 L 419.08 181.77 L 417.07 181.82 L 415.06 181.88 L 413.04 181.96 L 411.03 182.07 L 409.03 182.20 L 407.02 182.37 L 405.02 182.58 L 403.03 182.84 L 401.05 183.21 L 399.16 183.87 L 400.21 185.00 L 402.17 185.44 L 404.16 185.74 L 406.16 185.97 L 408.17 186.16 L 410.17 186.30 L 412.18 186.42 L 414.19 186.52 L 416.20 186.59 L 418.21 186.64 L 420.23 186.67 L 422.24 186.68 L 424.25 186.68 L 426.26 186.66"/>
<path d="M 67.24 182.25 L 67.49 182.26 L 67.74 182.31 L 67.98 182.39 L 68.21 182.50 L 68.42 182.64 L 68.61 182.80 L 68.78 182.99 L 68.92 183.19 L 69.04 183.42 L 69.13 183.65 L 69.18 183.90 L 69.21 184.15 L 69.20 184.40 L 69.16 184.65 L 69.09 184.89 L 68.98 185.12 L 68.85 185.34 L 68.70 185.53 L 68.52 185.71 L 68.31 185.86 L 68.10 185.98 L 67.86 186.08 L 67.62 186.14 L 67.37 186.17 L 67.12 186.17 L 66.87 186.14 L 66.62 186.08 L 66.39 185.98 L 66.17 185.86 L 65.97 185.71 L 65.79 185.53 L 65.63 185.34 L 65.50 185.12 L 65.40 184.89 L 65.33 184.65 L 65.29 184.40 L 65.28 184.15 L 65.30 183.90 L 65.36 183.65 L 65.45 183.42 L 65.56 183.19 L 65.71 182.99 L 65.88 182.80 L 66.07 182.64 L 66.28 182.50 L 66.51 182.39 L 66.74 182.31 L 66.99 182.26 L 67.24 182.25"/>
</g>
<g fill="none" stroke="#5c5c5c" stroke-width="1.0">
<path d="M 276.61 220.28 L 300.06 222.91 L 323.53 225.38 L 346.94 228.28 L 370.39 230.97 L 393.90 232.90 L 417.48 233.80 L 441.07 233.60 L 464.63 232.38 L 488.14 230.30 L 511.56 227.49 L 534.90 224.01 L 558.11 219.74 L 581.05 214.25 L 603.48 206.93 L 625.63 198.80 L 648.16 191.79 L 659.58 180.70 L 637.19 173.30 L 614.83 165.77 L 592.66 157.70 L 569.95 151.32 L 546.86 146.50 L 523.58 142.64 L 500.20 139.49 L 476.73 137.02 L 453.20 135.33 L 429.61 134.59 L 406.02 134.92 L 382.47 136.35 L 358.99 138.70 L 335.57 141.57 L 312.13 144.29 L 288.66 146.73 L 265.26 149.70 L 241.99 153.64 L 218.92 158.55 L 195.93 163.88 L 172.86 168.82 L 149.63 173.00 L 126.35 176.81 L 103.21 181.39 L 114.39 189.54 L 137.66 193.46 L 160.93 197.37 L 184.08 201.92 L 207.09 207.13 L 230.10 212.36 L 253.27 216.84 L 276.61 220.28"/>
<path d="M 276.76 218.43 L 299.63 221.02 L 322.53 223.44 L 345.37 226.27 L 368.24 228.94 L 391.17 230.93 L 414.17 231.94 L 437.19 231.91 L 460.19 230.88 L 483.13 228.99 L 506.01 226.40 L 528.80 223.17 L 551.48 219.22 L 573.95 214.23 L 596.03 207.73 L 617.73 200.04 L 639.67 193.09 L 659.16 183.40 L 638.02 174.83 L 616.09 167.82 L 594.39 160.15 L 572.27 153.77 L 549.78 148.88 L 527.09 144.99 L 504.29 141.81 L 481.41 139.26 L 458.46 137.44 L 435.46 136.48 L 412.44 136.52 L 389.45 137.62 L 366.52 139.66 L 343.65 142.37 L 320.81 145.19 L 297.91 147.59 L 275.04 150.22 L 252.28 153.68 L 229.69 158.10 L 207.22 163.09 L 184.72 167.96 L 162.09 172.21 L 139.39 176.05 L 116.76 180.26 L 118.45 188.55 L 141.10 192.66 L 163.80 196.51 L 186.41 200.81 L 208.91 205.71 L 231.38 210.69 L 253.99 215.05 L 276.76 218.43"/>
<path d="M 67.24 182.25 L 67.49 182.26 L 67.74 182.31 L 67.98 182.39 L 68.21 182.50 L 68.42 182.64 L 68.61 182.80 L 68.78 182.99 L 68.92 183.19 L 69.04 183.42 L 69.13 183.65 L 69.18 183.90 L 69.21 184.15 L 69.20 184.40 L 69.16 184.65 L 69.09 184.89 L 68.98 185.12 L 68.85 185.34 L 68.70 185.53 L 68.52 185.71 L 68.31 185.86 L 68.10 185.98 L 67.86 186.08 L 67.62 186.14 L 67.37 186.17 L 67.12 186.17 L 66.87 186.14 L 66.62 186.08 L 66.39 185.98 L 66.17 185.86 L 65.97 185.71 L 65.79 185.53 L 65.63 185.34 L 65.50 185.12 L 65.40 184.89 L 65.33 184.65 L 65.29 184.40 L 65.28 184.15 L 65.30 183.90 L 65.36 183.65 L 65.45 183.42 L 65.56 183.19 L 65.71 182.99 L 65.88 182.80 L 66.07 182.64 L 66.28 182.50 L 66.51 182.39 L 66.74 182.31 L 66.99 182.26 L 67.24 182.25"/>
</g>
<g fill="none" stroke="#383838" stroke-width="1.0">
<path d="M 41.05 211.86 L 69.71 220.15 L 98.91 226.33 L 128.17 232.25 L 157.34 238.59 L 186.44 245.23 L 215.59 251.70 L 244.88 257.43 L 274.37 262.06 L 304.00 265.73 L 333.63 269.37 L 363.24 273.11 L 392.96 275.87 L 422.79 277.00 L 452.63 276.33 L 482.38 273.98 L 511.99 270.16 L 541.39 265.03 L 570.51 258.44 L 599.08 249.85 L 626.85 238.89 L 654.33 227.23 L 681.82 215.59 L 709.10 203.48 L 736.06 190.70 L 736.06 177.73 L 709.10 164.95 L 681.82 152.84 L 654.33 141.19 L 626.85 129.54 L 599.08 118.58 L 570.51 109.98 L 541.39 103.40 L 511.99 98.26 L 482.38 94.45 L 452.63 92.09 L 422.79 91.42 L 392.96 92.56 L 363.24 95.31 L 333.63 99.06 L 304.00 102.69 L 274.37 106.37 L 244.88 111.00 L 215.59 116.73 L 186.44 123.19 L 157.34 129.84 L 128.17 136.18 L 98.91 142.09 L 69.71 148.28 L 41.05 156.57"/>
<path d="M 41.05 211.86 L 41.05 211.83 L 41.05 211.79 L 41.05 211.76 L 41.05 211.73 L 41.05 211.69 L 41.05 211.66 L 41.05 211.63 L 41.05 211.59 L 41.05 211.56 L 41.05 211.53 L 41.05 211.49 L 41.05 211.46 L 41.05 211.43 L 41.05 211.40 L 41.05 211.36 L 41.05 211.33 L 41.05 211.30 L 41.05 211.26 L 41.05 211.23 L 41.05 211.20 L 41.05 211.16 L 41.05 211.13 L 41.05 211.10 L 41.05 211.06 L 41.05 211.03 L 41.05 211.00 L 41.05 210.96 L 41.05 210.93 L 41.05 210.90 L 41.05 210.86 L 41.05 210.83 L 41.05 210.80 L 41.05 210.76 L 41.05 210.73 L 41.05 210.70 L 41.05 210.66 L 41.05 210.63 L 41.05 210.60 L 41.05 210.56 L 41.05 210.53 L 41.05 210.50 L 41.05 210.46 L 41.05 210.43 L 41.05 210.40 L 41.05 210.36 L 41.05 210.33 L 41.05 210.30 L 41.05 210.26 L 41.05 210.23"/>
<path d="M 41.05 210.23 L 69.57 218.54 L 98.65 224.70 L 127.78 230.59 L 156.83 236.91 L 185.81 243.54 L 214.82 250.00 L 243.99 255.74 L 273.35 260.39 L 302.85 264.07 L 332.35 267.67 L 361.84 271.42 L 391.43 274.23 L 421.13 275.45 L 450.85 274.89 L 480.48 272.64 L 509.98 268.93 L 539.28 263.92 L 568.29 257.49 L 596.81 249.13 L 624.51 238.36 L 651.88 226.76 L 679.27 215.21 L 706.48 203.25 L 733.40 190.68 L 733.40 177.75 L 706.48 165.18 L 679.27 153.22 L 651.88 141.66 L 624.51 130.07 L 596.81 119.30 L 568.29 110.93 L 539.28 104.51 L 509.98 99.49 L 480.48 95.79 L 450.85 93.54 L 421.13 92.97 L 391.43 94.19 L 361.84 97.01 L 332.35 100.76 L 302.85 104.35 L 273.35 108.03 L 243.99 112.68 L 214.82 118.42 L 185.81 124.89 L 156.83 131.52 L 127.78 137.83 L 98.65 143.72 L 69.57 149.89 L 41.05 158.19"/>
<path d="M 41.05 158.19 L 41.05 158.16 L 41.05 158.13 L 41.05 158.10 L 41.05 158.06 L 41.05 158.03 L 41.05 158.00 L 41.05 157.96 L 41.05 157.93 L 41.05 157.90 L 41.05 157.86 L 41.05 157.83 L 41.05 157.80 L 41.05 157.76 L 41.05 157.73 L 41.05 157.70 L 41.05 157.66 L 41.05 157.63 L 41.05 157.60 L 41.05 157.56 L 41.05 157.53 L 41.05 157.50 L 41.05 157.46 L 41.05 157.43 L 41.05 157.40 L 41.05 157.36 L 41.05 157.33 L 41.05 157.30 L 41.05 157.26 L 41.05 157.23 L 41.05 157.20 L 41.05 157.16 L 41.05 157.13 L 41.05 157.10 L 41.05 157.06 L 41.05 157.03 L 41.05 157.00 L 41.05 156.97 L 41.05 156.93 L 41.05 156.90 L 41.05 156.87 L 41.05 156.83 L 41.05 156.80 L 41.05 156.77 L 41.05 156.73 L 41.05 156.70 L 41.05 156.67 L 41.05 156.63 L 41.05 156.60 L 41.05 156.57"/>
<path d="M 40.00 211.86 L 40.02 211.86 L 40.04 211.86 L 40.06 211.86 L 40.09 211.86 L 40.11 211.86 L 40.13 211.86 L 40.15 211.86 L 40.17 211.86 L 40.19 211.86 L 40.21 211.86 L 40.24 211.86 L 40.26 211.86 L 40.28 211.86 L 40.30 211.86 L 40.32 211.86 L 40.34 211.86 L 40.36 211.86 L 40.38 211.86 L 40.41 211.86 L 40.43 211.86 L 40.45 211.86 L 40.47 211.86 L 40.49 211.86 L 40.51 211.86 L 40.53 211.86 L 40.56 211.86 L 40.58 211.86 L 40.60 211.86 L 40.62 211.86 L 40.64 211.86 L 40.66 211.86 L 40.68 211.86 L 40.71 211.86 L 40.73 211.86 L 40.75 211.86 L 40.77 211.86 L 40.79 211.86 L 40.81 211.86 L 40.83 211.86 L 40.86 211.86 L 40.88 211.86 L 40.90 211.86 L 40.92 211.86 L 40.94 211.86 L 40.96 211.86 L 40.98 211.86 L 41.01 211.86 L 41.03 211.86 L 41.05 211.86"/>
<path d="M 40.00 156.57 L 40.00 157.69 L 40.00 158.82 L 40.00 159.95 L 40.00 161.08 L 40.00 162.21 L 40.00 163.34 L 40.00 164.47 L 40.00 165.59 L 40.00 166.72 L 40.00 167.85 L 40.00 168.98 L 40.00 170.11 L 40.00 171.24 L 40.00 172.36 L 40.00 173.49 L 40.00 174.62 L 40.00 175.75 L 40.00 176.88 L 40.00 178.01 L 40.00 179.14 L 40.00 180.26 L 40.00 181.39 L 40.00 182.52 L 40.00 183.65 L 40.00 184.78 L 40.00 185.91 L 40.00 187.03 L 40.00 188.16 L 40.00 189.29 L 40.00 190.42 L 40.00 191.55 L 40.00 192.68 L 40.00 193.81 L 40.00 194.93 L 40.00 196.06 L 40.00 197.19 L 40.00 198.32 L 40.00 199.45 L 40.00 200.58 L 40.00 201.70 L 40.00 202.83 L 40.00 203.96 L 40.00 205.09 L 40.00 206.22 L 40.00 207.35 L 40.00 208.48 L 40.00 209.60 L 40.00 210.73 L 40.00 211.86"/>
<path d="M 40.00 156.57 L 40.02 156.57 L 40.04 156.57 L 40.06 156.57 L 40.09 156.57 L 40.11 156.57 L 40.13 156.57 L 40.15 156.57 L 40.17 156.57 L 40.19 156.57 L 40.21 156.57 L 40.24 156.57 L 40.26 156.57 L 40.28 156.57 L 40.30 156.57 L 40.32 156.57 L 40.34 156.57 L 40.36 156.57 L 40.38 156.57 L 40.41 156.57 L 40.43 156.57 L 40.45 156.57 L 40.47 156.57 L 40.49 156.57 L 40.51 156.57 L 40.53 156.57 L 40.56 156.57 L 40.58 156.57 L 40.60 156.57 L 40.62 156.57 L 40.64 156.57 L 40.66 156.57 L 40.68 156.57 L 40.71 156.57 L 40.73 156.57 L 40.75 156.57 L 40.77 156.57 L 40.79 156.57 L 40.81 156.57 L 40.83 156.57 L 40.86 156.57 L 40.88 156.57 L 40.90 156.57 L 40.92 156.57 L 40.94 156.57 L 40.96 156.57 L 40.98 156.57 L 41.01 156.57 L 41.03 156.57 L 41.05 156.57"/>
<path d="M 41.05 156.57 L 41.05 157.69 L 41.05 158.82 L 41.05 159.95 L 41.05 161.08 L 41.05 162.21 L 41.05 163.34 L 41.05 164.47 L 41.05 165.59 L 41.05 166.72 L 41.05 167.85 L 41.05 168.98 L 41.05 170.11 L 41.05 171.24 L 41.05 172.36 L 41.05 173.49 L 41.05 174.62 L 41.05 175.75 L 41.05 176.88 L 41.05 178.01 L 41.05 179.14 L 41.05 180.26 L 41.05 181.39 L 41.05 182.52 L 41.05 183.65 L 41.05 184.78 L 41.05 185.91 L 41.05 187.03 L 41.05 188.16 L 41.05 189.29 L 41.05 190.42 L 41.05 191.55 L 41.05 192.68 L 41.05 193.81 L 41.05 194.93 L 41.05 196.06 L 41.05 197.19 L 41.05 198.32 L 41.05 199.45 L 41.05 200.58 L 41.05 201.70 L 41.05 202.83 L 41.05 203.96 L 41.05 205.09 L 41.05 206.22 L 41.05 207.35 L 41.05 208.48 L 41.05 209.60 L 41.05 210.73 L 41.05 211.86"/>
<path d="M 67.24 182.25 L 67.49 182.26 L 67.74 182.31 L 67.98 182.39 L 68.21 182.50 L 68.42 182.64 L 68.61 182.80 L 68.78 182.99 L 68.92 183.19 L 69.04 183.42 L 69.13 183.65 L 69.18 183.90 L 69.21 184.15 L 69.20 184.40 L 69.16 184.65 L 69.09 184.89 L 68.98 185.12 L 68.85 185.34 L 68.70 185.53 L 68.52 185.71 L 68.31 185.86 L 68.10 185.98 L 67.86 186.08 L 67.62 186.14 L 67.37 186.17 L 67.12 186.17 L 66.87 186.14 L 66.62 186.08 L 66.39 185.98 L 66.17 185.86 L 65.97 185.71 L 65.79 185.53 L 65.63 185.34 L 65.50 185.12 L 65.40 184.89 L 65.33 184.65 L 65.29 184.40 L 65.28 184.15 L 65.30 183.90 L 65.36 183.65 L 65.45 183.42 L 65.56 183.19 L 65.71 182.99 L 65.88 182.80 L 66.07 182.64 L 66.28 182.50 L 66.51 182.39 L 66.74 182.31 L 66.99 182.26 L 67.24 182.25"/>
</g>
<g fill="none" stroke="#141414" stroke-width="1.0">
<path d="M 41.05 270.66 L 57.72 273.91 L 74.43 276.90 L 91.17 279.80 L 107.90 282.72 L 124.61 285.74 L 141.30 288.86 L 157.98 292.08 L 174.64 295.37 L 191.30 298.65 L 207.98 301.87 L 224.68 304.97 L 241.41 307.89 L 258.17 310.59 L 274.97 313.08 L 291.80 315.36 L 308.65 317.53 L 325.49 319.70 L 342.33 321.92 L 359.18 324.00 L 376.07 325.80 L 393.00 327.19 L 409.95 328.08 L 426.93 328.43 L 443.91 328.19 L 460.88 327.38 L 477.80 325.99 L 494.67 324.05 L 511.48 321.58 L 528.20 318.61 L 544.82 315.14 L 561.33 311.18 L 577.71 306.69 L 593.93 301.65 L 609.94 295.99 L 625.78 289.86 L 641.52 283.48 L 657.19 276.95 L 672.81 270.28 L 688.36 263.44 L 703.79 256.36 L 719.09 248.98 L 734.24 241.30 L 749.24 233.33 L 764.16 225.23 L 779.11 217.17 L 794.10 209.18 L 809.24 201.49 L 824.63 194.31 L 840.00 187.09"/>
<path d="M 41.05 270.66 L 41.05 270.64 L 41.05 270.61 L 41.05 270.59 L 41.05 270.57 L 41.05 270.55 L 41.05 270.53 L 41.05 270.51 L 41.05 270.49 L 41.05 270.46 L 41.05 270.44 L 41.05 270.42 L 41.05 270.40 L 41.05 270.38 L 41.05 270.36 L 41.05 270.34 L 41.05 270.32 L 41.05 270.29 L 41.05 270.27 L 41.05 270.25 L 41.05 270.23 L 41.05 270.21 L 41.05 270.19 L 41.05 270.17 L 41.05 270.14 L 41.05 270.12 L 41.05 270.10 L 41.05 270.08 L 41.05 270.06 L 41.05 270.04 L 41.05 270.02 L 41.05 269.99 L 41.05 269.97 L 41.05 269.95 L 41.05 269.93 L 41.05 269.91 L 41.05 269.89 L 41.05 269.87 L 41.05 269.84 L 41.05 269.82 L 41.05 269.80 L 41.05 269.78 L 41.05 269.76 L 41.05 269.74 L 41.05 269.72 L 41.05 269.70 L 41.05 269.67 L 41.05 269.65 L 41.05 269.63 L 41.05 269.61"/>
<path d="M 41.05 269.61 L 57.72 272.87 L 74.43 275.85 L 91.17 278.75 L 107.90 281.67 L 124.61 284.69 L 141.30 287.81 L 157.98 291.04 L 174.64 294.32 L 191.30 297.60 L 207.98 300.82 L 224.68 303.92 L 241.41 306.84 L 258.17 309.55 L 274.97 312.03 L 291.80 314.32 L 308.65 316.48 L 325.49 318.65 L 342.33 320.87 L 359.18 322.96 L 376.07 324.75 L 393.00 326.14 L 409.95 327.03 L 426.93 327.38 L 443.91 327.15 L 460.88 326.33 L 477.80 324.94 L 494.67 323.00 L 511.48 320.53 L 528.20 317.56 L 544.82 314.09 L 561.33 310.13 L 577.71 305.64 L 593.93 300.60 L 609.94 294.94 L 625.78 288.81 L 641.52 282.43 L 657.19 275.90 L 672.81 269.23 L 688.36 262.39 L 703.79 255.31 L 719.09 247.94 L 734.24 240.25 L 749.24 232.29 L 764.16 224.18 L 779.11 216.12 L 794.10 208.13 L 809.24 200.44 L 824.63 193.26 L 840.00 186.05"/>
<path d="M 840.00 186.05 L 840.00 186.07 L 840.00 186.09 L 840.00 186.11 L 840.00 186.13 L 840.00 186.15 L 840.00 186.17 L 840.00 186.20 L 840.00 186.22 L 840.00 186.24 L 840.00 186.26 L 840.00 186.28 L 840.00 186.30 L 840.00 186.32 L 840.00 186.35 L 840.00 186.37 L 840.00 186.39 L 840.00 186.41 L 840.00 186.43 L 840.00 186.45 L 840.00 186.47 L 840.00 186.50 L 840.00 186.52 L 840.00 186.54 L 840.00 186.56 L 840.00 186.58 L 840.00 186.60 L 840.00 186.62 L 840.00 186.65 L 840.00 186.67 L 840.00 186.69 L 840.00 186.71 L 840.00 186.73 L 840.00 186.75 L 840.00 186.77 L 840.00 186.80 L 840.00 186.82 L 840.00 186.84 L 840.00 186.86 L 840.00 186.88 L 840.00 186.90 L 840.00 186.92 L 840.00 186.94 L 840.00 186.97 L 840.00 186.99 L 840.00 187.01 L 840.00 187.03 L 840.00 187.05 L 840.00 187.07 L 840.00 187.09"/>
<path d="M 41.05 98.82 L 41.05 98.80 L 41.05 98.77 L 41.05 98.75 L 41.05 98.73 L 41.05 98.71 L 41.05 98.69 L 41.05 98.67 L 41.05 98.65 L 41.05 98.62 L 41.05 98.60 L 41.05 98.58 L 41.05 98.56 L 41.05 98.54 L 41.05 98.52 L 41.05 98.50 L 41.05 98.47 L 41.05 98.45 L 41.05 98.43 L 41.05 98.41 L 41.05 98.39 L 41.05 98.37 L 41.05 98.35 L 41.05 98.33 L 41.05 98.30 L 41.05 98.28 L 41.05 98.26 L 41.05 98.24 L 41.05 98.22 L 41.05 98.20 L 41.05 98.18 L 41.05 98.15 L 41.05 98.13 L 41.05 98.11 L 41.05 98.09 L 41.05 98.07 L 41.05 98.05 L 41.05 98.03 L 41.05 98.00 L 41.05 97.98 L 41.05 97.96 L 41.05 97.94 L 41.05 97.92 L 41.05 97.90 L 41.05 97.88 L 41.05 97.85 L 41.05 97.83 L 41.05 97.81 L 41.05 97.79 L 41.05 97.77"/>
<path d="M 41.05 97.77 L 57.72 94.51 L 74.43 91.52 L 91.17 88.63 L 107.90 85.70 L 124.61 82.69 L 141.30 79.56 L 157.98 76.34 L 174.64 73.06 L 191.30 69.78 L 207.98 66.56 L 224.68 63.46 L 241.41 60.54 L 258.17 57.83 L 274.97 55.35 L 291.80 53.06 L 308.65 50.90 L 325.49 48.73 L 342.33 46.51 L 359.18 44.42 L 376.07 42.63 L 393.00 41.24 L 409.95 40.34 L 426.93 40.00 L 443.91 40.23 L 460.88 41.05 L 477.80 42.44 L 494.67 44.38 L 511.48 46.85 L 528.20 49.82 L 544.82 53.29 L 561.33 57.25 L 577.71 61.73 L 593.93 66.78 L 609.94 72.44 L 625.78 78.57 L 641.52 84.95 L 657.19 91.48 L 672.81 98.15 L 688.36 104.99 L 703.79 112.07 L 719.09 119.44 L 734.24 127.13 L 749.24 135.09 L 764.16 143.20 L 779.11 151.26 L 794.10 159.25 L 809.24 166.93 L 824.63 174.12 L 840.00 181.33"/>
<path d="M 840.00 181.33 L 840.00 181.35 L 840.00 181.38 L 840.00 181.40 L 840.00 181.42 L 840.00 181.44 L 840.00 181.46 L 840.00 181.48 L 840.00 181.50 L 840.00 181.52 L 840.00 181.55 L 840.00 181.57 L 840.00 181.59 L 840.00 181.61 L 840.00 181.63 L 840.00 181.65 L 840.00 181.67 L 840.00 181.70 L 840.00 181.72 L 840.00 181.74 L 840.00 181.76 L 840.00 181.78 L 840.00 181.80 L 840.00 181.82 L 840.00 181.85 L 840.00 181.87 L 840.00 181.89 L 840.00 181.91 L 840.00 181.93 L 840.00 181.95 L 840.00 181.97 L 840.00 182.00 L 840.00 182.02 L 840.00 182.04 L 840.00 182.06 L 840.00 182.08 L 840.00 182.10 L 840.00 182.12 L 840.00 182.14 L 840.00 182.17 L 840.00 182.19 L 840.00 182.21 L 840.00 182.23 L 840.00 182.25 L 840.00 182.27 L 840.00 182.29 L 840.00 182.32 L 840.00 182.34 L 840.00 182.36 L 840.00 182.38"/>
<path d="M 41.05 98.82 L 57.72 95.56 L 74.43 92.57 L 91.17 89.68 L 107.90 86.75 L 124.61 83.74 L 141.30 80.61 L 157.98 77.39 L 174.64 74.11 L 191.30 70.83 L 207.98 67.61 L 224.68 64.51 L 241.41 61.59 L 258.17 58.88 L 274.97 56.40 L 291.80 54.11 L 308.65 51.95 L 325.49 49.77 L 342.33 47.56 L 359.18 45.47 L 376.07 43.67 L 393.00 42.29 L 409.95 41.39 L 426.93 41.05 L 443.91 41.28 L 460.88 42.10 L 477.80 43.49 L 494.67 45.43 L 511.48 47.89 L 528.20 50.87 L 544.82 54.33 L 561.33 58.30 L 577.71 62.78 L 593.93 67.83 L 609.94 73.49 L 625.78 79.62 L 641.52 86.00 L 657.19 92.53 L 672.81 99.19 L 688.36 106.04 L 703.79 113.12 L 719.09 120.49 L 734.24 128.18 L 749.24 136.14 L 764.16 144.25 L 779.11 152.31 L 794.10 160.29 L 809.24 167.98 L 824.63 175.16 L 840.00 182.38"/>
<path d="M 40.00 270.66 L 40.02 270.66 L 40.04 270.66 L 40.06 270.66 L 40.09 270.66 L 40.11 270.66 L 40.13 270.66 L 40.15 270.66 L 40.17 270.66 L 40.19 270.66 L 40.21 270.66 L 40.24 270.66 L 40.26 270.66 L 40.28 270.66 L 40.30 270.66 L 40.32 270.66 L 40.34 270.66 L 40.36 270.66 L 40.38 270.66 L 40.41 270.66 L 40.43 270.66 L 40.45 270.66 L 40.47 270.66 L 40.49 270.66 L 40.51 270.66 L 40.53 270.66 L 40.56 270.66 L 40.58 270.66 L 40.60 270.66 L 40.62 270.66 L 40.64 270.66 L 40.66 270.66 L 40.68 270.66 L 40.71 270.66 L 40.73 270.66 L 40.75 270.66 L 40.77 270.66 L 40.79 270.66 L 40.81 270.66 L 40.83 270.66 L 40.86 270.66 L 40.88 270.66 L 40.90 270.66 L 40.92 270.66 L 40.94 270.66 L 40.96 270.66 L 40.98 270.66 L 41.01 270.66 L 41.03 270.66 L 41.05 270.66"/>
<path d="M 40.00 97.77 L 40.00 101.30 L 40.00 104.83 L 40.00 108.35 L 40.00 111.88 L 40.00 115.41 L 40.00 118.94 L 40.00 122.47 L 40.00 126.00 L 40.00 129.52 L 40.00 133.05 L 40.00 136.58 L 40.00 140.11 L 40.00 143.64 L 40.00 147.17 L 40.00 150.69 L 40.00 154.22 L 40.00 157.75 L 40.00 161.28 L 40.00 164.81 L 40.00 168.34 L 40.00 171.86 L 40.00 175.39 L 40.00 178.92 L 40.00 182.45 L 40.00 185.98 L 40.00 189.51 L 40.00 193.03 L 40.00 196.56 L 40.00 200.09 L 40.00 203.62 L 40.00 207.15 L 40.00 210.68 L 40.00 214.20 L 40.00 217.73 L 40.00 221.26 L 40.00 224.79 L 40.00 228.32 L 40.00 231.85 L 40.00 235.37 L 40.00 238.90 L 40.00 242.43 L 40.00 245.96 L 40.00 249.49 L 40.00 253.02 L 40.00 256.54 L 40.00 260.07 L 40.00 263.60 L 40.00 267.13 L 40.00 270.66"/>
<path d="M 40.00 97.77 L 40.02 97.77 L 40.04 97.77 L 40.06 97.77 L 40.09 97.77 L 40.11 97.77 L 40.13 97.77 L 40.15 97.77 L 40.17 97.77 L 40.19 97.77 L 40.21 97.77 L 40.24 97.77 L 40.26 97.77 L 40.28 97.77 L 40.30 97.77 L 40.32 97.77 L 40.34 97.77 L 40.36 97.77 L 40.38 97.77 L 40.41 97.77 L 40.43 97.77 L 40.45 97.77 L 40.47 97.77 L 40.49 97.77 L 40.51 97.77 L 40.53 97.77 L 40.56 97.77 L 40.58 97.77 L 40.60 97.77 L 40.62 97.77 L 40.64 97.77 L 40.66 97.77 L 40.68 97.77 L 40.71 97.77 L 40.73 97.77 L 40.75 97.77 L 40.77 97.77 L 40.79 97.77 L 40.81 97.77 L 40.83 97.77 L 40.86 97.77 L 40.88 97.77 L 40.90 97.77 L 40.92 97.77 L 40.94 97.77 L 40.96 97.77 L 40.98 97.77 L 41.01 97.77 L 41.03 97.77 L 41.05 97.77"/>
<path d="M 41.05 97.77 L 41.05 101.30 L 41.05 104.83 L 41.05 108.35 L 41.05 111.88 L 41.05 115.41 L 41.05 118.94 L 41.05 122.47 L 41.05 126.00 L 41.05 129.52 L 41.05 133.05 L 41.05 136.58 L 41.05 140.11 L 41.05 143.64 L 41.05 147.17 L 41.05 150.69 L 41.05 154.22 L 41.05 157.75 L 41.05 161.28 L 41.05 164.81 L 41.05 168.34 L 41.05 171.86 L 41.05 175.39 L 41.05 178.92 L 41.05 182.45 L 41.05 185.98 L 41.05 189.51 L 41.05 193.03 L 41.05 196.56 L 41.05 200.09 L 41.05 203.62 L 41.05 207.15 L 41.05 210.68 L 41.05 214.20 L 41.05 217.73 L 41.05 221.26 L 41.05 224.79 L 41.05 228.32 L 41.05 231.85 L 41.05 235.37 L 41.05 238.90 L 41.05 242.43 L 41.05 245.96 L 41.05 249.49 L 41.05 253.02 L 41.05 256.54 L 41.05 260.07 L 41.05 263.60 L 41.05 267.13 L 41.05 270.66"/>
<path d="M 67.24 182.25 L 67.49 182.26 L 67.74 182.31 L 67.98 182.39 L 68.21 182.50 L 68.42 182.64 L 68.61 182.80 L 68.78 182.99 L 68.92 183.19 L 69.04 183.42 L 69.13 183.65 L 69.18 183.90 L 69.21 184.15 L 69.20 184.40 L 69.16 184.65 L 69.09 184.89 L 68.98 185.12 L 68.85 185.34 L 68.70 185.53 L 68.52 185.71 L 68.31 185.86 L 68.10 185.98 L 67.86 186.08 L 67.62 186.14 L 67.37 186.17 L 67.12 186.17 L 66.87 186.14 L 66.62 186.08 L 66.39 185.98 L 66.17 185.86 L 65.97 185.71 L 65.79 185.53 L 65.63 185.34 L 65.50 185.12 L 65.40 184.89 L 65.33 184.65 L 65.29 184.40 L 65.28 184.15 L 65.30 183.90 L 65.36 183.65 L 65.45 183.42 L 65.56 183.19 L 65.71 182.99 L 65.88 182.80 L 66.07 182.64 L 66.28 182.50 L 66.51 182.39 L 66.74 182.31 L 66.99 182.26 L 67.24 182.25"/>
</g>
<g stroke="black" stroke-width="1" fill="black">
<line x1="40.0" y1="383.4" x2="171.0" y2="383.4"/>
<line x1="40.0" y1="378.4" x2="40.0" y2="388.4"/>
<line x1="171.0" y1="378.4" x2="171.0" y2="388.4"/>
<text x="105.5" y="375.4" text-anchor="middle" font-family="sans-serif" font-size="10">1 m</text>
</g>
</svg>