<?xml version="1.0" encoding="UTF-8"?>
<svg xmlns="http://www.w3.org/2000/svg" version="1.1" width="880.0" height="467.0" viewBox="0 0 880.0 467.0">
<g fill="none" stroke="black" stroke-width="1.0">
<path d="M 836.61 43.18 L 836.68 43.18 L 836.75 43.18 L 836.82 43.18 L 836.89 43.18 L 836.96 43.18 L 837.02 43.18 L 837.09 43.18 L 837.16 43.18 L 837.23 43.18 L 837.30 43.18 L 837.37 43.18 L 837.44 43.18 L 837.51 43.18 L 837.58 43.18 L 837.65 43.18 L 837.72 43.18 L 837.79 43.18 L 837.85 43.18 L 837.92 43.18 L 837.99 43.18 L 838.06 43.18 L 838.13 43.18 L 838.20 43.18 L 838.27 43.18 L 838.34 43.18 L 838.41 43.18 L 838.48 43.18 L 838.55 43.18 L 838.62 43.18 L 838.68 43.18 L 838.75 43.18 L 838.82 43.18 L 838.89 43.18 L 838.96 43.18 L 839.03 43.18 L 839.10 43.18 L 839.17 43.18 L 839.24 43.18 L 839.31 43.18 L 839.38 43.18 L 839.45 43.18 L 839.51 43.18 L 839.58 43.18 L 839.65 43.18 L 839.72 43.18 L 839.79 43.18 L 839.86 43.18 L 839.93 43.18 L 840.00 43.18"/>
<path d="M 840.00 43.18 L 838.03 65.74 L 832.29 87.66 L 823.46 108.54 L 812.15 128.19 L 798.98 146.65 L 784.41 164.02 L 768.77 180.45 L 752.31 196.05 L 735.22 210.95 L 717.61 225.25 L 699.59 239.03 L 681.25 252.37 L 662.64 265.34 L 643.79 277.95 L 624.73 290.25 L 605.53 302.32 L 586.29 314.33 L 566.97 326.22 L 547.37 337.64 L 527.38 348.36 L 507.56 359.37 L 488.73 372.00 L 470.70 385.77 L 451.09 397.00 L 428.91 397.00 L 409.30 385.77 L 391.27 372.00 L 372.44 359.37 L 352.62 348.36 L 332.63 337.64 L 313.03 326.22 L 293.71 314.33 L 274.47 302.32 L 255.27 290.25 L 236.21 277.95 L 217.36 265.34 L 198.75 252.37 L 180.41 239.03 L 162.39 225.25 L 144.78 210.95 L 127.69 196.05 L 111.23 180.45 L 95.59 164.02 L 81.02 146.65 L 67.85 128.19 L 56.54 108.54 L 47.71 87.66 L 41.97 65.74 L 40.00 43.18"/>
<path d="M 40.00 43.18 L 40.07 43.18 L 40.14 43.18 L 40.21 43.18 L 40.28 43.18 L 40.35 43.18 L 40.42 43.18 L 40.49 43.18 L 40.55 43.18 L 40.62 43.18 L 40.69 43.18 L 40.76 43.18 L 40.83 43.18 L 40.90 43.18 L 40.97 43.18 L 41.04 43.18 L 41.11 43.18 L 41.18 43.18 L 41.25 43.18 L 41.32 43.18 L 41.38 43.18 L 41.45 43.18 L 41.52 43.18 L 41.59 43.18 L 41.66 43.18 L 41.73 43.18 L 41.80 43.18 L 41.87 43.18 L 41.94 43.18 L 42.01 43.18 L 42.08 43.18 L 42.15 43.18 L 42.21 43.18 L 42.28 43.18 L 42.35 43.18 L 42.42 43.18 L 42.49 43.18 L 42.56 43.18 L 42.63 43.18 L 42.70 43.18 L 42.77 43.18 L 42.84 43.18 L 42.91 43.18 L 42.98 43.18 L 43.04 43.18 L 43.11 43.18 L 43.18 43.18 L 43.25 43.18 L 43.32 43.18 L 43.39 43.18"/>
<path d="M 836.61 43.18 L 834.65 65.54 L 828.96 87.26 L 820.19 107.95 L 808.97 127.41 L 795.91 145.70 L 781.46 162.91 L 765.95 179.18 L 749.63 194.63 L 732.67 209.39 L 715.21 223.55 L 697.35 237.19 L 679.16 250.40 L 660.71 263.24 L 642.02 275.74 L 623.13 287.91 L 604.09 299.87 L 585.02 311.77 L 565.87 323.54 L 546.44 334.85 L 526.63 345.46 L 506.97 356.37 L 488.31 368.88 L 470.44 382.51 L 450.99 393.64 L 429.01 393.64 L 409.56 382.51 L 391.69 368.88 L 373.03 356.37 L 353.37 345.46 L 333.56 334.85 L 314.13 323.54 L 294.98 311.77 L 275.91 299.87 L 256.87 287.91 L 237.98 275.74 L 219.29 263.24 L 200.84 250.40 L 182.65 237.19 L 164.79 223.55 L 147.33 209.39 L 130.37 194.63 L 114.05 179.18 L 98.54 162.91 L 84.09 145.70 L 71.03 127.41 L 59.81 107.95 L 51.04 87.26 L 45.35 65.54 L 43.39 43.18"/>
<path d="M 40.00 40.00 L 40.00 40.07 L 40.00 40.14 L 40.00 40.21 L 40.00 40.28 L 40.00 40.35 L 40.00 40.42 L 40.00 40.48 L 40.00 40.55 L 40.00 40.62 L 40.00 40.69 L 40.00 40.76 L 40.00 40.83 L 40.00 40.90 L 40.00 40.97 L 40.00 41.04 L 40.00 41.11 L 40.00 41.18 L 40.00 41.25 L 40.00 41.31 L 40.00 41.38 L 40.00 41.45 L 40.00 41.52 L 40.00 41.59 L 40.00 41.66 L 40.00 41.73 L 40.00 41.80 L 40.00 41.87 L 40.00 41.94 L 40.00 42.01 L 40.00 42.08 L 40.00 42.14 L 40.00 42.21 L 40.00 42.28 L 40.00 42.35 L 40.00 42.42 L 40.00 42.49 L 40.00 42.56 L 40.00 42.63 L 40.00 42.70 L 40.00 42.77 L 40.00 42.84 L 40.00 42.91 L 40.00 42.97 L 40.00 43.04 L 40.00 43.11 L 40.00 43.18 L 40.00 43.25 L 40.00 43.32 L 40.00 43.39"/>
<path d="M 840.00 40.00 L 823.67 40.00 L 807.35 40.00 L 791.02 40.00 L 774.69 40.00 L 758.37 40.00 L 742.04 40.00 L 725.71 40.00 L 709.39 40.00 L 693.06 40.00 L 676.73 40.00 L 660.41 40.00 L 644.08 40.00 L 627.76 40.00 L 611.43 40.00 L 595.10 40.00 L 578.78 40.00 L 562.45 40.00 L 546.12 40.00 L 529.80 40.00 L 513.47 40.00 L 497.14 40.00 L 480.82 40.00 L 464.49 40.00 L 448.16 40.00 L 431.84 40.00 L 415.51 40.00 L 399.18 40.00 L 382.86 40.00 L 366.53 40.00 L 350.20 40.00 L 333.88 40.00 L 317.55 40.00 L 301.22 40.00 L 284.90 40.00 L 268.57 40.00 L 252.24 40.00 L 235.92 40.00 L 219.59 40.00 L 203.27 40.00 L 186.94 40.00 L 170.61 40.00 L 154.29 40.00 L 137.96 40.00 L 121.63 40.00 L 105.31 40.00 L 88.98 40.00 L 72.65 40.00 L 56.33 40.00 L 40.00 40.00"/>
<path d="M 840.00 40.00 L 840.00 40.07 L 840.00 40.14 L 840.00 40.21 L 840.00 40.28 L 840.00 40.35 L 840.00 40.42 L 840.00 40.48 L 840.00 40.55 L 840.00 40.62 L 840.00 40.69 L 840.00 40.76 L 840.00 40.83 L 840.00 40.90 L 840.00 40.97 L 840.00 41.04 L 840.00 41.11 L 840.00 41.18 L 840.00 41.25 L 840.00 41.31 L 840.00 41.38 L 840.00 41.45 L 840.00 41.52 L 840.00 41.59 L 840.00 41.66 L 840.00 41.73 L 840.00 41.80 L 840.00 41.87 L 840.00 41.94 L 840.00 42.01 L 840.00 42.08 L 840.00 42.14 L 840.00 42.21 L 840.00 42.28 L 840.00 42.35 L 840.00 42.42 L 840.00 42.49 L 840.00 42.56 L 840.00 42.63 L 840.00 42.70 L 840.00 42.77 L 840.00 42.84 L 840.00 42.91 L 840.00 42.97 L 840.00 43.04 L 840.00 43.11 L 840.00 43.18 L 840.00 43.25 L 840.00 43.32 L 840.00 43.39"/>
<path d="M 840.00 43.39 L 823.67 43.39 L 807.35 43.39 L 791.02 43.39 L 774.69 43.39 L 758.37 43.39 L 742.04 43.39 L 725.71 43.39 L 709.39 43.39 L 693.06 43.39 L 676.73 43.39 L 660.41 43.39 L 644.08 43.39 L 627.76 43.39 L 611.43 43.39 L 595.10 43.39 L 578.78 43.39 L 562.45 43.39 L 546.12 43.39 L 529.80 43.39 L 513.47 43.39 L 497.14 43.39 L 480.82 43.39 L 464.49 43.39 L 448.16 43.39 L 431.84 43.39 L 415.51 43.39 L 399.18 43.39 L 382.86 43.39 L 366.53 43.39 L 350.20 43.39 L 333.88 43.39 L 317.55 43.39 L 301.22 43.39 L 284.90 43.39 L 268.57 43.39 L 252.24 43.39 L 235.92 43.39 L 219.59 43.39 L 203.27 43.39 L 186.94 43.39 L 170.61 43.39 L 154.29 43.39 L 137.96 43.39 L 121.63 43.39 L 105.31 43.39 L 88.98 43.39 L 72.65 43.39 L 56.33 43.39 L 40.00 43.39"/>
</g>
<g stroke="black" stroke-width="1" fill="black">
<line x1="40.0" y1="452.0" x2="124.7" y2="452.0"/>
<line x1="40.0" y1="447.0" x2="40.0" y2="457.0"/>
<line x1="124.7" y1="447.0" x2="124.7" y2="457.0"/>
<text x="82.4" y="444.0" text-anchor="middle" font-family="sans-serif" font-size="10">200 mm</text>
</g>
</svg>