<?xml version="1.0" encoding="UTF-8"?>
<svg xmlns="http://www.w3.org/2000/svg" version="1.1" width="880.0" height="398.8" viewBox="0 0 880.0 398.8">
<g fill="none" stroke="#c8c8c8" stroke-width="1.0">
<path d="M 396.25 178.83 L 396.25 179.05 L 396.25 179.28 L 396.25 179.51 L 396.25 179.74 L 396.25 179.97 L 396.25 180.19 L 396.25 180.42 L 396.25 180.65 L 396.25 180.88 L 396.25 181.11 L 396.25 181.33 L 396.25 181.56 L 396.25 181.79 L 396.25 182.02 L 396.25 182.25 L 396.25 182.48 L 396.25 182.70 L 396.25 182.93 L 396.25 183.16 L 396.25 183.39 L 396.25 183.62 L 396.25 183.84 L 396.25 184.07 L 396.25 184.30 L 396.25 184.53 L 396.25 184.76 L 396.25 184.98 L 396.25 185.21 L 396.25 185.44 L 396.25 185.67 L 396.25 185.90 L 396.25 186.12 L 396.25 186.35 L 396.25 186.58 L 396.25 186.81 L 396.25 187.04 L 396.25 187.27 L 396.25 187.49 L 396.25 187.72 L 396.25 187.95 L 396.25 188.18 L 396.25 188.41 L 396.25 188.63 L 396.25 188.86 L 396.25 189.09 L 396.25 189.32 L 396.25 189.55 L 396.25 189.77 L 396.25 190.00"/>
<path d="M 489.38 178.83 L 487.48 178.83 L 485.58 178.83 L 483.68 178.83 L 481.78 178.83 L 479.88 178.83 L 477.98 178.83 L 476.08 178.83 L 474.18 178.83 L 472.28 178.83 L 470.38 178.83 L 468.48 178.83 L 466.58 178.83 L 464.67 178.83 L 462.77 178.83 L 460.87 178.83 L 458.97 178.83 L 457.07 178.83 L 455.17 178.83 L 453.27 178.83 L 451.37 178.83 L 449.47 178.83 L 447.57 178.83 L 445.67 178.83 L 443.77 178.83 L 441.87 178.83 L 439.96 178.83 L 438.06 178.83 L 436.16 178.83 L 434.26 178.83 L 432.36 178.83 L 430.46 178.83 L 428.56 178.83 L 426.66 178.83 L 424.76 178.83 L 422.86 178.83 L 420.96 178.83 L 419.06 178.83 L 417.16 178.83 L 415.25 178.83 L 413.35 178.83 L 411.45 178.83 L 409.55 178.83 L 407.65 178.83 L 405.75 178.83 L 403.85 178.83 L 401.95 178.83 L 400.05 178.83 L 398.15 178.83 L 396.25 178.83"/>
<path d="M 489.38 190.00 L 489.38 189.77 L 489.38 189.55 L 489.38 189.32 L 489.38 189.09 L 489.38 188.86 L 489.38 188.63 L 489.38 188.41 L 489.38 188.18 L 489.38 187.95 L 489.38 187.72 L 489.38 187.49 L 489.38 187.27 L 489.38 187.04 L 489.38 186.81 L 489.38 186.58 L 489.38 186.35 L 489.38 186.12 L 489.38 185.90 L 489.38 185.67 L 489.38 185.44 L 489.38 185.21 L 489.38 184.98 L 489.38 184.76 L 489.38 184.53 L 489.38 184.30 L 489.38 184.07 L 489.38 183.84 L 489.38 183.62 L 489.38 183.39 L 489.38 183.16 L 489.38 182.93 L 489.38 182.70 L 489.38 182.48 L 489.38 182.25 L 489.38 182.02 L 489.38 181.79 L 489.38 181.56 L 489.38 181.33 L 489.38 181.11 L 489.38 180.88 L 489.38 180.65 L 489.38 180.42 L 489.38 180.19 L 489.38 179.97 L 489.38 179.74 L 489.38 179.51 L 489.38 179.28 L 489.38 179.05 L 489.38 178.83"/>
<path d="M 396.25 190.00 L 398.15 190.00 L 400.05 190.00 L 401.95 190.00 L 403.85 190.00 L 405.75 190.00 L 407.65 190.00 L 409.55 190.00 L 411.45 190.00 L 413.35 190.00 L 415.25 190.00 L 417.16 190.00 L 419.06 190.00 L 420.96 190.00 L 422.86 190.00 L 424.76 190.00 L 426.66 190.00 L 428.56 190.00 L 430.46 190.00 L 432.36 190.00 L 434.26 190.00 L 436.16 190.00 L 438.06 190.00 L 439.96 190.00 L 441.87 190.00 L 443.77 190.00 L 445.67 190.00 L 447.57 190.00 L 449.47 190.00 L 451.37 190.00 L 453.27 190.00 L 455.17 190.00 L 457.07 190.00 L 458.97 190.00 L 460.87 190.00 L 462.77 190.00 L 464.67 190.00 L 466.58 190.00 L 468.48 190.00 L 470.38 190.00 L 472.28 190.00 L 474.18 190.00 L 476.08 190.00 L 477.98 190.00 L 479.88 190.00 L 481.78 190.00 L 483.68 190.00 L 485.58 190.00 L 487.48 190.00 L 489.38 190.00"/>
<path d="M 86.89 185.72 L 86.89 185.67 L 86.89 185.62 L 86.89 185.56 L 86.89 185.51 L 86.89 185.46 L 86.89 185.40 L 86.89 185.35 L 86.89 185.30 L 86.89 185.24 L 86.89 185.19 L 86.89 185.14 L 86.89 185.08 L 86.89 185.03 L 86.89 184.98 L 86.89 184.92 L 86.89 184.87 L 86.89 184.81 L 86.89 184.76 L 86.89 184.71 L 86.89 184.65 L 86.89 184.60 L 86.89 184.55 L 86.89 184.49 L 86.89 184.44 L 86.89 184.39 L 86.89 184.33 L 86.89 184.28 L 86.89 184.23 L 86.89 184.17 L 86.89 184.12 L 86.89 184.07 L 86.89 184.01 L 86.89 183.96 L 86.89 183.91 L 86.89 183.85 L 86.89 183.80 L 86.89 183.75 L 86.89 183.69 L 86.89 183.64 L 86.89 183.59 L 86.89 183.53 L 86.89 183.48 L 86.89 183.43 L 86.89 183.37 L 86.89 183.32 L 86.89 183.26 L 86.89 183.21 L 86.89 183.16 L 86.89 183.10"/>
<path d="M 86.89 185.72 L 86.09 185.72 L 85.29 185.72 L 84.48 185.72 L 83.68 185.72 L 82.88 185.72 L 82.08 185.72 L 81.28 185.72 L 80.47 185.72 L 79.67 185.72 L 78.87 185.72 L 78.07 185.72 L 77.27 185.72 L 76.46 185.72 L 75.66 185.72 L 74.86 185.72 L 74.06 185.72 L 73.26 185.72 L 72.46 185.72 L 71.65 185.72 L 70.85 185.72 L 70.05 185.72 L 69.25 185.72 L 68.45 185.72 L 67.64 185.72 L 66.84 185.72 L 66.04 185.72 L 65.24 185.72 L 64.44 185.72 L 63.63 185.72 L 62.83 185.72 L 62.03 185.72 L 61.23 185.72 L 60.43 185.72 L 59.62 185.72 L 58.82 185.72 L 58.02 185.72 L 57.22 185.72 L 56.42 185.72 L 55.62 185.72 L 54.81 185.72 L 54.01 185.72 L 53.21 185.72 L 52.41 185.72 L 51.61 185.72 L 50.80 185.72 L 50.00 185.72 L 49.20 185.72 L 48.40 185.72 L 47.60 185.72"/>
<path d="M 47.60 185.72 L 47.60 185.67 L 47.60 185.62 L 47.60 185.56 L 47.60 185.51 L 47.60 185.46 L 47.60 185.40 L 47.60 185.35 L 47.60 185.30 L 47.60 185.24 L 47.60 185.19 L 47.60 185.14 L 47.60 185.08 L 47.60 185.03 L 47.60 184.98 L 47.60 184.92 L 47.60 184.87 L 47.60 184.81 L 47.60 184.76 L 47.60 184.71 L 47.60 184.65 L 47.60 184.60 L 47.60 184.55 L 47.60 184.49 L 47.60 184.44 L 47.60 184.39 L 47.60 184.33 L 47.60 184.28 L 47.60 184.23 L 47.60 184.17 L 47.60 184.12 L 47.60 184.07 L 47.60 184.01 L 47.60 183.96 L 47.60 183.91 L 47.60 183.85 L 47.60 183.80 L 47.60 183.75 L 47.60 183.69 L 47.60 183.64 L 47.60 183.59 L 47.60 183.53 L 47.60 183.48 L 47.60 183.43 L 47.60 183.37 L 47.60 183.32 L 47.60 183.26 L 47.60 183.21 L 47.60 183.16 L 47.60 183.10"/>
<path d="M 86.89 183.10 L 86.09 183.10 L 85.29 183.10 L 84.48 183.10 L 83.68 183.10 L 82.88 183.10 L 82.08 183.10 L 81.28 183.10 L 80.47 183.10 L 79.67 183.10 L 78.87 183.10 L 78.07 183.10 L 77.27 183.10 L 76.46 183.10 L 75.66 183.10 L 74.86 183.10 L 74.06 183.10 L 73.26 183.10 L 72.46 183.10 L 71.65 183.10 L 70.85 183.10 L 70.05 183.10 L 69.25 183.10 L 68.45 183.10 L 67.64 183.10 L 66.84 183.10 L 66.04 183.10 L 65.24 183.10 L 64.44 183.10 L 63.63 183.10 L 62.83 183.10 L 62.03 183.10 L 61.23 183.10 L 60.43 183.10 L 59.62 183.10 L 58.82 183.10 L 58.02 183.10 L 57.22 183.10 L 56.42 183.10 L 55.62 183.10 L 54.81 183.10 L 54.01 183.10 L 53.21 183.10 L 52.41 183.10 L 51.61 183.10 L 50.80 183.10 L 50.00 183.10 L 49.20 183.10 L 48.40 183.10 L 47.60 183.10"/>
<path d="M 67.24 182.45 L 67.49 182.47 L 67.74 182.51 L 67.98 182.59 L 68.21 182.70 L 68.42 182.84 L 68.61 183.00 L 68.78 183.19 L 68.92 183.40 L 69.04 183.62 L 69.13 183.86 L 69.18 184.10 L 69.21 184.35 L 69.20 184.60 L 69.16 184.85 L 69.09 185.09 L 68.98 185.32 L 68.85 185.54 L 68.70 185.73 L 68.52 185.91 L 68.31 186.06 L 68.10 186.18 L 67.86 186.28 L 67.62 186.34 L 67.37 186.37 L 67.12 186.37 L 66.87 186.34 L 66.62 186.28 L 66.39 186.18 L 66.17 186.06 L 65.97 185.91 L 65.79 185.73 L 65.63 185.54 L 65.50 185.32 L 65.40 185.09 L 65.33 184.85 L 65.29 184.60 L 65.28 184.35 L 65.30 184.10 L 65.36 183.86 L 65.45 183.62 L 65.56 183.40 L 65.71 183.19 L 65.88 183.00 L 66.07 182.84 L 66.28 182.70 L 66.51 182.59 L 66.74 182.51 L 66.99 182.47 L 67.24 182.45"/>
</g>
<g fill="none" stroke="#a4a4a4" stroke-width="1.0">
<path d="M 392.19 178.48 L 392.19 178.72 L 392.19 178.96 L 392.19 179.20 L 392.19 179.45 L 392.19 179.69 L 392.19 179.93 L 392.19 180.17 L 392.19 180.42 L 392.19 180.66 L 392.19 180.90 L 392.19 181.14 L 392.19 181.38 L 392.19 181.63 L 392.19 181.87 L 392.19 182.11 L 392.19 182.35 L 392.19 182.60 L 392.19 182.84 L 392.19 183.08 L 392.19 183.32 L 392.19 183.57 L 392.19 183.81 L 392.19 184.05 L 392.19 184.29 L 392.19 184.54 L 392.19 184.78 L 392.19 185.02 L 392.19 185.26 L 392.19 185.50 L 392.19 185.75 L 392.19 185.99 L 392.19 186.23 L 392.19 186.47 L 392.19 186.72 L 392.19 186.96 L 392.19 187.20 L 392.19 187.44 L 392.19 187.69 L 392.19 187.93 L 392.19 188.17 L 392.19 188.41 L 392.19 188.66 L 392.19 188.90 L 392.19 189.14 L 392.19 189.38 L 392.19 189.62 L 392.19 189.87 L 392.19 190.11 L 392.19 190.35"/>
<path d="M 491.15 178.48 L 489.13 178.48 L 487.11 178.48 L 485.09 178.48 L 483.07 178.48 L 481.05 178.48 L 479.03 178.48 L 477.01 178.48 L 474.99 178.48 L 472.97 178.48 L 470.95 178.48 L 468.93 178.48 L 466.91 178.48 L 464.89 178.48 L 462.88 178.48 L 460.86 178.48 L 458.84 178.48 L 456.82 178.48 L 454.80 178.48 L 452.78 178.48 L 450.76 178.48 L 448.74 178.48 L 446.72 178.48 L 444.70 178.48 L 442.68 178.48 L 440.66 178.48 L 438.64 178.48 L 436.62 178.48 L 434.60 178.48 L 432.58 178.48 L 430.56 178.48 L 428.54 178.48 L 426.52 178.48 L 424.50 178.48 L 422.48 178.48 L 420.46 178.48 L 418.44 178.48 L 416.43 178.48 L 414.41 178.48 L 412.39 178.48 L 410.37 178.48 L 408.35 178.48 L 406.33 178.48 L 404.31 178.48 L 402.29 178.48 L 400.27 178.48 L 398.25 178.48 L 396.23 178.48 L 394.21 178.48 L 392.19 178.48"/>
<path d="M 491.15 190.35 L 491.15 190.11 L 491.15 189.87 L 491.15 189.62 L 491.15 189.38 L 491.15 189.14 L 491.15 188.90 L 491.15 188.66 L 491.15 188.41 L 491.15 188.17 L 491.15 187.93 L 491.15 187.69 L 491.15 187.44 L 491.15 187.20 L 491.15 186.96 L 491.15 186.72 L 491.15 186.47 L 491.15 186.23 L 491.15 185.99 L 491.15 185.75 L 491.15 185.50 L 491.15 185.26 L 491.15 185.02 L 491.15 184.78 L 491.15 184.54 L 491.15 184.29 L 491.15 184.05 L 491.15 183.81 L 491.15 183.57 L 491.15 183.32 L 491.15 183.08 L 491.15 182.84 L 491.15 182.60 L 491.15 182.35 L 491.15 182.11 L 491.15 181.87 L 491.15 181.63 L 491.15 181.38 L 491.15 181.14 L 491.15 180.90 L 491.15 180.66 L 491.15 180.42 L 491.15 180.17 L 491.15 179.93 L 491.15 179.69 L 491.15 179.45 L 491.15 179.20 L 491.15 178.96 L 491.15 178.72 L 491.15 178.48"/>
<path d="M 392.19 190.35 L 394.21 190.35 L 396.23 190.35 L 398.25 190.35 L 400.27 190.35 L 402.29 190.35 L 404.31 190.35 L 406.33 190.35 L 408.35 190.35 L 410.37 190.35 L 412.39 190.35 L 414.41 190.35 L 416.43 190.35 L 418.44 190.35 L 420.46 190.35 L 422.48 190.35 L 424.50 190.35 L 426.52 190.35 L 428.54 190.35 L 430.56 190.35 L 432.58 190.35 L 434.60 190.35 L 436.62 190.35 L 438.64 190.35 L 440.66 190.35 L 442.68 190.35 L 444.70 190.35 L 446.72 190.35 L 448.74 190.35 L 450.76 190.35 L 452.78 190.35 L 454.80 190.35 L 456.82 190.35 L 458.84 190.35 L 460.86 190.35 L 462.88 190.35 L 464.89 190.35 L 466.91 190.35 L 468.93 190.35 L 470.95 190.35 L 472.97 190.35 L 474.99 190.35 L 477.01 190.35 L 479.03 190.35 L 481.05 190.35 L 483.07 190.35 L 485.09 190.35 L 487.11 190.35 L 489.13 190.35 L 491.15 190.35"/>
<path d="M 86.89 185.72 L 86.89 185.67 L 86.89 185.62 L 86.89 185.56 L 86.89 185.51 L 86.89 185.46 L 86.89 185.40 L 86.89 185.35 L 86.89 185.30 L 86.89 185.24 L 86.89 185.19 L 86.89 185.14 L 86.89 185.08 L 86.89 185.03 L 86.89 184.98 L 86.89 184.92 L 86.89 184.87 L 86.89 184.81 L 86.89 184.76 L 86.89 184.71 L 86.89 184.65 L 86.89 184.60 L 86.89 184.55 L 86.89 184.49 L 86.89 184.44 L 86.89 184.39 L 86.89 184.33 L 86.89 184.28 L 86.89 184.23 L 86.89 184.17 L 86.89 184.12 L 86.89 184.07 L 86.89 184.01 L 86.89 183.96 L 86.89 183.91 L 86.89 183.85 L 86.89 183.80 L 86.89 183.75 L 86.89 183.69 L 86.89 183.64 L 86.89 183.59 L 86.89 183.53 L 86.89 183.48 L 86.89 183.43 L 86.89 183.37 L 86.89 183.32 L 86.89 183.26 L 86.89 183.21 L 86.89 183.16 L 86.89 183.10"/>
<path d="M 86.89 185.72 L 86.09 185.72 L 85.29 185.72 L 84.48 185.72 L 83.68 185.72 L 82.88 185.72 L 82.08 185.72 L 81.28 185.72 L 80.47 185.72 L 79.67 185.72 L 78.87 185.72 L 78.07 185.72 L 77.27 185.72 L 76.46 185.72 L 75.66 185.72 L 74.86 185.72 L 74.06 185.72 L 73.26 185.72 L 72.46 185.72 L 71.65 185.72 L 70.85 185.72 L 70.05 185.72 L 69.25 185.72 L 68.45 185.72 L 67.64 185.72 L 66.84 185.72 L 66.04 185.72 L 65.24 185.72 L 64.44 185.72 L 63.63 185.72 L 62.83 185.72 L 62.03 185.72 L 61.23 185.72 L 60.43 185.72 L 59.62 185.72 L 58.82 185.72 L 58.02 185.72 L 57.22 185.72 L 56.42 185.72 L 55.62 185.72 L 54.81 185.72 L 54.01 185.72 L 53.21 185.72 L 52.41 185.72 L 51.61 185.72 L 50.80 185.72 L 50.00 185.72 L 49.20 185.72 L 48.40 185.72 L 47.60 185.72"/>
<path d="M 47.60 185.72 L 47.60 185.67 L 47.60 185.62 L 47.60 185.56 L 47.60 185.51 L 47.60 185.46 L 47.60 185.40 L 47.60 185.35 L 47.60 185.30 L 47.60 185.24 L 47.60 185.19 L 47.60 185.14 L 47.60 185.08 L 47.60 185.03 L 47.60 184.98 L 47.60 184.92 L 47.60 184.87 L 47.60 184.81 L 47.60 184.76 L 47.60 184.71 L 47.60 184.65 L 47.60 184.60 L 47.60 184.55 L 47.60 184.49 L 47.60 184.44 L 47.60 184.39 L 47.60 184.33 L 47.60 184.28 L 47.60 184.23 L 47.60 184.17 L 47.60 184.12 L 47.60 184.07 L 47.60 184.01 L 47.60 183.96 L 47.60 183.91 L 47.60 183.85 L 47.60 183.80 L 47.60 183.75 L 47.60 183.69 L 47.60 183.64 L 47.60 183.59 L 47.60 183.53 L 47.60 183.48 L 47.60 183.43 L 47.60 183.37 L 47.60 183.32 L 47.60 183.26 L 47.60 183.21 L 47.60 183.16 L 47.60 183.10"/>
<path d="M 86.89 183.10 L 86.09 183.10 L 85.29 183.10 L 84.48 183.10 L 83.68 183.10 L 82.88 183.10 L 82.08 183.10 L 81.28 183.10 L 80.47 183.10 L 79.67 183.10 L 78.87 183.10 L 78.07 183.10 L 77.27 183.10 L 76.46 183.10 L 75.66 183.10 L 74.86 183.10 L 74.06 183.10 L 73.26 183.10 L 72.46 183.10 L 71.65 183.10 L 70.85 183.10 L 70.05 183.10 L 69.25 183.10 L 68.45 183.10 L 67.64 183.10 L 66.84 183.10 L 66.04 183.10 L 65.24 183.10 L 64.44 183.10 L 63.63 183.10 L 62.83 183.10 L 62.03 183.10 L 61.23 183.10 L 60.43 183.10 L 59.62 183.10 L 58.82 183.10 L 58.02 183.10 L 57.22 183.10 L 56.42 183.10 L 55.62 183.10 L 54.81 183.10 L 54.01 183.10 L 53.21 183.10 L 52.41 183.10 L 51.61 183.10 L 50.80 183.10 L 50.00 183.10 L 49.20 183.10 L 48.40 183.10 L 47.60 183.10"/>
<path d="M 67.24 182.45 L 67.49 182.47 L 67.74 182.51 L 67.98 182.59 L 68.21 182.70 L 68.42 182.84 L 68.61 183.00 L 68.78 183.19 L 68.92 183.40 L 69.04 183.62 L 69.13 183.86 L 69.18 184.10 L 69.21 184.35 L 69.20 184.60 L 69.16 184.85 L 69.09 185.09 L 68.98 185.32 L 68.85 185.54 L 68.70 185.73 L 68.52 185.91 L 68.31 186.06 L 68.10 186.18 L 67.86 186.28 L 67.62 186.34 L 67.37 186.37 L 67.12 186.37 L 66.87 186.34 L 66.62 186.28 L 66.39 186.18 L 66.17 186.06 L 65.97 185.91 L 65.79 185.73 L 65.63 185.54 L 65.50 185.32 L 65.40 185.09 L 65.33 184.85 L 65.29 184.60 L 65.28 184.35 L 65.30 184.10 L 65.36 183.86 L 65.45 183.62 L 65.56 183.40 L 65.71 183.19 L 65.88 183.00 L 66.07 182.84 L 66.28 182.70 L 66.51 182.59 L 66.74 182.51 L 66.99 182.47 L 67.24 182.45"/>
</g>
<g fill="none" stroke="#808080" stroke-width="1.0">
<path d="M 426.29 187.26 L 428.36 187.18 L 430.43 187.08 L 432.50 186.95 L 434.57 186.79 L 436.64 186.60 L 438.70 186.36 L 440.76 186.06 L 442.79 185.67 L 444.77 185.05 L 444.62 183.71 L 442.64 183.12 L 440.60 182.74 L 438.54 182.45 L 436.48 182.22 L 434.41 182.02 L 432.34 181.87 L 430.27 181.74 L 428.20 181.64 L 426.12 181.56 L 424.05 181.51 L 421.97 181.47 L 419.90 181.46 L 417.82 181.47 L 415.75 181.51 L 413.67 181.56 L 411.60 181.65 L 409.53 181.75 L 407.46 181.89 L 405.39 182.06 L 403.32 182.28 L 401.26 182.55 L 399.22 182.89 L 397.20 183.38 L 395.61 184.49 L 397.36 185.49 L 399.38 185.97 L 401.42 186.31 L 403.48 186.57 L 405.55 186.78 L 407.62 186.95 L 409.69 187.08 L 411.76 187.19 L 413.83 187.27 L 415.91 187.32 L 417.98 187.36 L 420.06 187.37 L 422.14 187.35 L 424.21 187.32 L 426.29 187.26"/>
<path d="M 67.24 182.45 L 67.49 182.47 L 67.74 182.51 L 67.98 182.59 L 68.21 182.70 L 68.42 182.84 L 68.61 183.00 L 68.78 183.19 L 68.92 183.40 L 69.04 183.62 L 69.13 183.86 L 69.18 184.10 L 69.21 184.35 L 69.20 184.60 L 69.16 184.85 L 69.09 185.09 L 68.98 185.32 L 68.85 185.54 L 68.70 185.73 L 68.52 185.91 L 68.31 186.06 L 68.10 186.18 L 67.86 186.28 L 67.62 186.34 L 67.37 186.37 L 67.12 186.37 L 66.87 186.34 L 66.62 186.28 L 66.39 186.18 L 66.17 186.06 L 65.97 185.91 L 65.79 185.73 L 65.63 185.54 L 65.50 185.32 L 65.40 185.09 L 65.33 184.85 L 65.29 184.60 L 65.28 184.35 L 65.30 184.10 L 65.36 183.86 L 65.45 183.62 L 65.56 183.40 L 65.71 183.19 L 65.88 183.00 L 66.07 182.84 L 66.28 182.70 L 66.51 182.59 L 66.74 182.51 L 66.99 182.47 L 67.24 182.45"/>
</g>
<g fill="none" stroke="#5c5c5c" stroke-width="1.0">
<path d="M 276.81 220.62 L 300.45 222.44 L 324.08 224.35 L 347.58 227.59 L 371.06 230.91 L 394.65 233.31 L 418.34 234.27 L 442.04 233.75 L 465.69 231.98 L 489.26 229.37 L 512.78 226.30 L 536.25 222.92 L 559.64 219.03 L 582.79 213.90 L 605.26 206.37 L 627.34 197.71 L 649.79 190.07 L 648.40 178.25 L 625.95 170.62 L 603.89 161.91 L 581.36 154.55 L 558.19 149.53 L 534.79 145.69 L 511.32 142.33 L 487.80 139.28 L 464.22 136.71 L 440.57 135.01 L 416.86 134.57 L 393.18 135.63 L 369.59 138.10 L 346.12 141.46 L 322.62 144.64 L 298.98 146.49 L 275.34 148.36 L 251.85 151.58 L 228.64 156.44 L 205.67 162.32 L 182.63 167.95 L 159.35 172.44 L 135.90 175.95 L 112.38 179.05 L 90.79 185.05 L 113.85 189.98 L 137.36 193.07 L 160.80 196.64 L 184.07 201.20 L 207.09 206.88 L 230.08 212.73 L 253.30 217.50 L 276.81 220.62"/>
<path d="M 277.29 218.80 L 300.25 220.58 L 323.21 222.42 L 346.03 225.54 L 368.82 228.82 L 391.72 231.28 L 414.72 232.43 L 437.75 232.14 L 460.73 230.62 L 483.64 228.24 L 506.49 225.33 L 529.30 222.13 L 552.05 218.54 L 574.64 214.04 L 596.78 207.72 L 618.32 199.58 L 640.11 192.10 L 650.31 180.64 L 628.63 172.88 L 607.02 164.90 L 585.22 157.50 L 562.80 152.26 L 540.11 148.34 L 517.32 144.98 L 494.49 141.92 L 471.61 139.25 L 448.67 137.27 L 425.65 136.37 L 402.63 136.82 L 379.67 138.70 L 356.84 141.68 L 334.05 145.04 L 311.15 147.51 L 288.17 149.08 L 265.26 151.41 L 242.56 155.26 L 220.12 160.47 L 197.77 166.05 L 175.27 170.93 L 152.57 174.86 L 129.79 178.25 L 107.09 182.11 L 118.98 188.96 L 141.77 192.32 L 164.52 195.93 L 187.12 200.33 L 209.52 205.69 L 231.88 211.22 L 254.45 215.79 L 277.29 218.80"/>
<path d="M 67.24 182.45 L 67.49 182.47 L 67.74 182.51 L 67.98 182.59 L 68.21 182.70 L 68.42 182.84 L 68.61 183.00 L 68.78 183.19 L 68.92 183.40 L 69.04 183.62 L 69.13 183.86 L 69.18 184.10 L 69.21 184.35 L 69.20 184.60 L 69.16 184.85 L 69.09 185.09 L 68.98 185.32 L 68.85 185.54 L 68.70 185.73 L 68.52 185.91 L 68.31 186.06 L 68.10 186.18 L 67.86 186.28 L 67.62 186.34 L 67.37 186.37 L 67.12 186.37 L 66.87 186.34 L 66.62 186.28 L 66.39 186.18 L 66.17 186.06 L 65.97 185.91 L 65.79 185.73 L 65.63 185.54 L 65.50 185.32 L 65.40 185.09 L 65.33 184.85 L 65.29 184.60 L 65.28 184.35 L 65.30 184.10 L 65.36 183.86 L 65.45 183.62 L 65.56 183.40 L 65.71 183.19 L 65.88 183.00 L 66.07 182.84 L 66.28 182.70 L 66.51 182.59 L 66.74 182.51 L 66.99 182.47 L 67.24 182.45"/>
</g>
<g fill="none" stroke="#383838" stroke-width="1.0">
<path d="M 41.05 212.06 L 68.87 222.80 L 98.32 227.95 L 127.96 231.99 L 157.39 237.36 L 186.51 244.22 L 215.51 251.55 L 244.73 257.98 L 274.30 262.44 L 304.10 265.06 L 333.84 268.26 L 363.42 272.75 L 393.13 276.22 L 423.01 277.45 L 452.90 276.26 L 482.66 273.20 L 512.28 269.00 L 541.79 264.08 L 571.10 258.14 L 599.81 249.80 L 627.31 238.02 L 654.54 225.63 L 682.10 214.00 L 709.70 202.45 L 737.15 190.62 L 737.15 178.21 L 709.70 166.38 L 682.10 154.83 L 654.54 143.19 L 627.31 130.81 L 599.81 119.03 L 571.10 110.69 L 541.79 104.75 L 512.28 99.83 L 482.66 95.63 L 452.90 92.57 L 423.01 91.38 L 393.13 92.61 L 363.42 96.07 L 333.84 100.57 L 304.10 103.77 L 274.30 106.39 L 244.73 110.84 L 215.51 117.28 L 186.51 124.61 L 157.39 131.47 L 127.96 136.84 L 98.32 140.88 L 68.87 146.03 L 41.05 156.77"/>
<path d="M 41.05 212.06 L 41.05 212.03 L 41.05 211.99 L 41.05 211.96 L 41.05 211.93 L 41.05 211.89 L 41.05 211.86 L 41.05 211.83 L 41.05 211.80 L 41.05 211.76 L 41.05 211.73 L 41.05 211.70 L 41.05 211.66 L 41.05 211.63 L 41.05 211.60 L 41.05 211.56 L 41.05 211.53 L 41.05 211.50 L 41.05 211.46 L 41.05 211.43 L 41.05 211.40 L 41.05 211.36 L 41.05 211.33 L 41.05 211.30 L 41.05 211.26 L 41.05 211.23 L 41.05 211.20 L 41.05 211.16 L 41.05 211.13 L 41.05 211.10 L 41.05 211.06 L 41.05 211.03 L 41.05 211.00 L 41.05 210.96 L 41.05 210.93 L 41.05 210.90 L 41.05 210.86 L 41.05 210.83 L 41.05 210.80 L 41.05 210.76 L 41.05 210.73 L 41.05 210.70 L 41.05 210.67 L 41.05 210.63 L 41.05 210.60 L 41.05 210.57 L 41.05 210.53 L 41.05 210.50 L 41.05 210.47 L 41.05 210.43"/>
<path d="M 41.05 210.43 L 68.73 221.17 L 98.05 226.32 L 127.56 230.36 L 156.86 235.68 L 185.85 242.51 L 214.73 249.82 L 243.80 256.28 L 273.24 260.79 L 302.90 263.44 L 332.52 266.54 L 361.97 271.01 L 391.54 274.56 L 421.29 275.91 L 451.05 274.86 L 480.69 271.91 L 510.18 267.79 L 539.57 262.95 L 568.79 257.16 L 597.46 249.14 L 624.91 237.60 L 652.01 225.24 L 679.44 213.63 L 706.93 202.17 L 734.35 190.58 L 734.35 178.25 L 706.93 166.66 L 679.44 155.20 L 652.01 143.59 L 624.91 131.22 L 597.46 119.69 L 568.79 111.67 L 539.57 105.88 L 510.18 101.04 L 480.69 96.92 L 451.05 93.97 L 421.29 92.92 L 391.54 94.27 L 361.97 97.82 L 332.52 102.29 L 302.90 105.39 L 273.24 108.04 L 243.80 112.54 L 214.73 119.00 L 185.85 126.32 L 156.86 133.14 L 127.56 138.47 L 98.05 142.51 L 68.73 147.66 L 41.05 158.40"/>
<path d="M 41.05 158.40 L 41.05 158.36 L 41.05 158.33 L 41.05 158.30 L 41.05 158.26 L 41.05 158.23 L 41.05 158.20 L 41.05 158.16 L 41.05 158.13 L 41.05 158.10 L 41.05 158.06 L 41.05 158.03 L 41.05 158.00 L 41.05 157.96 L 41.05 157.93 L 41.05 157.90 L 41.05 157.86 L 41.05 157.83 L 41.05 157.80 L 41.05 157.76 L 41.05 157.73 L 41.05 157.70 L 41.05 157.66 L 41.05 157.63 L 41.05 157.60 L 41.05 157.56 L 41.05 157.53 L 41.05 157.50 L 41.05 157.47 L 41.05 157.43 L 41.05 157.40 L 41.05 157.37 L 41.05 157.33 L 41.05 157.30 L 41.05 157.27 L 41.05 157.23 L 41.05 157.20 L 41.05 157.17 L 41.05 157.13 L 41.05 157.10 L 41.05 157.07 L 41.05 157.03 L 41.05 157.00 L 41.05 156.97 L 41.05 156.93 L 41.05 156.90 L 41.05 156.87 L 41.05 156.83 L 41.05 156.80 L 41.05 156.77"/>
<path d="M 40.00 212.06 L 40.02 212.06 L 40.04 212.06 L 40.06 212.06 L 40.09 212.06 L 40.11 212.06 L 40.13 212.06 L 40.15 212.06 L 40.17 212.06 L 40.19 212.06 L 40.21 212.06 L 40.24 212.06 L 40.26 212.06 L 40.28 212.06 L 40.30 212.06 L 40.32 212.06 L 40.34 212.06 L 40.36 212.06 L 40.38 212.06 L 40.41 212.06 L 40.43 212.06 L 40.45 212.06 L 40.47 212.06 L 40.49 212.06 L 40.51 212.06 L 40.53 212.06 L 40.56 212.06 L 40.58 212.06 L 40.60 212.06 L 40.62 212.06 L 40.64 212.06 L 40.66 212.06 L 40.68 212.06 L 40.71 212.06 L 40.73 212.06 L 40.75 212.06 L 40.77 212.06 L 40.79 212.06 L 40.81 212.06 L 40.83 212.06 L 40.86 212.06 L 40.88 212.06 L 40.90 212.06 L 40.92 212.06 L 40.94 212.06 L 40.96 212.06 L 40.98 212.06 L 41.01 212.06 L 41.03 212.06 L 41.05 212.06"/>
<path d="M 40.00 156.77 L 40.00 157.90 L 40.00 159.02 L 40.00 160.15 L 40.00 161.28 L 40.00 162.41 L 40.00 163.54 L 40.00 164.67 L 40.00 165.79 L 40.00 166.92 L 40.00 168.05 L 40.00 169.18 L 40.00 170.31 L 40.00 171.44 L 40.00 172.57 L 40.00 173.69 L 40.00 174.82 L 40.00 175.95 L 40.00 177.08 L 40.00 178.21 L 40.00 179.34 L 40.00 180.46 L 40.00 181.59 L 40.00 182.72 L 40.00 183.85 L 40.00 184.98 L 40.00 186.11 L 40.00 187.24 L 40.00 188.36 L 40.00 189.49 L 40.00 190.62 L 40.00 191.75 L 40.00 192.88 L 40.00 194.01 L 40.00 195.13 L 40.00 196.26 L 40.00 197.39 L 40.00 198.52 L 40.00 199.65 L 40.00 200.78 L 40.00 201.91 L 40.00 203.03 L 40.00 204.16 L 40.00 205.29 L 40.00 206.42 L 40.00 207.55 L 40.00 208.68 L 40.00 209.80 L 40.00 210.93 L 40.00 212.06"/>
<path d="M 40.00 156.77 L 40.02 156.77 L 40.04 156.77 L 40.06 156.77 L 40.09 156.77 L 40.11 156.77 L 40.13 156.77 L 40.15 156.77 L 40.17 156.77 L 40.19 156.77 L 40.21 156.77 L 40.24 156.77 L 40.26 156.77 L 40.28 156.77 L 40.30 156.77 L 40.32 156.77 L 40.34 156.77 L 40.36 156.77 L 40.38 156.77 L 40.41 156.77 L 40.43 156.77 L 40.45 156.77 L 40.47 156.77 L 40.49 156.77 L 40.51 156.77 L 40.53 156.77 L 40.56 156.77 L 40.58 156.77 L 40.60 156.77 L 40.62 156.77 L 40.64 156.77 L 40.66 156.77 L 40.68 156.77 L 40.71 156.77 L 40.73 156.77 L 40.75 156.77 L 40.77 156.77 L 40.79 156.77 L 40.81 156.77 L 40.83 156.77 L 40.86 156.77 L 40.88 156.77 L 40.90 156.77 L 40.92 156.77 L 40.94 156.77 L 40.96 156.77 L 40.98 156.77 L 41.01 156.77 L 41.03 156.77 L 41.05 156.77"/>
<path d="M 41.05 156.77 L 41.05 157.90 L 41.05 159.02 L 41.05 160.15 L 41.05 161.28 L 41.05 162.41 L 41.05 163.54 L 41.05 164.67 L 41.05 165.79 L 41.05 166.92 L 41.05 168.05 L 41.05 169.18 L 41.05 170.31 L 41.05 171.44 L 41.05 172.57 L 41.05 173.69 L 41.05 174.82 L 41.05 175.95 L 41.05 177.08 L 41.05 178.21 L 41.05 179.34 L 41.05 180.46 L 41.05 181.59 L 41.05 182.72 L 41.05 183.85 L 41.05 184.98 L 41.05 186.11 L 41.05 187.24 L 41.05 188.36 L 41.05 189.49 L 41.05 190.62 L 41.05 191.75 L 41.05 192.88 L 41.05 194.01 L 41.05 195.13 L 41.05 196.26 L 41.05 197.39 L 41.05 198.52 L 41.05 199.65 L 41.05 200.78 L 41.05 201.91 L 41.05 203.03 L 41.05 204.16 L 41.05 205.29 L 41.05 206.42 L 41.05 207.55 L 41.05 208.68 L 41.05 209.80 L 41.05 210.93 L 41.05 212.06"/>
<path d="M 67.24 182.45 L 67.49 182.47 L 67.74 182.51 L 67.98 182.59 L 68.21 182.70 L 68.42 182.84 L 68.61 183.00 L 68.78 183.19 L 68.92 183.40 L 69.04 183.62 L 69.13 183.86 L 69.18 184.10 L 69.21 184.35 L 69.20 184.60 L 69.16 184.85 L 69.09 185.09 L 68.98 185.32 L 68.85 185.54 L 68.70 185.73 L 68.52 185.91 L 68.31 186.06 L 68.10 186.18 L 67.86 186.28 L 67.62 186.34 L 67.37 186.37 L 67.12 186.37 L 66.87 186.34 L 66.62 186.28 L 66.39 186.18 L 66.17 186.06 L 65.97 185.91 L 65.79 185.73 L 65.63 185.54 L 65.50 185.32 L 65.40 185.09 L 65.33 184.85 L 65.29 184.60 L 65.28 184.35 L 65.30 184.10 L 65.36 183.86 L 65.45 183.62 L 65.56 183.40 L 65.71 183.19 L 65.88 183.00 L 66.07 182.84 L 66.28 182.70 L 66.51 182.59 L 66.74 182.51 L 66.99 182.47 L 67.24 182.45"/>
</g>
<g fill="none" stroke="#141414" stroke-width="1.0">
<path d="M 41.05 270.86 L 56.98 276.70 L 73.59 280.22 L 90.45 282.33 L 107.36 283.93 L 124.26 285.63 L 141.11 287.80 L 157.88 290.54 L 174.55 293.82 L 191.14 297.46 L 207.71 301.24 L 224.29 304.93 L 240.94 308.29 L 257.69 311.14 L 274.53 313.39 L 291.43 315.13 L 308.35 316.64 L 325.24 318.46 L 342.06 320.88 L 358.85 323.43 L 375.69 325.71 L 392.59 327.47 L 409.54 328.54 L 426.53 328.83 L 443.51 328.35 L 460.45 327.17 L 477.35 325.40 L 494.19 323.14 L 510.97 320.51 L 527.70 317.57 L 544.38 314.33 L 560.99 310.75 L 577.49 306.69 L 593.78 301.90 L 609.74 296.09 L 625.42 289.54 L 641.01 282.78 L 656.61 276.05 L 672.25 269.42 L 687.89 262.79 L 703.47 256.02 L 718.92 248.95 L 734.17 241.46 L 749.21 233.56 L 764.13 225.44 L 779.09 217.38 L 794.09 209.41 L 809.23 201.70 L 824.62 194.51 L 840.00 187.30"/>
<path d="M 41.05 270.86 L 41.05 270.84 L 41.05 270.82 L 41.05 270.79 L 41.05 270.77 L 41.05 270.75 L 41.05 270.73 L 41.05 270.71 L 41.05 270.69 L 41.05 270.67 L 41.05 270.64 L 41.05 270.62 L 41.05 270.60 L 41.05 270.58 L 41.05 270.56 L 41.05 270.54 L 41.05 270.52 L 41.05 270.49 L 41.05 270.47 L 41.05 270.45 L 41.05 270.43 L 41.05 270.41 L 41.05 270.39 L 41.05 270.37 L 41.05 270.34 L 41.05 270.32 L 41.05 270.30 L 41.05 270.28 L 41.05 270.26 L 41.05 270.24 L 41.05 270.22 L 41.05 270.20 L 41.05 270.17 L 41.05 270.15 L 41.05 270.13 L 41.05 270.11 L 41.05 270.09 L 41.05 270.07 L 41.05 270.05 L 41.05 270.02 L 41.05 270.00 L 41.05 269.98 L 41.05 269.96 L 41.05 269.94 L 41.05 269.92 L 41.05 269.90 L 41.05 269.87 L 41.05 269.85 L 41.05 269.83 L 41.05 269.81"/>
<path d="M 41.05 269.81 L 56.98 275.65 L 73.59 279.17 L 90.45 281.28 L 107.36 282.88 L 124.26 284.58 L 141.11 286.75 L 157.88 289.50 L 174.55 292.77 L 191.14 296.41 L 207.71 300.20 L 224.29 303.88 L 240.94 307.24 L 257.69 310.09 L 274.53 312.34 L 291.43 314.08 L 308.35 315.59 L 325.24 317.42 L 342.06 319.83 L 358.85 322.38 L 375.69 324.67 L 392.59 326.43 L 409.54 327.49 L 426.53 327.78 L 443.51 327.30 L 460.45 326.12 L 477.35 324.35 L 494.19 322.09 L 510.97 319.46 L 527.70 316.52 L 544.38 313.28 L 560.99 309.71 L 577.49 305.64 L 593.78 300.85 L 609.74 295.04 L 625.42 288.49 L 641.01 281.73 L 656.61 275.00 L 672.25 268.37 L 687.89 261.75 L 703.47 254.98 L 718.92 247.90 L 734.17 240.41 L 749.21 232.52 L 764.13 224.39 L 779.09 216.34 L 794.09 208.36 L 809.23 200.65 L 824.62 193.47 L 840.00 186.25"/>
<path d="M 840.00 186.25 L 840.00 186.27 L 840.00 186.29 L 840.00 186.31 L 840.00 186.33 L 840.00 186.35 L 840.00 186.38 L 840.00 186.40 L 840.00 186.42 L 840.00 186.44 L 840.00 186.46 L 840.00 186.48 L 840.00 186.50 L 840.00 186.53 L 840.00 186.55 L 840.00 186.57 L 840.00 186.59 L 840.00 186.61 L 840.00 186.63 L 840.00 186.65 L 840.00 186.68 L 840.00 186.70 L 840.00 186.72 L 840.00 186.74 L 840.00 186.76 L 840.00 186.78 L 840.00 186.80 L 840.00 186.82 L 840.00 186.85 L 840.00 186.87 L 840.00 186.89 L 840.00 186.91 L 840.00 186.93 L 840.00 186.95 L 840.00 186.97 L 840.00 187.00 L 840.00 187.02 L 840.00 187.04 L 840.00 187.06 L 840.00 187.08 L 840.00 187.10 L 840.00 187.12 L 840.00 187.15 L 840.00 187.17 L 840.00 187.19 L 840.00 187.21 L 840.00 187.23 L 840.00 187.25 L 840.00 187.27 L 840.00 187.30"/>
<path d="M 41.05 99.02 L 41.05 99.00 L 41.05 98.98 L 41.05 98.95 L 41.05 98.93 L 41.05 98.91 L 41.05 98.89 L 41.05 98.87 L 41.05 98.85 L 41.05 98.83 L 41.05 98.80 L 41.05 98.78 L 41.05 98.76 L 41.05 98.74 L 41.05 98.72 L 41.05 98.70 L 41.05 98.68 L 41.05 98.65 L 41.05 98.63 L 41.05 98.61 L 41.05 98.59 L 41.05 98.57 L 41.05 98.55 L 41.05 98.53 L 41.05 98.50 L 41.05 98.48 L 41.05 98.46 L 41.05 98.44 L 41.05 98.42 L 41.05 98.40 L 41.05 98.38 L 41.05 98.35 L 41.05 98.33 L 41.05 98.31 L 41.05 98.29 L 41.05 98.27 L 41.05 98.25 L 41.05 98.23 L 41.05 98.21 L 41.05 98.18 L 41.05 98.16 L 41.05 98.14 L 41.05 98.12 L 41.05 98.10 L 41.05 98.08 L 41.05 98.06 L 41.05 98.03 L 41.05 98.01 L 41.05 97.99 L 41.05 97.97"/>
<path d="M 41.05 97.97 L 56.98 92.13 L 73.59 88.61 L 90.45 86.50 L 107.36 84.90 L 124.26 83.20 L 141.11 81.03 L 157.88 78.28 L 174.55 75.01 L 191.14 71.37 L 207.71 67.58 L 224.29 63.90 L 240.94 60.54 L 257.69 57.69 L 274.53 55.44 L 291.43 53.70 L 308.35 52.19 L 325.24 50.36 L 342.06 47.95 L 358.85 45.40 L 375.69 43.11 L 392.59 41.35 L 409.54 40.29 L 426.53 40.00 L 443.51 40.48 L 460.45 41.66 L 477.35 43.43 L 494.19 45.69 L 510.97 48.32 L 527.70 51.26 L 544.38 54.50 L 560.99 58.07 L 577.49 62.14 L 593.78 66.93 L 609.74 72.74 L 625.42 79.29 L 641.01 86.05 L 656.61 92.78 L 672.25 99.41 L 687.89 106.03 L 703.47 112.80 L 718.92 119.88 L 734.17 127.37 L 749.21 135.27 L 764.13 143.39 L 779.09 151.44 L 794.09 159.42 L 809.23 167.13 L 824.62 174.31 L 840.00 181.53"/>
<path d="M 840.00 181.53 L 840.00 181.55 L 840.00 181.58 L 840.00 181.60 L 840.00 181.62 L 840.00 181.64 L 840.00 181.66 L 840.00 181.68 L 840.00 181.70 L 840.00 181.73 L 840.00 181.75 L 840.00 181.77 L 840.00 181.79 L 840.00 181.81 L 840.00 181.83 L 840.00 181.85 L 840.00 181.88 L 840.00 181.90 L 840.00 181.92 L 840.00 181.94 L 840.00 181.96 L 840.00 181.98 L 840.00 182.00 L 840.00 182.02 L 840.00 182.05 L 840.00 182.07 L 840.00 182.09 L 840.00 182.11 L 840.00 182.13 L 840.00 182.15 L 840.00 182.17 L 840.00 182.20 L 840.00 182.22 L 840.00 182.24 L 840.00 182.26 L 840.00 182.28 L 840.00 182.30 L 840.00 182.32 L 840.00 182.35 L 840.00 182.37 L 840.00 182.39 L 840.00 182.41 L 840.00 182.43 L 840.00 182.45 L 840.00 182.47 L 840.00 182.50 L 840.00 182.52 L 840.00 182.54 L 840.00 182.56 L 840.00 182.58"/>
<path d="M 41.05 99.02 L 56.98 93.18 L 73.59 89.66 L 90.45 87.55 L 107.36 85.95 L 124.26 84.25 L 141.11 82.08 L 157.88 79.33 L 174.55 76.06 L 191.14 72.42 L 207.71 68.63 L 224.29 64.95 L 240.94 61.59 L 257.69 58.74 L 274.53 56.48 L 291.43 54.75 L 308.35 53.24 L 325.24 51.41 L 342.06 49.00 L 358.85 46.45 L 375.69 44.16 L 392.59 42.40 L 409.54 41.34 L 426.53 41.05 L 443.51 41.53 L 460.45 42.70 L 477.35 44.48 L 494.19 46.73 L 510.97 49.37 L 527.70 52.31 L 544.38 55.54 L 560.99 59.12 L 577.49 63.18 L 593.78 67.97 L 609.74 73.79 L 625.42 80.33 L 641.01 87.10 L 656.61 93.82 L 672.25 100.46 L 687.89 107.08 L 703.47 113.85 L 718.92 120.93 L 734.17 128.42 L 749.21 136.31 L 764.13 144.44 L 779.09 152.49 L 794.09 160.47 L 809.23 168.18 L 824.62 175.36 L 840.00 182.58"/>
<path d="M 40.00 270.86 L 40.02 270.86 L 40.04 270.86 L 40.06 270.86 L 40.09 270.86 L 40.11 270.86 L 40.13 270.86 L 40.15 270.86 L 40.17 270.86 L 40.19 270.86 L 40.21 270.86 L 40.24 270.86 L 40.26 270.86 L 40.28 270.86 L 40.30 270.86 L 40.32 270.86 L 40.34 270.86 L 40.36 270.86 L 40.38 270.86 L 40.41 270.86 L 40.43 270.86 L 40.45 270.86 L 40.47 270.86 L 40.49 270.86 L 40.51 270.86 L 40.53 270.86 L 40.56 270.86 L 40.58 270.86 L 40.60 270.86 L 40.62 270.86 L 40.64 270.86 L 40.66 270.86 L 40.68 270.86 L 40.71 270.86 L 40.73 270.86 L 40.75 270.86 L 40.77 270.86 L 40.79 270.86 L 40.81 270.86 L 40.83 270.86 L 40.86 270.86 L 40.88 270.86 L 40.90 270.86 L 40.92 270.86 L 40.94 270.86 L 40.96 270.86 L 40.98 270.86 L 41.01 270.86 L 41.03 270.86 L 41.05 270.86"/>
<path d="M 40.00 97.97 L 40.00 101.50 L 40.00 105.03 L 40.00 108.55 L 40.00 112.08 L 40.00 115.61 L 40.00 119.14 L 40.00 122.67 L 40.00 126.20 L 40.00 129.72 L 40.00 133.25 L 40.00 136.78 L 40.00 140.31 L 40.00 143.84 L 40.00 147.37 L 40.00 150.89 L 40.00 154.42 L 40.00 157.95 L 40.00 161.48 L 40.00 165.01 L 40.00 168.54 L 40.00 172.06 L 40.00 175.59 L 40.00 179.12 L 40.00 182.65 L 40.00 186.18 L 40.00 189.71 L 40.00 193.23 L 40.00 196.76 L 40.00 200.29 L 40.00 203.82 L 40.00 207.35 L 40.00 210.88 L 40.00 214.40 L 40.00 217.93 L 40.00 221.46 L 40.00 224.99 L 40.00 228.52 L 40.00 232.05 L 40.00 235.57 L 40.00 239.10 L 40.00 242.63 L 40.00 246.16 L 40.00 249.69 L 40.00 253.22 L 40.00 256.74 L 40.00 260.27 L 40.00 263.80 L 40.00 267.33 L 40.00 270.86"/>
<path d="M 40.00 97.97 L 40.02 97.97 L 40.04 97.97 L 40.06 97.97 L 40.09 97.97 L 40.11 97.97 L 40.13 97.97 L 40.15 97.97 L 40.17 97.97 L 40.19 97.97 L 40.21 97.97 L 40.24 97.97 L 40.26 97.97 L 40.28 97.97 L 40.30 97.97 L 40.32 97.97 L 40.34 97.97 L 40.36 97.97 L 40.38 97.97 L 40.41 97.97 L 40.43 97.97 L 40.45 97.97 L 40.47 97.97 L 40.49 97.97 L 40.51 97.97 L 40.53 97.97 L 40.56 97.97 L 40.58 97.97 L 40.60 97.97 L 40.62 97.97 L 40.64 97.97 L 40.66 97.97 L 40.68 97.97 L 40.71 97.97 L 40.73 97.97 L 40.75 97.97 L 40.77 97.97 L 40.79 97.97 L 40.81 97.97 L 40.83 97.97 L 40.86 97.97 L 40.88 97.97 L 40.90 97.97 L 40.92 97.97 L 40.94 97.97 L 40.96 97.97 L 40.98 97.97 L 41.01 97.97 L 41.03 97.97 L 41.05 97.97"/>
<path d="M 41.05 97.97 L 41.05 101.50 L 41.05 105.03 L 41.05 108.55 L 41.05 112.08 L 41.05 115.61 L 41.05 119.14 L 41.05 122.67 L 41.05 126.20 L 41.05 129.72 L 41.05 133.25 L 41.05 136.78 L 41.05 140.31 L 41.05 143.84 L 41.05 147.37 L 41.05 150.89 L 41.05 154.42 L 41.05 157.95 L 41.05 161.48 L 41.05 165.01 L 41.05 168.54 L 41.05 172.06 L 41.05 175.59 L 41.05 179.12 L 41.05 182.65 L 41.05 186.18 L 41.05 189.71 L 41.05 193.23 L 41.05 196.76 L 41.05 200.29 L 41.05 203.82 L 41.05 207.35 L 41.05 210.88 L 41.05 214.40 L 41.05 217.93 L 41.05 221.46 L 41.05 224.99 L 41.05 228.52 L 41.05 232.05 L 41.05 235.57 L 41.05 239.10 L 41.05 242.63 L 41.05 246.16 L 41.05 249.69 L 41.05 253.22 L 41.05 256.74 L 41.05 260.27 L 41.05 263.80 L 41.05 267.33 L 41.05 270.86"/>
<path d="M 67.24 182.45 L 67.49 182.47 L 67.74 182.51 L 67.98 182.59 L 68.21 182.70 L 68.42 182.84 L 68.61 183.00 L 68.78 183.19 L 68.92 183.40 L 69.04 183.62 L 69.13 183.86 L 69.18 184.10 L 69.21 184.35 L 69.20 184.60 L 69.16 184.85 L 69.09 185.09 L 68.98 185.32 L 68.85 185.54 L 68.70 185.73 L 68.52 185.91 L 68.31 186.06 L 68.10 186.18 L 67.86 186.28 L 67.62 186.34 L 67.37 186.37 L 67.12 186.37 L 66.87 186.34 L 66.62 186.28 L 66.39 186.18 L 66.17 186.06 L 65.97 185.91 L 65.79 185.73 L 65.63 185.54 L 65.50 185.32 L 65.40 185.09 L 65.33 184.85 L 65.29 184.60 L 65.28 184.35 L 65.30 184.10 L 65.36 183.86 L 65.45 183.62 L 65.56 183.40 L 65.71 183.19 L 65.88 183.00 L 66.07 182.84 L 66.28 182.70 L 66.51 182.59 L 66.74 182.51 L 66.99 182.47 L 67.24 182.45"/>
</g>
<g stroke="black" stroke-width="1" fill="black">
<line x1="40.0" y1="383.8" x2="171.0" y2="383.8"/>
<line x1="40.0" y1="378.8" x2="40.0" y2="388.8"/>
<line x1="171.0" y1="378.8" x2="171.0" y2="388.8"/>
<text x="105.5" y="375.8" text-anchor="middle" font-family="sans-serif" font-size="10">1 m</text>
</g>
</svg>