<?xml version="1.0" encoding="UTF-8"?>
<svg xmlns="http://www.w3.org/2000/svg" version="1.1" width="880.0" height="451.2" viewBox="0 0 880.0 451.2">
<g fill="none" stroke="black" stroke-width="1.0">
<path d="M 836.85 42.95 L 836.92 42.95 L 836.98 42.95 L 837.04 42.95 L 837.11 42.95 L 837.17 42.95 L 837.24 42.95 L 837.30 42.95 L 837.37 42.95 L 837.43 42.95 L 837.49 42.95 L 837.56 42.95 L 837.62 42.95 L 837.69 42.95 L 837.75 42.95 L 837.82 42.95 L 837.88 42.95 L 837.94 42.95 L 838.01 42.95 L 838.07 42.95 L 838.14 42.95 L 838.20 42.95 L 838.26 42.95 L 838.33 42.95 L 838.39 42.95 L 838.46 42.95 L 838.52 42.95 L 838.59 42.95 L 838.65 42.95 L 838.71 42.95 L 838.78 42.95 L 838.84 42.95 L 838.91 42.95 L 838.97 42.95 L 839.04 42.95 L 839.10 42.95 L 839.16 42.95 L 839.23 42.95 L 839.29 42.95 L 839.36 42.95 L 839.42 42.95 L 839.49 42.95 L 839.55 42.95 L 839.61 42.95 L 839.68 42.95 L 839.74 42.95 L 839.81 42.95 L 839.87 42.95 L 839.93 42.95 L 840.00 42.95"/>
<path d="M 840.00 42.95 L 837.93 65.07 L 831.95 86.47 L 822.80 106.73 L 811.18 125.69 L 797.75 143.42 L 782.98 160.05 L 767.19 175.73 L 750.64 190.59 L 733.50 204.77 L 715.88 218.36 L 697.88 231.44 L 679.59 244.10 L 661.05 256.40 L 642.29 268.36 L 623.34 280.01 L 604.26 291.46 L 585.15 302.85 L 565.96 314.12 L 546.51 324.91 L 526.70 335.03 L 507.06 345.49 L 488.37 357.54 L 470.39 370.65 L 450.90 381.23 L 429.10 381.23 L 409.61 370.65 L 391.63 357.54 L 372.94 345.49 L 353.30 335.03 L 333.49 324.91 L 314.04 314.12 L 294.85 302.85 L 275.74 291.46 L 256.66 280.01 L 237.71 268.36 L 218.95 256.40 L 200.41 244.10 L 182.12 231.44 L 164.12 218.36 L 146.50 204.77 L 129.36 190.59 L 112.81 175.73 L 97.02 160.05 L 82.25 143.42 L 68.82 125.69 L 57.20 106.73 L 48.05 86.47 L 42.07 65.07 L 40.00 42.95"/>
<path d="M 40.00 42.95 L 40.07 42.95 L 40.13 42.95 L 40.19 42.95 L 40.26 42.95 L 40.32 42.95 L 40.39 42.95 L 40.45 42.95 L 40.51 42.95 L 40.58 42.95 L 40.64 42.95 L 40.71 42.95 L 40.77 42.95 L 40.84 42.95 L 40.90 42.95 L 40.96 42.95 L 41.03 42.95 L 41.09 42.95 L 41.16 42.95 L 41.22 42.95 L 41.29 42.95 L 41.35 42.95 L 41.41 42.95 L 41.48 42.95 L 41.54 42.95 L 41.61 42.95 L 41.67 42.95 L 41.74 42.95 L 41.80 42.95 L 41.86 42.95 L 41.93 42.95 L 41.99 42.95 L 42.06 42.95 L 42.12 42.95 L 42.18 42.95 L 42.25 42.95 L 42.31 42.95 L 42.38 42.95 L 42.44 42.95 L 42.51 42.95 L 42.57 42.95 L 42.63 42.95 L 42.70 42.95 L 42.76 42.95 L 42.83 42.95 L 42.89 42.95 L 42.96 42.95 L 43.02 42.95 L 43.08 42.95 L 43.15 42.95"/>
<path d="M 836.85 42.95 L 834.79 64.88 L 828.85 86.10 L 819.76 106.18 L 808.23 124.98 L 794.90 142.54 L 780.23 159.02 L 764.57 174.55 L 748.15 189.27 L 731.13 203.32 L 713.65 216.77 L 695.80 229.73 L 677.65 242.27 L 659.26 254.46 L 640.65 266.30 L 621.85 277.84 L 602.93 289.19 L 583.97 300.47 L 564.94 311.62 L 545.64 322.32 L 525.99 332.34 L 506.52 342.70 L 487.98 354.64 L 470.15 367.62 L 450.81 378.10 L 429.19 378.10 L 409.85 367.62 L 392.02 354.64 L 373.48 342.70 L 354.01 332.34 L 334.36 322.32 L 315.06 311.62 L 296.03 300.47 L 277.07 289.19 L 258.15 277.84 L 239.35 266.30 L 220.74 254.46 L 202.35 242.27 L 184.20 229.73 L 166.35 216.77 L 148.87 203.32 L 131.85 189.27 L 115.43 174.55 L 99.77 159.02 L 85.10 142.54 L 71.77 124.98 L 60.24 106.18 L 51.15 86.10 L 45.21 64.88 L 43.15 42.95"/>
<path d="M 40.00 40.00 L 40.00 40.06 L 40.00 40.13 L 40.00 40.19 L 40.00 40.26 L 40.00 40.32 L 40.00 40.39 L 40.00 40.45 L 40.00 40.51 L 40.00 40.58 L 40.00 40.64 L 40.00 40.71 L 40.00 40.77 L 40.00 40.84 L 40.00 40.90 L 40.00 40.96 L 40.00 41.03 L 40.00 41.09 L 40.00 41.16 L 40.00 41.22 L 40.00 41.28 L 40.00 41.35 L 40.00 41.41 L 40.00 41.48 L 40.00 41.54 L 40.00 41.61 L 40.00 41.67 L 40.00 41.73 L 40.00 41.80 L 40.00 41.86 L 40.00 41.93 L 40.00 41.99 L 40.00 42.06 L 40.00 42.12 L 40.00 42.18 L 40.00 42.25 L 40.00 42.31 L 40.00 42.38 L 40.00 42.44 L 40.00 42.51 L 40.00 42.57 L 40.00 42.63 L 40.00 42.70 L 40.00 42.76 L 40.00 42.83 L 40.00 42.89 L 40.00 42.95 L 40.00 43.02 L 40.00 43.08 L 40.00 43.15"/>
<path d="M 840.00 40.00 L 823.67 40.00 L 807.35 40.00 L 791.02 40.00 L 774.69 40.00 L 758.37 40.00 L 742.04 40.00 L 725.71 40.00 L 709.39 40.00 L 693.06 40.00 L 676.73 40.00 L 660.41 40.00 L 644.08 40.00 L 627.76 40.00 L 611.43 40.00 L 595.10 40.00 L 578.78 40.00 L 562.45 40.00 L 546.12 40.00 L 529.80 40.00 L 513.47 40.00 L 497.14 40.00 L 480.82 40.00 L 464.49 40.00 L 448.16 40.00 L 431.84 40.00 L 415.51 40.00 L 399.18 40.00 L 382.86 40.00 L 366.53 40.00 L 350.20 40.00 L 333.88 40.00 L 317.55 40.00 L 301.22 40.00 L 284.90 40.00 L 268.57 40.00 L 252.24 40.00 L 235.92 40.00 L 219.59 40.00 L 203.27 40.00 L 186.94 40.00 L 170.61 40.00 L 154.29 40.00 L 137.96 40.00 L 121.63 40.00 L 105.31 40.00 L 88.98 40.00 L 72.65 40.00 L 56.33 40.00 L 40.00 40.00"/>
<path d="M 840.00 40.00 L 840.00 40.06 L 840.00 40.13 L 840.00 40.19 L 840.00 40.26 L 840.00 40.32 L 840.00 40.39 L 840.00 40.45 L 840.00 40.51 L 840.00 40.58 L 840.00 40.64 L 840.00 40.71 L 840.00 40.77 L 840.00 40.84 L 840.00 40.90 L 840.00 40.96 L 840.00 41.03 L 840.00 41.09 L 840.00 41.16 L 840.00 41.22 L 840.00 41.28 L 840.00 41.35 L 840.00 41.41 L 840.00 41.48 L 840.00 41.54 L 840.00 41.61 L 840.00 41.67 L 840.00 41.73 L 840.00 41.80 L 840.00 41.86 L 840.00 41.93 L 840.00 41.99 L 840.00 42.06 L 840.00 42.12 L 840.00 42.18 L 840.00 42.25 L 840.00 42.31 L 840.00 42.38 L 840.00 42.44 L 840.00 42.51 L 840.00 42.57 L 840.00 42.63 L 840.00 42.70 L 840.00 42.76 L 840.00 42.83 L 840.00 42.89 L 840.00 42.95 L 840.00 43.02 L 840.00 43.08 L 840.00 43.15"/>
<path d="M 840.00 43.15 L 823.67 43.15 L 807.35 43.15 L 791.02 43.15 L 774.69 43.15 L 758.37 43.15 L 742.04 43.15 L 725.71 43.15 L 709.39 43.15 L 693.06 43.15 L 676.73 43.15 L 660.41 43.15 L 644.08 43.15 L 627.76 43.15 L 611.43 43.15 L 595.10 43.15 L 578.78 43.15 L 562.45 43.15 L 546.12 43.15 L 529.80 43.15 L 513.47 43.15 L 497.14 43.15 L 480.82 43.15 L 464.49 43.15 L 448.16 43.15 L 431.84 43.15 L 415.51 43.15 L 399.18 43.15 L 382.86 43.15 L 366.53 43.15 L 350.20 43.15 L 333.88 43.15 L 317.55 43.15 L 301.22 43.15 L 284.90 43.15 L 268.57 43.15 L 252.24 43.15 L 235.92 43.15 L 219.59 43.15 L 203.27 43.15 L 186.94 43.15 L 170.61 43.15 L 154.29 43.15 L 137.96 43.15 L 121.63 43.15 L 105.31 43.15 L 88.98 43.15 L 72.65 43.15 L 56.33 43.15 L 40.00 43.15"/>
</g>
<g stroke="black" stroke-width="1" fill="black">
<line x1="40.0" y1="436.2" x2="236.7" y2="436.2"/>
<line x1="40.0" y1="431.2" x2="40.0" y2="441.2"/>
<line x1="236.7" y1="431.2" x2="236.7" y2="441.2"/>
<text x="138.4" y="428.2" text-anchor="middle" font-family="sans-serif" font-size="10">0.5 m</text>
</g>
</svg>