<?xml version="1.0" encoding="UTF-8"?>
<svg xmlns="http://www.w3.org/2000/svg" version="1.1" width="880.0" height="474.8" viewBox="0 0 880.0 474.8">
<g fill="none" stroke="black" stroke-width="1.0">
<path d="M 836.23 43.54 L 836.30 43.54 L 836.38 43.54 L 836.46 43.54 L 836.53 43.54 L 836.61 43.54 L 836.69 43.54 L 836.76 43.54 L 836.84 43.54 L 836.92 43.54 L 837.00 43.54 L 837.07 43.54 L 837.15 43.54 L 837.23 43.54 L 837.30 43.54 L 837.38 43.54 L 837.46 43.54 L 837.53 43.54 L 837.61 43.54 L 837.69 43.54 L 837.77 43.54 L 837.84 43.54 L 837.92 43.54 L 838.00 43.54 L 838.07 43.54 L 838.15 43.54 L 838.23 43.54 L 838.30 43.54 L 838.38 43.54 L 838.46 43.54 L 838.54 43.54 L 838.61 43.54 L 838.69 43.54 L 838.77 43.54 L 838.84 43.54 L 838.92 43.54 L 839.00 43.54 L 839.07 43.54 L 839.15 43.54 L 839.23 43.54 L 839.31 43.54 L 839.38 43.54 L 839.46 43.54 L 839.54 43.54 L 839.61 43.54 L 839.69 43.54 L 839.77 43.54 L 839.85 43.54 L 839.92 43.54 L 840.00 43.54"/>
<path d="M 840.00 43.54 L 838.08 66.32 L 832.46 88.50 L 823.79 109.67 L 812.63 129.65 L 799.59 148.46 L 785.12 166.20 L 769.56 182.98 L 753.15 198.95 L 736.08 214.20 L 718.48 228.84 L 700.45 242.96 L 682.08 256.62 L 663.44 269.91 L 644.54 282.84 L 625.43 295.44 L 606.17 307.82 L 586.86 320.12 L 567.47 332.31 L 547.81 344.03 L 527.73 355.03 L 507.81 366.31 L 488.91 379.22 L 470.86 393.30 L 451.18 404.84 L 428.82 404.84 L 409.14 393.30 L 391.09 379.22 L 372.19 366.31 L 352.27 355.03 L 332.19 344.03 L 312.53 332.31 L 293.14 320.12 L 273.83 307.82 L 254.57 295.44 L 235.46 282.84 L 216.56 269.91 L 197.92 256.62 L 179.55 242.96 L 161.52 228.84 L 143.92 214.20 L 126.85 198.95 L 110.44 182.98 L 94.88 166.20 L 80.41 148.46 L 67.37 129.65 L 56.21 109.67 L 47.54 88.50 L 41.92 66.32 L 40.00 43.54"/>
<path d="M 40.00 43.54 L 40.08 43.54 L 40.15 43.54 L 40.23 43.54 L 40.31 43.54 L 40.39 43.54 L 40.46 43.54 L 40.54 43.54 L 40.62 43.54 L 40.69 43.54 L 40.77 43.54 L 40.85 43.54 L 40.93 43.54 L 41.00 43.54 L 41.08 43.54 L 41.16 43.54 L 41.23 43.54 L 41.31 43.54 L 41.39 43.54 L 41.46 43.54 L 41.54 43.54 L 41.62 43.54 L 41.70 43.54 L 41.77 43.54 L 41.85 43.54 L 41.93 43.54 L 42.00 43.54 L 42.08 43.54 L 42.16 43.54 L 42.23 43.54 L 42.31 43.54 L 42.39 43.54 L 42.47 43.54 L 42.54 43.54 L 42.62 43.54 L 42.70 43.54 L 42.77 43.54 L 42.85 43.54 L 42.93 43.54 L 43.00 43.54 L 43.08 43.54 L 43.16 43.54 L 43.24 43.54 L 43.31 43.54 L 43.39 43.54 L 43.47 43.54 L 43.54 43.54 L 43.62 43.54 L 43.70 43.54 L 43.77 43.54"/>
<path d="M 836.23 43.54 L 834.32 66.10 L 828.75 88.05 L 820.15 109.01 L 809.10 128.79 L 796.18 147.40 L 781.84 164.96 L 766.42 181.57 L 750.16 197.37 L 733.25 212.46 L 715.81 226.95 L 697.96 240.91 L 679.76 254.44 L 661.29 267.58 L 642.58 280.38 L 623.65 292.85 L 604.57 305.09 L 585.45 317.27 L 566.25 329.32 L 546.77 340.92 L 526.89 351.80 L 507.16 362.96 L 488.45 375.74 L 470.56 389.67 L 451.07 401.09 L 428.93 401.09 L 409.44 389.67 L 391.55 375.74 L 372.84 362.96 L 353.11 351.80 L 333.23 340.92 L 313.75 329.32 L 294.55 317.27 L 275.43 305.09 L 256.35 292.85 L 237.42 280.38 L 218.71 267.58 L 200.24 254.44 L 182.04 240.91 L 164.19 226.95 L 146.75 212.46 L 129.84 197.37 L 113.58 181.57 L 98.16 164.96 L 83.82 147.40 L 70.90 128.79 L 59.85 109.01 L 51.25 88.05 L 45.68 66.10 L 43.77 43.54"/>
<path d="M 40.00 40.00 L 40.00 40.08 L 40.00 40.15 L 40.00 40.23 L 40.00 40.31 L 40.00 40.39 L 40.00 40.46 L 40.00 40.54 L 40.00 40.62 L 40.00 40.69 L 40.00 40.77 L 40.00 40.85 L 40.00 40.92 L 40.00 41.00 L 40.00 41.08 L 40.00 41.16 L 40.00 41.23 L 40.00 41.31 L 40.00 41.39 L 40.00 41.46 L 40.00 41.54 L 40.00 41.62 L 40.00 41.69 L 40.00 41.77 L 40.00 41.85 L 40.00 41.93 L 40.00 42.00 L 40.00 42.08 L 40.00 42.16 L 40.00 42.23 L 40.00 42.31 L 40.00 42.39 L 40.00 42.46 L 40.00 42.54 L 40.00 42.62 L 40.00 42.70 L 40.00 42.77 L 40.00 42.85 L 40.00 42.93 L 40.00 43.00 L 40.00 43.08 L 40.00 43.16 L 40.00 43.23 L 40.00 43.31 L 40.00 43.39 L 40.00 43.47 L 40.00 43.54 L 40.00 43.62 L 40.00 43.70 L 40.00 43.77"/>
<path d="M 840.00 40.00 L 823.67 40.00 L 807.35 40.00 L 791.02 40.00 L 774.69 40.00 L 758.37 40.00 L 742.04 40.00 L 725.71 40.00 L 709.39 40.00 L 693.06 40.00 L 676.73 40.00 L 660.41 40.00 L 644.08 40.00 L 627.76 40.00 L 611.43 40.00 L 595.10 40.00 L 578.78 40.00 L 562.45 40.00 L 546.12 40.00 L 529.80 40.00 L 513.47 40.00 L 497.14 40.00 L 480.82 40.00 L 464.49 40.00 L 448.16 40.00 L 431.84 40.00 L 415.51 40.00 L 399.18 40.00 L 382.86 40.00 L 366.53 40.00 L 350.20 40.00 L 333.88 40.00 L 317.55 40.00 L 301.22 40.00 L 284.90 40.00 L 268.57 40.00 L 252.24 40.00 L 235.92 40.00 L 219.59 40.00 L 203.27 40.00 L 186.94 40.00 L 170.61 40.00 L 154.29 40.00 L 137.96 40.00 L 121.63 40.00 L 105.31 40.00 L 88.98 40.00 L 72.65 40.00 L 56.33 40.00 L 40.00 40.00"/>
<path d="M 840.00 40.00 L 840.00 40.08 L 840.00 40.15 L 840.00 40.23 L 840.00 40.31 L 840.00 40.39 L 840.00 40.46 L 840.00 40.54 L 840.00 40.62 L 840.00 40.69 L 840.00 40.77 L 840.00 40.85 L 840.00 40.92 L 840.00 41.00 L 840.00 41.08 L 840.00 41.16 L 840.00 41.23 L 840.00 41.31 L 840.00 41.39 L 840.00 41.46 L 840.00 41.54 L 840.00 41.62 L 840.00 41.69 L 840.00 41.77 L 840.00 41.85 L 840.00 41.93 L 840.00 42.00 L 840.00 42.08 L 840.00 42.16 L 840.00 42.23 L 840.00 42.31 L 840.00 42.39 L 840.00 42.46 L 840.00 42.54 L 840.00 42.62 L 840.00 42.70 L 840.00 42.77 L 840.00 42.85 L 840.00 42.93 L 840.00 43.00 L 840.00 43.08 L 840.00 43.16 L 840.00 43.23 L 840.00 43.31 L 840.00 43.39 L 840.00 43.47 L 840.00 43.54 L 840.00 43.62 L 840.00 43.70 L 840.00 43.77"/>
<path d="M 840.00 43.77 L 823.67 43.77 L 807.35 43.77 L 791.02 43.77 L 774.69 43.77 L 758.37 43.77 L 742.04 43.77 L 725.71 43.77 L 709.39 43.77 L 693.06 43.77 L 676.73 43.77 L 660.41 43.77 L 644.08 43.77 L 627.76 43.77 L 611.43 43.77 L 595.10 43.77 L 578.78 43.77 L 562.45 43.77 L 546.12 43.77 L 529.80 43.77 L 513.47 43.77 L 497.14 43.77 L 480.82 43.77 L 464.49 43.77 L 448.16 43.77 L 431.84 43.77 L 415.51 43.77 L 399.18 43.77 L 382.86 43.77 L 366.53 43.77 L 350.20 43.77 L 333.88 43.77 L 317.55 43.77 L 301.22 43.77 L 284.90 43.77 L 268.57 43.77 L 252.24 43.77 L 235.92 43.77 L 219.59 43.77 L 203.27 43.77 L 186.94 43.77 L 170.61 43.77 L 154.29 43.77 L 137.96 43.77 L 121.63 43.77 L 105.31 43.77 L 88.98 43.77 L 72.65 43.77 L 56.33 43.77 L 40.00 43.77"/>
</g>
<g stroke="black" stroke-width="1" fill="black">
<line x1="40.0" y1="459.8" x2="134.3" y2="459.8"/>
<line x1="40.0" y1="454.8" x2="40.0" y2="464.8"/>
<line x1="134.3" y1="454.8" x2="134.3" y2="464.8"/>
<text x="87.2" y="451.8" text-anchor="middle" font-family="sans-serif" font-size="10">200 mm</text>
</g>
</svg>