<?xml version="1.0" encoding="UTF-8"?>
<svg xmlns="http://www.w3.org/2000/svg" version="1.1" width="880.0" height="243.5" viewBox="0 0 880.0 243.5">
<g fill="none" stroke="black" stroke-width="1.0">
<path d="M 324.48 155.34 L 356.04 158.88 L 387.63 162.22 L 419.15 166.12 L 450.71 169.73 L 482.36 172.34 L 514.10 173.55 L 545.86 173.28 L 577.58 171.64 L 609.21 168.83 L 640.75 165.05 L 672.16 160.37 L 703.40 154.61 L 734.29 147.22 L 764.47 137.38 L 794.29 126.43 L 824.62 117.00 L 840.00 102.06 L 809.85 92.11 L 779.76 81.97 L 749.92 71.10 L 719.35 62.52 L 688.26 56.03 L 656.92 50.84 L 625.44 46.60 L 593.86 43.27 L 562.18 41.00 L 530.43 40.00 L 498.68 40.45 L 466.97 42.36 L 435.37 45.52 L 403.84 49.40 L 372.29 53.05 L 340.70 56.34 L 309.19 60.33 L 277.88 65.64 L 246.81 72.26 L 215.87 79.42 L 184.81 86.07 L 153.55 91.70 L 122.20 96.83 L 91.06 103.00 L 106.11 113.96 L 137.43 119.25 L 168.75 124.51 L 199.92 130.63 L 230.90 137.65 L 261.87 144.68 L 293.06 150.71 L 324.48 155.34"/>
<path d="M 324.67 152.86 L 355.47 156.34 L 386.28 159.60 L 417.04 163.41 L 447.82 167.01 L 478.69 169.68 L 509.65 171.04 L 540.63 171.00 L 571.59 169.61 L 602.48 167.08 L 633.27 163.58 L 663.95 159.23 L 694.48 153.92 L 724.73 147.21 L 754.45 138.46 L 783.66 128.10 L 813.20 118.75 L 839.43 105.70 L 810.97 94.16 L 781.45 84.73 L 752.24 74.40 L 722.47 65.82 L 692.19 59.24 L 661.64 54.00 L 630.95 49.72 L 600.15 46.29 L 569.26 43.83 L 538.30 42.54 L 507.32 42.60 L 476.36 44.07 L 445.50 46.83 L 414.72 50.47 L 383.97 54.26 L 353.15 57.49 L 322.36 61.03 L 291.72 65.69 L 261.31 71.64 L 231.06 78.37 L 200.77 84.92 L 170.32 90.64 L 139.76 95.81 L 109.30 101.47 L 111.57 112.63 L 142.06 118.17 L 172.61 123.36 L 203.06 129.14 L 233.34 135.74 L 263.59 142.44 L 294.02 148.30 L 324.67 152.86"/>
<path d="M 42.64 104.15 L 42.98 104.17 L 43.31 104.24 L 43.64 104.34 L 43.94 104.49 L 44.23 104.68 L 44.48 104.90 L 44.71 105.15 L 44.90 105.43 L 45.06 105.73 L 45.18 106.04 L 45.25 106.37 L 45.29 106.71 L 45.28 107.05 L 45.22 107.38 L 45.13 107.71 L 44.99 108.02 L 44.81 108.31 L 44.60 108.57 L 44.36 108.81 L 44.09 109.01 L 43.79 109.18 L 43.48 109.31 L 43.15 109.39 L 42.81 109.44 L 42.47 109.44 L 42.14 109.39 L 41.81 109.31 L 41.50 109.18 L 41.20 109.01 L 40.93 108.81 L 40.69 108.57 L 40.47 108.31 L 40.30 108.02 L 40.16 107.71 L 40.06 107.38 L 40.01 107.05 L 40.00 106.71 L 40.03 106.37 L 40.11 106.04 L 40.22 105.73 L 40.38 105.43 L 40.58 105.15 L 40.80 104.90 L 41.06 104.68 L 41.35 104.49 L 41.65 104.34 L 41.97 104.24 L 42.31 104.17 L 42.64 104.15"/>
</g>
<g stroke="black" stroke-width="1" fill="black">
<line x1="40.0" y1="228.5" x2="128.2" y2="228.5"/>
<line x1="40.0" y1="223.5" x2="40.0" y2="233.5"/>
<line x1="128.2" y1="223.5" x2="128.2" y2="233.5"/>
<text x="84.1" y="220.5" text-anchor="middle" font-family="sans-serif" font-size="10">0.5 m</text>
</g>
</svg>