<?xml version="1.0" encoding="UTF-8"?>
<svg xmlns="http://www.w3.org/2000/svg" version="1.1" width="880.0" height="131.4" viewBox="0 0 880.0 131.4">
<g fill="none" stroke="black" stroke-width="1.0">
<path d="M 661.51 40.00 L 661.51 40.44 L 661.51 40.87 L 661.51 41.31 L 661.51 41.75 L 661.51 42.19 L 661.51 42.62 L 661.51 43.06 L 661.51 43.50 L 661.51 43.93 L 661.51 44.37 L 661.51 44.81 L 661.51 45.25 L 661.51 45.68 L 661.51 46.12 L 661.51 46.56 L 661.51 46.99 L 661.51 47.43 L 661.51 47.87 L 661.51 48.31 L 661.51 48.74 L 661.51 49.18 L 661.51 49.62 L 661.51 50.05 L 661.51 50.49 L 661.51 50.93 L 661.51 51.36 L 661.51 51.80 L 661.51 52.24 L 661.51 52.68 L 661.51 53.11 L 661.51 53.55 L 661.51 53.99 L 661.51 54.42 L 661.51 54.86 L 661.51 55.30 L 661.51 55.74 L 661.51 56.17 L 661.51 56.61 L 661.51 57.05 L 661.51 57.48 L 661.51 57.92 L 661.51 58.36 L 661.51 58.80 L 661.51 59.23 L 661.51 59.67 L 661.51 60.11 L 661.51 60.54 L 661.51 60.98 L 661.51 61.42"/>
<path d="M 840.00 40.00 L 836.36 40.00 L 832.71 40.00 L 829.07 40.00 L 825.43 40.00 L 821.79 40.00 L 818.14 40.00 L 814.50 40.00 L 810.86 40.00 L 807.22 40.00 L 803.57 40.00 L 799.93 40.00 L 796.29 40.00 L 792.65 40.00 L 789.00 40.00 L 785.36 40.00 L 781.72 40.00 L 778.08 40.00 L 774.43 40.00 L 770.79 40.00 L 767.15 40.00 L 763.51 40.00 L 759.86 40.00 L 756.22 40.00 L 752.58 40.00 L 748.94 40.00 L 745.29 40.00 L 741.65 40.00 L 738.01 40.00 L 734.37 40.00 L 730.72 40.00 L 727.08 40.00 L 723.44 40.00 L 719.80 40.00 L 716.15 40.00 L 712.51 40.00 L 708.87 40.00 L 705.23 40.00 L 701.58 40.00 L 697.94 40.00 L 694.30 40.00 L 690.66 40.00 L 687.01 40.00 L 683.37 40.00 L 679.73 40.00 L 676.09 40.00 L 672.44 40.00 L 668.80 40.00 L 665.16 40.00 L 661.51 40.00"/>
<path d="M 840.00 61.42 L 840.00 60.98 L 840.00 60.54 L 840.00 60.11 L 840.00 59.67 L 840.00 59.23 L 840.00 58.80 L 840.00 58.36 L 840.00 57.92 L 840.00 57.48 L 840.00 57.05 L 840.00 56.61 L 840.00 56.17 L 840.00 55.74 L 840.00 55.30 L 840.00 54.86 L 840.00 54.42 L 840.00 53.99 L 840.00 53.55 L 840.00 53.11 L 840.00 52.68 L 840.00 52.24 L 840.00 51.80 L 840.00 51.36 L 840.00 50.93 L 840.00 50.49 L 840.00 50.05 L 840.00 49.62 L 840.00 49.18 L 840.00 48.74 L 840.00 48.31 L 840.00 47.87 L 840.00 47.43 L 840.00 46.99 L 840.00 46.56 L 840.00 46.12 L 840.00 45.68 L 840.00 45.25 L 840.00 44.81 L 840.00 44.37 L 840.00 43.93 L 840.00 43.50 L 840.00 43.06 L 840.00 42.62 L 840.00 42.19 L 840.00 41.75 L 840.00 41.31 L 840.00 40.87 L 840.00 40.44 L 840.00 40.00"/>
<path d="M 661.51 61.42 L 665.16 61.42 L 668.80 61.42 L 672.44 61.42 L 676.09 61.42 L 679.73 61.42 L 683.37 61.42 L 687.01 61.42 L 690.66 61.42 L 694.30 61.42 L 697.94 61.42 L 701.58 61.42 L 705.23 61.42 L 708.87 61.42 L 712.51 61.42 L 716.15 61.42 L 719.80 61.42 L 723.44 61.42 L 727.08 61.42 L 730.72 61.42 L 734.37 61.42 L 738.01 61.42 L 741.65 61.42 L 745.29 61.42 L 748.94 61.42 L 752.58 61.42 L 756.22 61.42 L 759.86 61.42 L 763.51 61.42 L 767.15 61.42 L 770.79 61.42 L 774.43 61.42 L 778.08 61.42 L 781.72 61.42 L 785.36 61.42 L 789.00 61.42 L 792.65 61.42 L 796.29 61.42 L 799.93 61.42 L 803.57 61.42 L 807.22 61.42 L 810.86 61.42 L 814.50 61.42 L 818.14 61.42 L 821.79 61.42 L 825.43 61.42 L 829.07 61.42 L 832.71 61.42 L 836.36 61.42 L 840.00 61.42"/>
<path d="M 110.87 53.07 L 110.87 52.97 L 110.87 52.88 L 110.87 52.78 L 110.87 52.69 L 110.87 52.59 L 110.87 52.49 L 110.87 52.40 L 110.87 52.30 L 110.87 52.20 L 110.87 52.11 L 110.87 52.01 L 110.87 51.91 L 110.87 51.82 L 110.87 51.72 L 110.87 51.63 L 110.87 51.53 L 110.87 51.43 L 110.87 51.34 L 110.87 51.24 L 110.87 51.14 L 110.87 51.05 L 110.87 50.95 L 110.87 50.85 L 110.87 50.76 L 110.87 50.66 L 110.87 50.56 L 110.87 50.47 L 110.87 50.37 L 110.87 50.28 L 110.87 50.18 L 110.87 50.08 L 110.87 49.99 L 110.87 49.89 L 110.87 49.79 L 110.87 49.70 L 110.87 49.60 L 110.87 49.50 L 110.87 49.41 L 110.87 49.31 L 110.87 49.21 L 110.87 49.12 L 110.87 49.02 L 110.87 48.93 L 110.87 48.83 L 110.87 48.73 L 110.87 48.64 L 110.87 48.54 L 110.87 48.44 L 110.87 48.35"/>
<path d="M 110.87 53.07 L 109.42 53.07 L 107.98 53.07 L 106.53 53.07 L 105.08 53.07 L 103.64 53.07 L 102.19 53.07 L 100.74 53.07 L 99.30 53.07 L 97.85 53.07 L 96.41 53.07 L 94.96 53.07 L 93.51 53.07 L 92.07 53.07 L 90.62 53.07 L 89.17 53.07 L 87.73 53.07 L 86.28 53.07 L 84.84 53.07 L 83.39 53.07 L 81.94 53.07 L 80.50 53.07 L 79.05 53.07 L 77.60 53.07 L 76.16 53.07 L 74.71 53.07 L 73.27 53.07 L 71.82 53.07 L 70.37 53.07 L 68.93 53.07 L 67.48 53.07 L 66.03 53.07 L 64.59 53.07 L 63.14 53.07 L 61.69 53.07 L 60.25 53.07 L 58.80 53.07 L 57.36 53.07 L 55.91 53.07 L 54.46 53.07 L 53.02 53.07 L 51.57 53.07 L 50.12 53.07 L 48.68 53.07 L 47.23 53.07 L 45.79 53.07 L 44.34 53.07 L 42.89 53.07 L 41.45 53.07 L 40.00 53.07"/>
<path d="M 40.00 53.07 L 40.00 52.97 L 40.00 52.88 L 40.00 52.78 L 40.00 52.69 L 40.00 52.59 L 40.00 52.49 L 40.00 52.40 L 40.00 52.30 L 40.00 52.20 L 40.00 52.11 L 40.00 52.01 L 40.00 51.91 L 40.00 51.82 L 40.00 51.72 L 40.00 51.63 L 40.00 51.53 L 40.00 51.43 L 40.00 51.34 L 40.00 51.24 L 40.00 51.14 L 40.00 51.05 L 40.00 50.95 L 40.00 50.85 L 40.00 50.76 L 40.00 50.66 L 40.00 50.56 L 40.00 50.47 L 40.00 50.37 L 40.00 50.28 L 40.00 50.18 L 40.00 50.08 L 40.00 49.99 L 40.00 49.89 L 40.00 49.79 L 40.00 49.70 L 40.00 49.60 L 40.00 49.50 L 40.00 49.41 L 40.00 49.31 L 40.00 49.21 L 40.00 49.12 L 40.00 49.02 L 40.00 48.93 L 40.00 48.83 L 40.00 48.73 L 40.00 48.64 L 40.00 48.54 L 40.00 48.44 L 40.00 48.35"/>
<path d="M 110.87 48.35 L 109.42 48.35 L 107.98 48.35 L 106.53 48.35 L 105.08 48.35 L 103.64 48.35 L 102.19 48.35 L 100.74 48.35 L 99.30 48.35 L 97.85 48.35 L 96.41 48.35 L 94.96 48.35 L 93.51 48.35 L 92.07 48.35 L 90.62 48.35 L 89.17 48.35 L 87.73 48.35 L 86.28 48.35 L 84.84 48.35 L 83.39 48.35 L 81.94 48.35 L 80.50 48.35 L 79.05 48.35 L 77.60 48.35 L 76.16 48.35 L 74.71 48.35 L 73.27 48.35 L 71.82 48.35 L 70.37 48.35 L 68.93 48.35 L 67.48 48.35 L 66.03 48.35 L 64.59 48.35 L 63.14 48.35 L 61.69 48.35 L 60.25 48.35 L 58.80 48.35 L 57.36 48.35 L 55.91 48.35 L 54.46 48.35 L 53.02 48.35 L 51.57 48.35 L 50.12 48.35 L 48.68 48.35 L 47.23 48.35 L 45.79 48.35 L 44.34 48.35 L 42.89 48.35 L 41.45 48.35 L 40.00 48.35"/>
<path d="M 75.43 47.17 L 75.89 47.19 L 76.33 47.28 L 76.76 47.42 L 77.17 47.62 L 77.55 47.87 L 77.90 48.16 L 78.20 48.50 L 78.46 48.87 L 78.67 49.27 L 78.83 49.70 L 78.93 50.14 L 78.98 50.60 L 78.96 51.05 L 78.89 51.50 L 78.76 51.93 L 78.58 52.35 L 78.34 52.74 L 78.06 53.09 L 77.73 53.41 L 77.37 53.68 L 76.97 53.90 L 76.55 54.07 L 76.11 54.19 L 75.66 54.25 L 75.21 54.25 L 74.76 54.19 L 74.32 54.07 L 73.90 53.90 L 73.50 53.68 L 73.14 53.41 L 72.81 53.09 L 72.53 52.74 L 72.29 52.35 L 72.11 51.93 L 71.98 51.50 L 71.91 51.05 L 71.89 50.60 L 71.94 50.14 L 72.04 49.70 L 72.19 49.27 L 72.40 48.87 L 72.66 48.50 L 72.97 48.16 L 73.32 47.87 L 73.70 47.62 L 74.10 47.42 L 74.54 47.28 L 74.98 47.19 L 75.43 47.17"/>
</g>
<g stroke="black" stroke-width="1" fill="black">
<line x1="40.0" y1="116.4" x2="158.1" y2="116.4"/>
<line x1="40.0" y1="111.4" x2="40.0" y2="121.4"/>
<line x1="158.1" y1="111.4" x2="158.1" y2="121.4"/>
<text x="99.1" y="108.4" text-anchor="middle" font-family="sans-serif" font-size="10">0.5 m</text>
</g>
</svg>