<?xml version="1.0" encoding="UTF-8"?>
<svg xmlns="http://www.w3.org/2000/svg" version="1.1" width="880.0" height="398.4" viewBox="0 0 880.0 398.4">
<g fill="none" stroke="black" stroke-width="1.0">
<path d="M 41.05 270.66 L 57.72 273.91 L 74.43 276.90 L 91.17 279.80 L 107.90 282.72 L 124.61 285.74 L 141.30 288.86 L 157.98 292.08 L 174.64 295.37 L 191.30 298.65 L 207.98 301.87 L 224.68 304.97 L 241.41 307.89 L 258.17 310.59 L 274.97 313.08 L 291.80 315.36 L 308.65 317.53 L 325.49 319.70 L 342.33 321.92 L 359.18 324.00 L 376.07 325.80 L 393.00 327.19 L 409.95 328.08 L 426.93 328.43 L 443.91 328.19 L 460.88 327.38 L 477.80 325.99 L 494.67 324.05 L 511.48 321.58 L 528.20 318.61 L 544.82 315.14 L 561.33 311.18 L 577.71 306.69 L 593.93 301.65 L 609.94 295.99 L 625.78 289.86 L 641.52 283.48 L 657.19 276.95 L 672.81 270.28 L 688.36 263.44 L 703.79 256.36 L 719.09 248.98 L 734.24 241.30 L 749.24 233.33 L 764.16 225.23 L 779.11 217.17 L 794.10 209.18 L 809.24 201.49 L 824.63 194.31 L 840.00 187.09"/>
<path d="M 41.05 270.66 L 41.05 270.64 L 41.05 270.61 L 41.05 270.59 L 41.05 270.57 L 41.05 270.55 L 41.05 270.53 L 41.05 270.51 L 41.05 270.49 L 41.05 270.46 L 41.05 270.44 L 41.05 270.42 L 41.05 270.40 L 41.05 270.38 L 41.05 270.36 L 41.05 270.34 L 41.05 270.32 L 41.05 270.29 L 41.05 270.27 L 41.05 270.25 L 41.05 270.23 L 41.05 270.21 L 41.05 270.19 L 41.05 270.17 L 41.05 270.14 L 41.05 270.12 L 41.05 270.10 L 41.05 270.08 L 41.05 270.06 L 41.05 270.04 L 41.05 270.02 L 41.05 269.99 L 41.05 269.97 L 41.05 269.95 L 41.05 269.93 L 41.05 269.91 L 41.05 269.89 L 41.05 269.87 L 41.05 269.84 L 41.05 269.82 L 41.05 269.80 L 41.05 269.78 L 41.05 269.76 L 41.05 269.74 L 41.05 269.72 L 41.05 269.70 L 41.05 269.67 L 41.05 269.65 L 41.05 269.63 L 41.05 269.61"/>
<path d="M 41.05 269.61 L 57.72 272.87 L 74.43 275.85 L 91.17 278.75 L 107.90 281.67 L 124.61 284.69 L 141.30 287.81 L 157.98 291.04 L 174.64 294.32 L 191.30 297.60 L 207.98 300.82 L 224.68 303.92 L 241.41 306.84 L 258.17 309.55 L 274.97 312.03 L 291.80 314.32 L 308.65 316.48 L 325.49 318.65 L 342.33 320.87 L 359.18 322.96 L 376.07 324.75 L 393.00 326.14 L 409.95 327.03 L 426.93 327.38 L 443.91 327.15 L 460.88 326.33 L 477.80 324.94 L 494.67 323.00 L 511.48 320.53 L 528.20 317.56 L 544.82 314.09 L 561.33 310.13 L 577.71 305.64 L 593.93 300.60 L 609.94 294.94 L 625.78 288.81 L 641.52 282.43 L 657.19 275.90 L 672.81 269.23 L 688.36 262.39 L 703.79 255.31 L 719.09 247.94 L 734.24 240.25 L 749.24 232.29 L 764.16 224.18 L 779.11 216.12 L 794.10 208.13 L 809.24 200.44 L 824.63 193.26 L 840.00 186.05"/>
<path d="M 840.00 186.05 L 840.00 186.07 L 840.00 186.09 L 840.00 186.11 L 840.00 186.13 L 840.00 186.15 L 840.00 186.17 L 840.00 186.20 L 840.00 186.22 L 840.00 186.24 L 840.00 186.26 L 840.00 186.28 L 840.00 186.30 L 840.00 186.32 L 840.00 186.35 L 840.00 186.37 L 840.00 186.39 L 840.00 186.41 L 840.00 186.43 L 840.00 186.45 L 840.00 186.47 L 840.00 186.50 L 840.00 186.52 L 840.00 186.54 L 840.00 186.56 L 840.00 186.58 L 840.00 186.60 L 840.00 186.62 L 840.00 186.65 L 840.00 186.67 L 840.00 186.69 L 840.00 186.71 L 840.00 186.73 L 840.00 186.75 L 840.00 186.77 L 840.00 186.80 L 840.00 186.82 L 840.00 186.84 L 840.00 186.86 L 840.00 186.88 L 840.00 186.90 L 840.00 186.92 L 840.00 186.94 L 840.00 186.97 L 840.00 186.99 L 840.00 187.01 L 840.00 187.03 L 840.00 187.05 L 840.00 187.07 L 840.00 187.09"/>
<path d="M 41.05 98.82 L 41.05 98.80 L 41.05 98.77 L 41.05 98.75 L 41.05 98.73 L 41.05 98.71 L 41.05 98.69 L 41.05 98.67 L 41.05 98.65 L 41.05 98.62 L 41.05 98.60 L 41.05 98.58 L 41.05 98.56 L 41.05 98.54 L 41.05 98.52 L 41.05 98.50 L 41.05 98.47 L 41.05 98.45 L 41.05 98.43 L 41.05 98.41 L 41.05 98.39 L 41.05 98.37 L 41.05 98.35 L 41.05 98.33 L 41.05 98.30 L 41.05 98.28 L 41.05 98.26 L 41.05 98.24 L 41.05 98.22 L 41.05 98.20 L 41.05 98.18 L 41.05 98.15 L 41.05 98.13 L 41.05 98.11 L 41.05 98.09 L 41.05 98.07 L 41.05 98.05 L 41.05 98.03 L 41.05 98.00 L 41.05 97.98 L 41.05 97.96 L 41.05 97.94 L 41.05 97.92 L 41.05 97.90 L 41.05 97.88 L 41.05 97.85 L 41.05 97.83 L 41.05 97.81 L 41.05 97.79 L 41.05 97.77"/>
<path d="M 41.05 97.77 L 57.72 94.51 L 74.43 91.52 L 91.17 88.63 L 107.90 85.70 L 124.61 82.69 L 141.30 79.56 L 157.98 76.34 L 174.64 73.06 L 191.30 69.78 L 207.98 66.56 L 224.68 63.46 L 241.41 60.54 L 258.17 57.83 L 274.97 55.35 L 291.80 53.06 L 308.65 50.90 L 325.49 48.73 L 342.33 46.51 L 359.18 44.42 L 376.07 42.63 L 393.00 41.24 L 409.95 40.34 L 426.93 40.00 L 443.91 40.23 L 460.88 41.05 L 477.80 42.44 L 494.67 44.38 L 511.48 46.85 L 528.20 49.82 L 544.82 53.29 L 561.33 57.25 L 577.71 61.73 L 593.93 66.78 L 609.94 72.44 L 625.78 78.57 L 641.52 84.95 L 657.19 91.48 L 672.81 98.15 L 688.36 104.99 L 703.79 112.07 L 719.09 119.44 L 734.24 127.13 L 749.24 135.09 L 764.16 143.20 L 779.11 151.26 L 794.10 159.25 L 809.24 166.93 L 824.63 174.12 L 840.00 181.33"/>
<path d="M 840.00 181.33 L 840.00 181.35 L 840.00 181.38 L 840.00 181.40 L 840.00 181.42 L 840.00 181.44 L 840.00 181.46 L 840.00 181.48 L 840.00 181.50 L 840.00 181.52 L 840.00 181.55 L 840.00 181.57 L 840.00 181.59 L 840.00 181.61 L 840.00 181.63 L 840.00 181.65 L 840.00 181.67 L 840.00 181.70 L 840.00 181.72 L 840.00 181.74 L 840.00 181.76 L 840.00 181.78 L 840.00 181.80 L 840.00 181.82 L 840.00 181.85 L 840.00 181.87 L 840.00 181.89 L 840.00 181.91 L 840.00 181.93 L 840.00 181.95 L 840.00 181.97 L 840.00 182.00 L 840.00 182.02 L 840.00 182.04 L 840.00 182.06 L 840.00 182.08 L 840.00 182.10 L 840.00 182.12 L 840.00 182.14 L 840.00 182.17 L 840.00 182.19 L 840.00 182.21 L 840.00 182.23 L 840.00 182.25 L 840.00 182.27 L 840.00 182.29 L 840.00 182.32 L 840.00 182.34 L 840.00 182.36 L 840.00 182.38"/>
<path d="M 41.05 98.82 L 57.72 95.56 L 74.43 92.57 L 91.17 89.68 L 107.90 86.75 L 124.61 83.74 L 141.30 80.61 L 157.98 77.39 L 174.64 74.11 L 191.30 70.83 L 207.98 67.61 L 224.68 64.51 L 241.41 61.59 L 258.17 58.88 L 274.97 56.40 L 291.80 54.11 L 308.65 51.95 L 325.49 49.77 L 342.33 47.56 L 359.18 45.47 L 376.07 43.67 L 393.00 42.29 L 409.95 41.39 L 426.93 41.05 L 443.91 41.28 L 460.88 42.10 L 477.80 43.49 L 494.67 45.43 L 511.48 47.89 L 528.20 50.87 L 544.82 54.33 L 561.33 58.30 L 577.71 62.78 L 593.93 67.83 L 609.94 73.49 L 625.78 79.62 L 641.52 86.00 L 657.19 92.53 L 672.81 99.19 L 688.36 106.04 L 703.79 113.12 L 719.09 120.49 L 734.24 128.18 L 749.24 136.14 L 764.16 144.25 L 779.11 152.31 L 794.10 160.29 L 809.24 167.98 L 824.63 175.16 L 840.00 182.38"/>
<path d="M 40.00 270.66 L 40.02 270.66 L 40.04 270.66 L 40.06 270.66 L 40.09 270.66 L 40.11 270.66 L 40.13 270.66 L 40.15 270.66 L 40.17 270.66 L 40.19 270.66 L 40.21 270.66 L 40.24 270.66 L 40.26 270.66 L 40.28 270.66 L 40.30 270.66 L 40.32 270.66 L 40.34 270.66 L 40.36 270.66 L 40.38 270.66 L 40.41 270.66 L 40.43 270.66 L 40.45 270.66 L 40.47 270.66 L 40.49 270.66 L 40.51 270.66 L 40.53 270.66 L 40.56 270.66 L 40.58 270.66 L 40.60 270.66 L 40.62 270.66 L 40.64 270.66 L 40.66 270.66 L 40.68 270.66 L 40.71 270.66 L 40.73 270.66 L 40.75 270.66 L 40.77 270.66 L 40.79 270.66 L 40.81 270.66 L 40.83 270.66 L 40.86 270.66 L 40.88 270.66 L 40.90 270.66 L 40.92 270.66 L 40.94 270.66 L 40.96 270.66 L 40.98 270.66 L 41.01 270.66 L 41.03 270.66 L 41.05 270.66"/>
<path d="M 40.00 97.77 L 40.00 101.30 L 40.00 104.83 L 40.00 108.35 L 40.00 111.88 L 40.00 115.41 L 40.00 118.94 L 40.00 122.47 L 40.00 126.00 L 40.00 129.52 L 40.00 133.05 L 40.00 136.58 L 40.00 140.11 L 40.00 143.64 L 40.00 147.17 L 40.00 150.69 L 40.00 154.22 L 40.00 157.75 L 40.00 161.28 L 40.00 164.81 L 40.00 168.34 L 40.00 171.86 L 40.00 175.39 L 40.00 178.92 L 40.00 182.45 L 40.00 185.98 L 40.00 189.51 L 40.00 193.03 L 40.00 196.56 L 40.00 200.09 L 40.00 203.62 L 40.00 207.15 L 40.00 210.68 L 40.00 214.20 L 40.00 217.73 L 40.00 221.26 L 40.00 224.79 L 40.00 228.32 L 40.00 231.85 L 40.00 235.37 L 40.00 238.90 L 40.00 242.43 L 40.00 245.96 L 40.00 249.49 L 40.00 253.02 L 40.00 256.54 L 40.00 260.07 L 40.00 263.60 L 40.00 267.13 L 40.00 270.66"/>
<path d="M 40.00 97.77 L 40.02 97.77 L 40.04 97.77 L 40.06 97.77 L 40.09 97.77 L 40.11 97.77 L 40.13 97.77 L 40.15 97.77 L 40.17 97.77 L 40.19 97.77 L 40.21 97.77 L 40.24 97.77 L 40.26 97.77 L 40.28 97.77 L 40.30 97.77 L 40.32 97.77 L 40.34 97.77 L 40.36 97.77 L 40.38 97.77 L 40.41 97.77 L 40.43 97.77 L 40.45 97.77 L 40.47 97.77 L 40.49 97.77 L 40.51 97.77 L 40.53 97.77 L 40.56 97.77 L 40.58 97.77 L 40.60 97.77 L 40.62 97.77 L 40.64 97.77 L 40.66 97.77 L 40.68 97.77 L 40.71 97.77 L 40.73 97.77 L 40.75 97.77 L 40.77 97.77 L 40.79 97.77 L 40.81 97.77 L 40.83 97.77 L 40.86 97.77 L 40.88 97.77 L 40.90 97.77 L 40.92 97.77 L 40.94 97.77 L 40.96 97.77 L 40.98 97.77 L 41.01 97.77 L 41.03 97.77 L 41.05 97.77"/>
<path d="M 41.05 97.77 L 41.05 101.30 L 41.05 104.83 L 41.05 108.35 L 41.05 111.88 L 41.05 115.41 L 41.05 118.94 L 41.05 122.47 L 41.05 126.00 L 41.05 129.52 L 41.05 133.05 L 41.05 136.58 L 41.05 140.11 L 41.05 143.64 L 41.05 147.17 L 41.05 150.69 L 41.05 154.22 L 41.05 157.75 L 41.05 161.28 L 41.05 164.81 L 41.05 168.34 L 41.05 171.86 L 41.05 175.39 L 41.05 178.92 L 41.05 182.45 L 41.05 185.98 L 41.05 189.51 L 41.05 193.03 L 41.05 196.56 L 41.05 200.09 L 41.05 203.62 L 41.05 207.15 L 41.05 210.68 L 41.05 214.20 L 41.05 217.73 L 41.05 221.26 L 41.05 224.79 L 41.05 228.32 L 41.05 231.85 L 41.05 235.37 L 41.05 238.90 L 41.05 242.43 L 41.05 245.96 L 41.05 249.49 L 41.05 253.02 L 41.05 256.54 L 41.05 260.07 L 41.05 263.60 L 41.05 267.13 L 41.05 270.66"/>
<path d="M 67.24 182.25 L 67.49 182.26 L 67.74 182.31 L 67.98 182.39 L 68.21 182.50 L 68.42 182.64 L 68.61 182.80 L 68.78 182.99 L 68.92 183.19 L 69.04 183.42 L 69.13 183.65 L 69.18 183.90 L 69.21 184.15 L 69.20 184.40 L 69.16 184.65 L 69.09 184.89 L 68.98 185.12 L 68.85 185.34 L 68.70 185.53 L 68.52 185.71 L 68.31 185.86 L 68.10 185.98 L 67.86 186.08 L 67.62 186.14 L 67.37 186.17 L 67.12 186.17 L 66.87 186.14 L 66.62 186.08 L 66.39 185.98 L 66.17 185.86 L 65.97 185.71 L 65.79 185.53 L 65.63 185.34 L 65.50 185.12 L 65.40 184.89 L 65.33 184.65 L 65.29 184.40 L 65.28 184.15 L 65.30 183.90 L 65.36 183.65 L 65.45 183.42 L 65.56 183.19 L 65.71 182.99 L 65.88 182.80 L 66.07 182.64 L 66.28 182.50 L 66.51 182.39 L 66.74 182.31 L 66.99 182.26 L 67.24 182.25"/>
</g>
<g stroke="black" stroke-width="1" fill="black">
<line x1="40.0" y1="383.4" x2="171.0" y2="383.4"/>
<line x1="40.0" y1="378.4" x2="40.0" y2="388.4"/>
<line x1="171.0" y1="378.4" x2="171.0" y2="388.4"/>
<text x="105.5" y="375.4" text-anchor="middle" font-family="sans-serif" font-size="10">1 m</text>
</g>
</svg>