<?xml version="1.0" encoding="UTF-8"?>
<svg xmlns="http://www.w3.org/2000/svg" version="1.1" width="880.0" height="489.4" viewBox="0 0 880.0 489.4">
<g fill="none" stroke="black" stroke-width="1.0">
<path d="M 40.00 40.00 L 41.83 63.32 L 47.18 86.10 L 55.53 107.96 L 66.35 128.72 L 79.09 148.36 L 93.32 166.95 L 108.71 184.60 L 125.00 201.41 L 142.00 217.51 L 159.58 232.98 L 177.62 247.91 L 196.04 262.38 L 214.76 276.45 L 233.75 290.15 L 252.98 303.51 L 272.38 316.63 L 291.84 329.65 L 311.37 342.58 L 331.19 355.04 L 351.48 366.74 L 371.62 378.68 L 390.67 392.28 L 408.79 407.12 L 428.61 419.44 L 451.39 419.44 L 471.21 407.12 L 489.33 392.28 L 508.38 378.68 L 528.52 366.74 L 548.81 355.04 L 568.63 342.58 L 588.16 329.65 L 607.62 316.63 L 627.02 303.51 L 646.25 290.15 L 665.24 276.45 L 683.96 262.38 L 702.38 247.91 L 720.42 232.98 L 738.00 217.51 L 755.00 201.41 L 771.29 184.60 L 786.68 166.95 L 800.91 148.36 L 813.65 128.72 L 824.47 107.96 L 832.82 86.10 L 838.17 63.32 L 840.00 40.00"/>
<path d="M 840.00 40.00 L 823.67 40.00 L 807.35 40.00 L 791.02 40.00 L 774.69 40.00 L 758.37 40.00 L 742.04 40.00 L 725.71 40.00 L 709.39 40.00 L 693.06 40.00 L 676.73 40.00 L 660.41 40.00 L 644.08 40.00 L 627.76 40.00 L 611.43 40.00 L 595.10 40.00 L 578.78 40.00 L 562.45 40.00 L 546.12 40.00 L 529.80 40.00 L 513.47 40.00 L 497.14 40.00 L 480.82 40.00 L 464.49 40.00 L 448.16 40.00 L 431.84 40.00 L 415.51 40.00 L 399.18 40.00 L 382.86 40.00 L 366.53 40.00 L 350.20 40.00 L 333.88 40.00 L 317.55 40.00 L 301.22 40.00 L 284.90 40.00 L 268.57 40.00 L 252.24 40.00 L 235.92 40.00 L 219.59 40.00 L 203.27 40.00 L 186.94 40.00 L 170.61 40.00 L 154.29 40.00 L 137.96 40.00 L 121.63 40.00 L 105.31 40.00 L 88.98 40.00 L 72.65 40.00 L 56.33 40.00 L 40.00 40.00"/>
</g>
<g stroke="black" stroke-width="1" fill="black">
<line x1="40.0" y1="474.4" x2="161.2" y2="474.4"/>
<line x1="40.0" y1="469.4" x2="40.0" y2="479.4"/>
<line x1="161.2" y1="469.4" x2="161.2" y2="479.4"/>
<text x="100.6" y="466.4" text-anchor="middle" font-family="sans-serif" font-size="10">200 mm</text>
</g>
</svg>