<?xml version="1.0" encoding="UTF-8"?>
<svg xmlns="http://www.w3.org/2000/svg" version="1.1" width="880.0" height="409.9" viewBox="0 0 880.0 409.9">
<g fill="none" stroke="black" stroke-width="1.0">
<path d="M 41.05 185.62 L 41.05 185.64 L 41.05 185.66 L 41.05 185.68 L 41.05 185.70 L 41.05 185.72 L 41.05 185.75 L 41.05 185.77 L 41.05 185.79 L 41.05 185.81 L 41.05 185.83 L 41.05 185.85 L 41.05 185.87 L 41.05 185.89 L 41.05 185.92 L 41.05 185.94 L 41.05 185.96 L 41.05 185.98 L 41.05 186.00 L 41.05 186.02 L 41.05 186.04 L 41.05 186.07 L 41.05 186.09 L 41.05 186.11 L 41.05 186.13 L 41.05 186.15 L 41.05 186.17 L 41.05 186.19 L 41.05 186.22 L 41.05 186.24 L 41.05 186.26 L 41.05 186.28 L 41.05 186.30 L 41.05 186.32 L 41.05 186.34 L 41.05 186.37 L 41.05 186.39 L 41.05 186.41 L 41.05 186.43 L 41.05 186.45 L 41.05 186.47 L 41.05 186.49 L 41.05 186.51 L 41.05 186.54 L 41.05 186.56 L 41.05 186.58 L 41.05 186.60 L 41.05 186.62 L 41.05 186.64 L 41.05 186.66"/>
<path d="M 41.05 186.66 L 57.35 190.14 L 73.82 192.77 L 90.35 194.92 L 106.91 196.85 L 123.48 198.75 L 140.03 200.71 L 156.58 202.78 L 173.11 204.93 L 189.64 207.11 L 206.18 209.23 L 222.73 211.21 L 239.31 212.98 L 255.92 214.46 L 272.55 215.65 L 289.20 216.58 L 305.85 217.34 L 322.51 218.12 L 339.15 219.08 L 355.80 220.07 L 372.45 220.95 L 389.11 221.62 L 405.78 222.03 L 422.45 222.17 L 439.12 222.05 L 455.79 221.69 L 472.45 221.13 L 489.11 220.40 L 505.76 219.53 L 522.41 218.53 L 539.04 217.38 L 555.66 216.01 L 572.24 214.33 L 588.78 212.17 L 605.20 209.30 L 621.49 205.76 L 637.73 201.99 L 653.96 198.17 L 670.18 194.30 L 686.35 190.24 L 702.43 185.81 L 718.34 180.86 L 734.08 175.35 L 749.67 169.44 L 765.26 163.53 L 781.03 158.10 L 796.59 152.13 L 811.49 144.67 L 825.75 136.03 L 840.00 127.38"/>
<path d="M 840.00 127.38 L 840.00 127.35 L 840.00 127.32 L 840.00 127.29 L 840.00 127.26 L 840.00 127.23 L 840.00 127.20 L 840.00 127.17 L 840.00 127.14 L 840.00 127.11 L 840.00 127.08 L 840.00 127.05 L 840.00 127.02 L 840.00 126.99 L 840.00 126.96 L 840.00 126.93 L 840.00 126.91 L 840.00 126.88 L 840.00 126.85 L 840.00 126.82 L 840.00 126.79 L 840.00 126.76 L 840.00 126.73 L 840.00 126.70 L 840.00 126.67 L 840.00 126.64 L 840.00 126.61 L 840.00 126.58 L 840.00 126.55 L 840.00 126.52 L 840.00 126.49 L 840.00 126.46 L 840.00 126.43 L 840.00 126.40 L 840.00 126.38 L 840.00 126.35 L 840.00 126.32 L 840.00 126.29 L 840.00 126.26 L 840.00 126.23 L 840.00 126.20 L 840.00 126.17 L 840.00 126.14 L 840.00 126.11 L 840.00 126.08 L 840.00 126.05 L 840.00 126.02 L 840.00 125.99 L 840.00 125.96 L 840.00 125.93"/>
<path d="M 41.05 185.62 L 57.36 189.09 L 73.82 191.72 L 90.36 193.87 L 106.93 195.80 L 123.50 197.70 L 140.06 199.67 L 156.61 201.74 L 173.15 203.89 L 189.68 206.07 L 206.22 208.19 L 222.78 210.17 L 239.37 211.93 L 255.98 213.42 L 272.61 214.61 L 289.26 215.53 L 305.92 216.29 L 322.58 217.08 L 339.23 218.04 L 355.88 219.03 L 372.54 219.91 L 389.20 220.58 L 405.87 220.99 L 422.55 221.13 L 439.23 221.00 L 455.90 220.64 L 472.57 220.08 L 489.23 219.35 L 505.88 218.48 L 522.53 217.48 L 539.17 216.32 L 555.79 214.95 L 572.38 213.27 L 588.92 211.10 L 605.34 208.22 L 621.64 204.68 L 637.88 200.90 L 654.12 197.09 L 670.34 193.22 L 686.52 189.15 L 702.59 184.72 L 718.51 179.76 L 734.25 174.24 L 749.85 168.33 L 765.44 162.42 L 781.21 156.99 L 796.77 151.00 L 811.67 143.52 L 825.92 134.86 L 840.00 125.93"/>
<path d="M 40.00 186.66 L 40.00 184.98 L 40.00 183.30 L 40.00 181.61 L 40.00 179.93 L 40.00 178.24 L 40.00 176.56 L 40.00 174.88 L 40.00 173.19 L 40.00 171.51 L 40.00 169.83 L 40.00 168.14 L 40.00 166.46 L 40.00 164.77 L 40.00 163.09 L 40.00 161.41 L 40.00 159.72 L 40.00 158.04 L 40.00 156.35 L 40.00 154.67 L 40.00 152.99 L 40.00 151.30 L 40.00 149.62 L 40.00 147.93 L 40.00 146.25 L 40.00 144.57 L 40.00 142.88 L 40.00 141.20 L 40.00 139.51 L 40.00 137.83 L 40.00 136.15 L 40.00 134.46 L 40.00 132.78 L 40.00 131.09 L 40.00 129.41 L 40.00 127.73 L 40.00 126.04 L 40.00 124.36 L 40.00 122.67 L 40.00 120.99 L 40.00 119.31 L 40.00 117.62 L 40.00 115.94 L 40.00 114.26 L 40.00 112.57 L 40.00 110.89 L 40.00 109.20 L 40.00 107.52 L 40.00 105.84 L 40.00 104.15"/>
<path d="M 40.00 186.66 L 40.02 186.66 L 40.04 186.66 L 40.06 186.66 L 40.09 186.66 L 40.11 186.66 L 40.13 186.66 L 40.15 186.66 L 40.17 186.66 L 40.19 186.66 L 40.21 186.66 L 40.24 186.66 L 40.26 186.66 L 40.28 186.66 L 40.30 186.66 L 40.32 186.66 L 40.34 186.66 L 40.36 186.66 L 40.38 186.66 L 40.41 186.66 L 40.43 186.66 L 40.45 186.66 L 40.47 186.66 L 40.49 186.66 L 40.51 186.66 L 40.53 186.66 L 40.56 186.66 L 40.58 186.66 L 40.60 186.66 L 40.62 186.66 L 40.64 186.66 L 40.66 186.66 L 40.68 186.66 L 40.71 186.66 L 40.73 186.66 L 40.75 186.66 L 40.77 186.66 L 40.79 186.66 L 40.81 186.66 L 40.83 186.66 L 40.86 186.66 L 40.88 186.66 L 40.90 186.66 L 40.92 186.66 L 40.94 186.66 L 40.96 186.66 L 40.98 186.66 L 41.01 186.66 L 41.03 186.66 L 41.05 186.66"/>
<path d="M 41.05 186.66 L 41.05 184.98 L 41.05 183.30 L 41.05 181.61 L 41.05 179.93 L 41.05 178.24 L 41.05 176.56 L 41.05 174.88 L 41.05 173.19 L 41.05 171.51 L 41.05 169.83 L 41.05 168.14 L 41.05 166.46 L 41.05 164.77 L 41.05 163.09 L 41.05 161.41 L 41.05 159.72 L 41.05 158.04 L 41.05 156.35 L 41.05 154.67 L 41.05 152.99 L 41.05 151.30 L 41.05 149.62 L 41.05 147.93 L 41.05 146.25 L 41.05 144.57 L 41.05 142.88 L 41.05 141.20 L 41.05 139.51 L 41.05 137.83 L 41.05 136.15 L 41.05 134.46 L 41.05 132.78 L 41.05 131.09 L 41.05 129.41 L 41.05 127.73 L 41.05 126.04 L 41.05 124.36 L 41.05 122.67 L 41.05 120.99 L 41.05 119.31 L 41.05 117.62 L 41.05 115.94 L 41.05 114.26 L 41.05 112.57 L 41.05 110.89 L 41.05 109.20 L 41.05 107.52 L 41.05 105.84 L 41.05 104.15"/>
<path d="M 41.05 104.15 L 41.03 104.15 L 41.01 104.15 L 40.98 104.15 L 40.96 104.15 L 40.94 104.15 L 40.92 104.15 L 40.90 104.15 L 40.88 104.15 L 40.86 104.15 L 40.83 104.15 L 40.81 104.15 L 40.79 104.15 L 40.77 104.15 L 40.75 104.15 L 40.73 104.15 L 40.71 104.15 L 40.68 104.15 L 40.66 104.15 L 40.64 104.15 L 40.62 104.15 L 40.60 104.15 L 40.58 104.15 L 40.56 104.15 L 40.53 104.15 L 40.51 104.15 L 40.49 104.15 L 40.47 104.15 L 40.45 104.15 L 40.43 104.15 L 40.41 104.15 L 40.38 104.15 L 40.36 104.15 L 40.34 104.15 L 40.32 104.15 L 40.30 104.15 L 40.28 104.15 L 40.26 104.15 L 40.24 104.15 L 40.21 104.15 L 40.19 104.15 L 40.17 104.15 L 40.15 104.15 L 40.13 104.15 L 40.11 104.15 L 40.09 104.15 L 40.06 104.15 L 40.04 104.15 L 40.02 104.15 L 40.00 104.15"/>
<path d="M 41.05 103.17 L 57.35 103.17 L 73.66 103.17 L 89.96 103.17 L 106.27 103.17 L 122.57 103.17 L 138.88 103.17 L 155.18 103.17 L 171.49 103.17 L 187.79 103.17 L 204.10 103.17 L 220.40 103.17 L 236.71 103.17 L 253.01 103.17 L 269.32 103.17 L 285.63 103.17 L 301.93 103.17 L 318.24 103.17 L 334.54 103.17 L 350.85 103.17 L 367.15 103.17 L 383.46 103.17 L 399.76 103.17 L 416.07 103.17 L 432.37 103.17 L 448.68 103.17 L 464.98 103.17 L 481.29 103.17 L 497.59 103.17 L 513.90 103.17 L 530.20 103.17 L 546.51 103.17 L 562.81 103.17 L 579.12 103.17 L 595.42 103.17 L 611.73 103.17 L 628.03 103.17 L 644.34 103.17 L 660.64 103.17 L 676.95 103.17 L 693.25 103.17 L 709.56 103.17 L 725.86 103.17 L 742.17 103.17 L 758.47 103.17 L 774.78 103.17 L 791.08 103.17 L 807.39 103.17 L 823.69 103.17 L 840.00 103.17"/>
<path d="M 41.05 103.17 L 41.05 103.19 L 41.05 103.21 L 41.05 103.23 L 41.05 103.25 L 41.05 103.28 L 41.05 103.30 L 41.05 103.32 L 41.05 103.34 L 41.05 103.36 L 41.05 103.38 L 41.05 103.40 L 41.05 103.43 L 41.05 103.45 L 41.05 103.47 L 41.05 103.49 L 41.05 103.51 L 41.05 103.53 L 41.05 103.55 L 41.05 103.58 L 41.05 103.60 L 41.05 103.62 L 41.05 103.64 L 41.05 103.66 L 41.05 103.68 L 41.05 103.70 L 41.05 103.73 L 41.05 103.75 L 41.05 103.77 L 41.05 103.79 L 41.05 103.81 L 41.05 103.83 L 41.05 103.85 L 41.05 103.87 L 41.05 103.90 L 41.05 103.92 L 41.05 103.94 L 41.05 103.96 L 41.05 103.98 L 41.05 104.00 L 41.05 104.02 L 41.05 104.05 L 41.05 104.07 L 41.05 104.09 L 41.05 104.11 L 41.05 104.13 L 41.05 104.15 L 41.05 104.17 L 41.05 104.20 L 41.05 104.22"/>
<path d="M 41.05 104.22 L 57.35 104.22 L 73.66 104.22 L 89.96 104.22 L 106.27 104.22 L 122.57 104.22 L 138.88 104.22 L 155.18 104.22 L 171.49 104.22 L 187.79 104.22 L 204.10 104.22 L 220.40 104.22 L 236.71 104.22 L 253.01 104.22 L 269.32 104.22 L 285.63 104.22 L 301.93 104.22 L 318.24 104.22 L 334.54 104.22 L 350.85 104.22 L 367.15 104.22 L 383.46 104.22 L 399.76 104.22 L 416.07 104.22 L 432.37 104.22 L 448.68 104.22 L 464.98 104.22 L 481.29 104.22 L 497.59 104.22 L 513.90 104.22 L 530.20 104.22 L 546.51 104.22 L 562.81 104.22 L 579.12 104.22 L 595.42 104.22 L 611.73 104.22 L 628.03 104.22 L 644.34 104.22 L 660.64 104.22 L 676.95 104.22 L 693.25 104.22 L 709.56 104.22 L 725.86 104.22 L 742.17 104.22 L 758.47 104.22 L 774.78 104.22 L 791.08 104.22 L 807.39 104.22 L 823.69 104.22 L 840.00 104.22"/>
<path d="M 840.00 104.22 L 840.00 104.20 L 840.00 104.17 L 840.00 104.15 L 840.00 104.13 L 840.00 104.11 L 840.00 104.09 L 840.00 104.07 L 840.00 104.05 L 840.00 104.02 L 840.00 104.00 L 840.00 103.98 L 840.00 103.96 L 840.00 103.94 L 840.00 103.92 L 840.00 103.90 L 840.00 103.87 L 840.00 103.85 L 840.00 103.83 L 840.00 103.81 L 840.00 103.79 L 840.00 103.77 L 840.00 103.75 L 840.00 103.73 L 840.00 103.70 L 840.00 103.68 L 840.00 103.66 L 840.00 103.64 L 840.00 103.62 L 840.00 103.60 L 840.00 103.58 L 840.00 103.55 L 840.00 103.53 L 840.00 103.51 L 840.00 103.49 L 840.00 103.47 L 840.00 103.45 L 840.00 103.43 L 840.00 103.40 L 840.00 103.38 L 840.00 103.36 L 840.00 103.34 L 840.00 103.32 L 840.00 103.30 L 840.00 103.28 L 840.00 103.25 L 840.00 103.23 L 840.00 103.21 L 840.00 103.19 L 840.00 103.17"/>
<path d="M 492.91 222.03 L 490.78 222.03 L 488.64 222.03 L 486.50 222.03 L 484.36 222.03 L 482.22 222.03 L 480.08 222.03 L 477.95 222.03 L 475.81 222.03 L 473.67 222.03 L 471.53 222.03 L 469.39 222.03 L 467.25 222.03 L 465.12 222.03 L 462.98 222.03 L 460.84 222.03 L 458.70 222.03 L 456.56 222.03 L 454.42 222.03 L 452.28 222.03 L 450.15 222.03 L 448.01 222.03 L 445.87 222.03 L 443.73 222.03 L 441.59 222.03 L 439.45 222.03 L 437.32 222.03 L 435.18 222.03 L 433.04 222.03 L 430.90 222.03 L 428.76 222.03 L 426.62 222.03 L 424.49 222.03 L 422.35 222.03 L 420.21 222.03 L 418.07 222.03 L 415.93 222.03 L 413.79 222.03 L 411.66 222.03 L 409.52 222.03 L 407.38 222.03 L 405.24 222.03 L 403.10 222.03 L 400.96 222.03 L 398.83 222.03 L 396.69 222.03 L 394.55 222.03 L 392.41 222.03 L 390.27 222.03 L 388.13 222.03"/>
<path d="M 388.13 222.03 L 388.88 224.44 L 389.62 226.84 L 390.37 229.25 L 391.11 231.65 L 391.86 234.06 L 392.60 236.46 L 393.35 238.87 L 394.09 241.28 L 394.84 243.68 L 395.58 246.09 L 396.33 248.49 L 397.07 250.90 L 397.82 253.30 L 398.56 255.71 L 399.31 258.11 L 400.05 260.52 L 400.80 262.93 L 401.54 265.33 L 402.29 267.74 L 403.03 270.14 L 403.78 272.55 L 404.53 274.95 L 405.27 277.36 L 406.02 279.77 L 406.76 282.17 L 407.51 284.58 L 408.25 286.98 L 409.00 289.39 L 409.74 291.79 L 410.49 294.20 L 411.23 296.61 L 411.98 299.01 L 412.72 301.42 L 413.47 303.82 L 414.21 306.23 L 414.96 308.63 L 415.70 311.04 L 416.45 313.45 L 417.19 315.85 L 417.94 318.26 L 418.68 320.66 L 419.43 323.07 L 420.17 325.47 L 420.92 327.88 L 421.66 330.29 L 422.41 332.69 L 423.15 335.10 L 423.90 337.50 L 424.64 339.91"/>
<path d="M 477.03 339.91 L 475.96 339.91 L 474.89 339.91 L 473.82 339.91 L 472.76 339.91 L 471.69 339.91 L 470.62 339.91 L 469.55 339.91 L 468.48 339.91 L 467.41 339.91 L 466.34 339.91 L 465.27 339.91 L 464.20 339.91 L 463.13 339.91 L 462.06 339.91 L 460.99 339.91 L 459.93 339.91 L 458.86 339.91 L 457.79 339.91 L 456.72 339.91 L 455.65 339.91 L 454.58 339.91 L 453.51 339.91 L 452.44 339.91 L 451.37 339.91 L 450.30 339.91 L 449.23 339.91 L 448.16 339.91 L 447.09 339.91 L 446.03 339.91 L 444.96 339.91 L 443.89 339.91 L 442.82 339.91 L 441.75 339.91 L 440.68 339.91 L 439.61 339.91 L 438.54 339.91 L 437.47 339.91 L 436.40 339.91 L 435.33 339.91 L 434.26 339.91 L 433.20 339.91 L 432.13 339.91 L 431.06 339.91 L 429.99 339.91 L 428.92 339.91 L 427.85 339.91 L 426.78 339.91 L 425.71 339.91 L 424.64 339.91"/>
<path d="M 492.91 222.03 L 492.59 224.44 L 492.27 226.84 L 491.94 229.25 L 491.62 231.65 L 491.29 234.06 L 490.97 236.46 L 490.65 238.87 L 490.32 241.28 L 490.00 243.68 L 489.67 246.09 L 489.35 248.49 L 489.02 250.90 L 488.70 253.30 L 488.38 255.71 L 488.05 258.11 L 487.73 260.52 L 487.40 262.93 L 487.08 265.33 L 486.76 267.74 L 486.43 270.14 L 486.11 272.55 L 485.78 274.95 L 485.46 277.36 L 485.14 279.77 L 484.81 282.17 L 484.49 284.58 L 484.16 286.98 L 483.84 289.39 L 483.51 291.79 L 483.19 294.20 L 482.87 296.61 L 482.54 299.01 L 482.22 301.42 L 481.89 303.82 L 481.57 306.23 L 481.25 308.63 L 480.92 311.04 L 480.60 313.45 L 480.27 315.85 L 479.95 318.26 L 479.63 320.66 L 479.30 323.07 L 478.98 325.47 L 478.65 327.88 L 478.33 330.29 L 478.00 332.69 L 477.68 335.10 L 477.36 337.50 L 477.03 339.91"/>
<path d="M 47.60 222.03 L 48.40 222.03 L 49.20 222.03 L 50.00 222.03 L 50.80 222.03 L 51.61 222.03 L 52.41 222.03 L 53.21 222.03 L 54.01 222.03 L 54.81 222.03 L 55.62 222.03 L 56.42 222.03 L 57.22 222.03 L 58.02 222.03 L 58.82 222.03 L 59.62 222.03 L 60.43 222.03 L 61.23 222.03 L 62.03 222.03 L 62.83 222.03 L 63.63 222.03 L 64.44 222.03 L 65.24 222.03 L 66.04 222.03 L 66.84 222.03 L 67.64 222.03 L 68.45 222.03 L 69.25 222.03 L 70.05 222.03 L 70.85 222.03 L 71.65 222.03 L 72.46 222.03 L 73.26 222.03 L 74.06 222.03 L 74.86 222.03 L 75.66 222.03 L 76.46 222.03 L 77.27 222.03 L 78.07 222.03 L 78.87 222.03 L 79.67 222.03 L 80.47 222.03 L 81.28 222.03 L 82.08 222.03 L 82.88 222.03 L 83.68 222.03 L 84.48 222.03 L 85.29 222.03 L 86.09 222.03 L 86.89 222.03"/>
<path d="M 47.60 222.03 L 47.60 223.63 L 47.60 225.24 L 47.60 226.84 L 47.60 228.44 L 47.60 230.05 L 47.60 231.65 L 47.60 233.26 L 47.60 234.86 L 47.60 236.46 L 47.60 238.07 L 47.60 239.67 L 47.60 241.28 L 47.60 242.88 L 47.60 244.48 L 47.60 246.09 L 47.60 247.69 L 47.60 249.29 L 47.60 250.90 L 47.60 252.50 L 47.60 254.11 L 47.60 255.71 L 47.60 257.31 L 47.60 258.92 L 47.60 260.52 L 47.60 262.12 L 47.60 263.73 L 47.60 265.33 L 47.60 266.94 L 47.60 268.54 L 47.60 270.14 L 47.60 271.75 L 47.60 273.35 L 47.60 274.95 L 47.60 276.56 L 47.60 278.16 L 47.60 279.77 L 47.60 281.37 L 47.60 282.97 L 47.60 284.58 L 47.60 286.18 L 47.60 287.78 L 47.60 289.39 L 47.60 290.99 L 47.60 292.60 L 47.60 294.20 L 47.60 295.80 L 47.60 297.41 L 47.60 299.01 L 47.60 300.62"/>
<path d="M 47.60 300.62 L 48.40 300.62 L 49.20 300.62 L 50.00 300.62 L 50.80 300.62 L 51.61 300.62 L 52.41 300.62 L 53.21 300.62 L 54.01 300.62 L 54.81 300.62 L 55.62 300.62 L 56.42 300.62 L 57.22 300.62 L 58.02 300.62 L 58.82 300.62 L 59.62 300.62 L 60.43 300.62 L 61.23 300.62 L 62.03 300.62 L 62.83 300.62 L 63.63 300.62 L 64.44 300.62 L 65.24 300.62 L 66.04 300.62 L 66.84 300.62 L 67.64 300.62 L 68.45 300.62 L 69.25 300.62 L 70.05 300.62 L 70.85 300.62 L 71.65 300.62 L 72.46 300.62 L 73.26 300.62 L 74.06 300.62 L 74.86 300.62 L 75.66 300.62 L 76.46 300.62 L 77.27 300.62 L 78.07 300.62 L 78.87 300.62 L 79.67 300.62 L 80.47 300.62 L 81.28 300.62 L 82.08 300.62 L 82.88 300.62 L 83.68 300.62 L 84.48 300.62 L 85.29 300.62 L 86.09 300.62 L 86.89 300.62"/>
<path d="M 86.89 222.03 L 86.89 223.63 L 86.89 225.24 L 86.89 226.84 L 86.89 228.44 L 86.89 230.05 L 86.89 231.65 L 86.89 233.26 L 86.89 234.86 L 86.89 236.46 L 86.89 238.07 L 86.89 239.67 L 86.89 241.28 L 86.89 242.88 L 86.89 244.48 L 86.89 246.09 L 86.89 247.69 L 86.89 249.29 L 86.89 250.90 L 86.89 252.50 L 86.89 254.11 L 86.89 255.71 L 86.89 257.31 L 86.89 258.92 L 86.89 260.52 L 86.89 262.12 L 86.89 263.73 L 86.89 265.33 L 86.89 266.94 L 86.89 268.54 L 86.89 270.14 L 86.89 271.75 L 86.89 273.35 L 86.89 274.95 L 86.89 276.56 L 86.89 278.16 L 86.89 279.77 L 86.89 281.37 L 86.89 282.97 L 86.89 284.58 L 86.89 286.18 L 86.89 287.78 L 86.89 289.39 L 86.89 290.99 L 86.89 292.60 L 86.89 294.20 L 86.89 295.80 L 86.89 297.41 L 86.89 299.01 L 86.89 300.62"/>
<path d="M 65.28 300.62 L 65.28 296.61 L 65.28 292.60 L 65.28 288.59 L 65.28 284.58 L 65.28 280.57 L 65.28 276.56 L 65.28 272.55 L 65.28 268.54 L 65.28 264.53 L 65.28 260.52 L 65.28 256.51 L 65.28 252.50 L 65.28 248.49 L 65.28 244.48 L 65.28 240.47 L 65.28 236.46 L 65.28 232.45 L 65.28 228.44 L 65.28 224.44 L 65.28 220.43 L 65.28 216.42 L 65.28 212.41 L 65.28 208.40 L 65.28 204.39 L 65.28 200.38 L 65.28 196.37 L 65.28 192.36 L 65.28 188.35 L 65.28 184.34 L 65.28 180.33 L 65.28 176.32 L 65.28 172.31 L 65.28 168.30 L 65.28 164.29 L 65.28 160.28 L 65.28 156.27 L 65.28 152.26 L 65.28 148.26 L 65.28 144.25 L 65.28 140.24 L 65.28 136.23 L 65.28 132.22 L 65.28 128.21 L 65.28 124.20 L 65.28 120.19 L 65.28 116.18 L 65.28 112.17 L 65.28 108.16 L 65.28 104.15"/>
<path d="M 65.28 300.62 L 65.36 300.62 L 65.44 300.62 L 65.52 300.62 L 65.60 300.62 L 65.68 300.62 L 65.76 300.62 L 65.84 300.62 L 65.92 300.62 L 66.00 300.62 L 66.08 300.62 L 66.16 300.62 L 66.24 300.62 L 66.32 300.62 L 66.40 300.62 L 66.48 300.62 L 66.56 300.62 L 66.64 300.62 L 66.72 300.62 L 66.80 300.62 L 66.88 300.62 L 66.96 300.62 L 67.04 300.62 L 67.12 300.62 L 67.20 300.62 L 67.28 300.62 L 67.36 300.62 L 67.44 300.62 L 67.52 300.62 L 67.60 300.62 L 67.68 300.62 L 67.76 300.62 L 67.84 300.62 L 67.92 300.62 L 68.00 300.62 L 68.08 300.62 L 68.16 300.62 L 68.24 300.62 L 68.32 300.62 L 68.40 300.62 L 68.48 300.62 L 68.56 300.62 L 68.64 300.62 L 68.72 300.62 L 68.80 300.62 L 68.88 300.62 L 68.96 300.62 L 69.04 300.62 L 69.12 300.62 L 69.20 300.62"/>
<path d="M 69.20 300.62 L 69.20 296.61 L 69.20 292.60 L 69.20 288.59 L 69.20 284.58 L 69.20 280.57 L 69.20 276.56 L 69.20 272.55 L 69.20 268.54 L 69.20 264.53 L 69.20 260.52 L 69.20 256.51 L 69.20 252.50 L 69.20 248.49 L 69.20 244.48 L 69.20 240.47 L 69.20 236.46 L 69.20 232.45 L 69.20 228.44 L 69.20 224.44 L 69.20 220.43 L 69.20 216.42 L 69.20 212.41 L 69.20 208.40 L 69.20 204.39 L 69.20 200.38 L 69.20 196.37 L 69.20 192.36 L 69.20 188.35 L 69.20 184.34 L 69.20 180.33 L 69.20 176.32 L 69.20 172.31 L 69.20 168.30 L 69.20 164.29 L 69.20 160.28 L 69.20 156.27 L 69.20 152.26 L 69.20 148.26 L 69.20 144.25 L 69.20 140.24 L 69.20 136.23 L 69.20 132.22 L 69.20 128.21 L 69.20 124.20 L 69.20 120.19 L 69.20 116.18 L 69.20 112.17 L 69.20 108.16 L 69.20 104.15"/>
<path d="M 65.28 104.15 L 65.36 104.15 L 65.44 104.15 L 65.52 104.15 L 65.60 104.15 L 65.68 104.15 L 65.76 104.15 L 65.84 104.15 L 65.92 104.15 L 66.00 104.15 L 66.08 104.15 L 66.16 104.15 L 66.24 104.15 L 66.32 104.15 L 66.40 104.15 L 66.48 104.15 L 66.56 104.15 L 66.64 104.15 L 66.72 104.15 L 66.80 104.15 L 66.88 104.15 L 66.96 104.15 L 67.04 104.15 L 67.12 104.15 L 67.20 104.15 L 67.28 104.15 L 67.36 104.15 L 67.44 104.15 L 67.52 104.15 L 67.60 104.15 L 67.68 104.15 L 67.76 104.15 L 67.84 104.15 L 67.92 104.15 L 68.00 104.15 L 68.08 104.15 L 68.16 104.15 L 68.24 104.15 L 68.32 104.15 L 68.40 104.15 L 68.48 104.15 L 68.56 104.15 L 68.64 104.15 L 68.72 104.15 L 68.80 104.15 L 68.88 104.15 L 68.96 104.15 L 69.04 104.15 L 69.12 104.15 L 69.20 104.15"/>
<path d="M 519.11 104.15 L 519.11 82.77 L 519.11 61.38 L 519.11 40.00"/>
<path d="M 519.11 104.15 L 519.12 104.15 L 519.13 104.15 L 519.14 104.15 L 519.15 104.15 L 519.16 104.15 L 519.17 104.15 L 519.19 104.15 L 519.20 104.15 L 519.21 104.15 L 519.22 104.15 L 519.23 104.15 L 519.24 104.15 L 519.25 104.15 L 519.26 104.15 L 519.27 104.15 L 519.28 104.15 L 519.29 104.15 L 519.30 104.15 L 519.31 104.15 L 519.32 104.15 L 519.34 104.15 L 519.35 104.15 L 519.36 104.15 L 519.37 104.15 L 519.38 104.15 L 519.39 104.15 L 519.40 104.15 L 519.41 104.15 L 519.42 104.15 L 519.43 104.15 L 519.44 104.15 L 519.45 104.15 L 519.46 104.15 L 519.47 104.15 L 519.48 104.15 L 519.50 104.15 L 519.51 104.15 L 519.52 104.15 L 519.53 104.15 L 519.54 104.15 L 519.55 104.15 L 519.56 104.15 L 519.57 104.15 L 519.58 104.15 L 519.59 104.15 L 519.60 104.15 L 519.61 104.15 L 519.62 104.15 L 519.63 104.15"/>
<path d="M 519.63 104.15 L 519.63 82.77 L 519.63 61.38 L 519.63 40.00"/>
<path d="M 531.68 104.15 L 531.69 104.15 L 531.70 104.15 L 531.71 104.15 L 531.72 104.15 L 531.74 104.15 L 531.75 104.15 L 531.76 104.15 L 531.77 104.15 L 531.78 104.15 L 531.79 104.15 L 531.80 104.15 L 531.81 104.15 L 531.82 104.15 L 531.83 104.15 L 531.84 104.15 L 531.85 104.15 L 531.86 104.15 L 531.87 104.15 L 531.88 104.15 L 531.90 104.15 L 531.91 104.15 L 531.92 104.15 L 531.93 104.15 L 531.94 104.15 L 531.95 104.15 L 531.96 104.15 L 531.97 104.15 L 531.98 104.15 L 531.99 104.15 L 532.00 104.15 L 532.01 104.15 L 532.02 104.15 L 532.03 104.15 L 532.05 104.15 L 532.06 104.15 L 532.07 104.15 L 532.08 104.15 L 532.09 104.15 L 532.10 104.15 L 532.11 104.15 L 532.12 104.15 L 532.13 104.15 L 532.14 104.15 L 532.15 104.15 L 532.16 104.15 L 532.17 104.15 L 532.18 104.15 L 532.19 104.15 L 532.21 104.15"/>
<path d="M 532.21 104.15 L 532.21 82.77 L 532.21 61.38 L 532.21 40.00"/>
<path d="M 531.68 104.15 L 531.68 82.77 L 531.68 61.38 L 531.68 40.00"/>
</g>
<g stroke="black" stroke-width="1" fill="black">
<line x1="40.0" y1="394.9" x2="171.0" y2="394.9"/>
<line x1="40.0" y1="389.9" x2="40.0" y2="399.9"/>
<line x1="171.0" y1="389.9" x2="171.0" y2="399.9"/>
<text x="105.5" y="386.9" text-anchor="middle" font-family="sans-serif" font-size="10">1 m</text>
</g>
</svg>