<?xml version="1.0" encoding="UTF-8"?>
<svg xmlns="http://www.w3.org/2000/svg" version="1.1" width="680.0" height="603.0" viewBox="0 0 680.0 603.0">
<g fill="none" stroke="#c8c8c8" stroke-width="1.0">
<path d="M 160.00 42.05 L 160.82 52.54 L 163.23 62.79 L 166.98 72.63 L 171.85 81.97 L 177.59 90.81 L 183.99 99.17 L 190.92 107.12 L 198.25 114.68 L 205.90 121.93 L 213.81 128.89 L 221.93 135.61 L 230.22 142.12 L 238.64 148.45 L 247.19 154.62 L 255.84 160.63 L 264.57 166.53 L 273.33 172.39 L 282.12 178.21 L 291.04 183.82 L 300.16 189.08 L 309.23 194.45 L 317.80 200.57 L 325.95 207.25 L 334.87 212.80 L 345.13 212.80 L 354.05 207.25 L 362.20 200.57 L 370.77 194.45 L 379.84 189.08 L 388.96 183.82 L 397.88 178.21 L 406.67 172.39 L 415.43 166.53 L 424.16 160.63 L 432.81 154.62 L 441.36 148.45 L 449.78 142.12 L 458.07 135.61 L 466.19 128.89 L 474.10 121.93 L 481.75 114.68 L 489.08 107.12 L 496.01 99.17 L 502.41 90.81 L 508.15 81.97 L 513.02 72.63 L 516.77 62.79 L 519.18 52.54 L 520.00 42.05"/>
<path d="M 520.00 42.05 L 512.66 42.05 L 505.31 42.05 L 497.96 42.05 L 490.62 42.05 L 483.27 42.05 L 475.92 42.05 L 468.57 42.05 L 461.23 42.05 L 453.88 42.05 L 446.53 42.05 L 439.19 42.05 L 431.84 42.05 L 424.49 42.05 L 417.14 42.05 L 409.80 42.05 L 402.45 42.05 L 395.10 42.05 L 387.76 42.05 L 380.41 42.05 L 373.06 42.05 L 365.71 42.05 L 358.37 42.05 L 351.02 42.05 L 343.67 42.05 L 336.33 42.05 L 328.98 42.05 L 321.63 42.05 L 314.29 42.05 L 306.94 42.05 L 299.59 42.05 L 292.24 42.05 L 284.90 42.05 L 277.55 42.05 L 270.20 42.05 L 262.86 42.05 L 255.51 42.05 L 248.16 42.05 L 240.81 42.05 L 233.47 42.05 L 226.12 42.05 L 218.77 42.05 L 211.43 42.05 L 204.08 42.05 L 196.73 42.05 L 189.38 42.05 L 182.04 42.05 L 174.69 42.05 L 167.34 42.05 L 160.00 42.05"/>
</g>
<g fill="none" stroke="#aaaaaa" stroke-width="1.0">
<path d="M 569.09 42.05 L 569.14 42.05 L 569.18 42.05 L 569.23 42.05 L 569.27 42.05 L 569.31 42.05 L 569.36 42.05 L 569.40 42.05 L 569.45 42.05 L 569.49 42.05 L 569.54 42.05 L 569.58 42.05 L 569.63 42.05 L 569.67 42.05 L 569.71 42.05 L 569.76 42.05 L 569.80 42.05 L 569.85 42.05 L 569.89 42.05 L 569.94 42.05 L 569.98 42.05 L 570.03 42.05 L 570.07 42.05 L 570.12 42.05 L 570.16 42.05 L 570.20 42.05 L 570.25 42.05 L 570.29 42.05 L 570.34 42.05 L 570.38 42.05 L 570.43 42.05 L 570.47 42.05 L 570.52 42.05 L 570.56 42.05 L 570.61 42.05 L 570.65 42.05 L 570.69 42.05 L 570.74 42.05 L 570.78 42.05 L 570.83 42.05 L 570.87 42.05 L 570.92 42.05 L 570.96 42.05 L 571.01 42.05 L 571.05 42.05 L 571.10 42.05 L 571.14 42.05 L 571.18 42.05 L 571.23 42.05 L 571.27 42.05"/>
<path d="M 571.27 42.05 L 570.16 55.22 L 566.92 68.04 L 561.90 80.28 L 555.45 91.83 L 547.91 102.71 L 539.54 112.96 L 530.55 122.67 L 521.06 131.90 L 511.19 140.72 L 501.01 149.18 L 490.59 157.35 L 479.97 165.25 L 469.19 172.93 L 458.26 180.41 L 447.21 187.69 L 436.07 194.85 L 424.91 201.96 L 413.70 209.01 L 402.33 215.79 L 390.72 222.15 L 379.21 228.67 L 368.28 236.13 L 357.84 244.27 L 346.46 250.95 L 333.54 250.95 L 322.16 244.27 L 311.72 236.13 L 300.79 228.67 L 289.28 222.15 L 277.67 215.79 L 266.30 209.01 L 255.09 201.96 L 243.93 194.85 L 232.79 187.69 L 221.74 180.41 L 210.81 172.93 L 200.03 165.25 L 189.41 157.35 L 178.99 149.18 L 168.81 140.72 L 158.94 131.90 L 149.45 122.67 L 140.46 112.96 L 132.09 102.71 L 124.55 91.83 L 118.10 80.28 L 113.08 68.04 L 109.84 55.22 L 108.73 42.05"/>
<path d="M 108.73 42.05 L 108.77 42.05 L 108.82 42.05 L 108.86 42.05 L 108.90 42.05 L 108.95 42.05 L 108.99 42.05 L 109.04 42.05 L 109.08 42.05 L 109.13 42.05 L 109.17 42.05 L 109.22 42.05 L 109.26 42.05 L 109.31 42.05 L 109.35 42.05 L 109.39 42.05 L 109.44 42.05 L 109.48 42.05 L 109.53 42.05 L 109.57 42.05 L 109.62 42.05 L 109.66 42.05 L 109.71 42.05 L 109.75 42.05 L 109.80 42.05 L 109.84 42.05 L 109.88 42.05 L 109.93 42.05 L 109.97 42.05 L 110.02 42.05 L 110.06 42.05 L 110.11 42.05 L 110.15 42.05 L 110.20 42.05 L 110.24 42.05 L 110.29 42.05 L 110.33 42.05 L 110.37 42.05 L 110.42 42.05 L 110.46 42.05 L 110.51 42.05 L 110.55 42.05 L 110.60 42.05 L 110.64 42.05 L 110.69 42.05 L 110.73 42.05 L 110.77 42.05 L 110.82 42.05 L 110.86 42.05 L 110.91 42.05"/>
<path d="M 569.09 42.05 L 567.99 55.09 L 564.77 67.78 L 559.80 79.90 L 553.41 91.34 L 545.94 102.10 L 537.64 112.25 L 528.73 121.85 L 519.33 130.99 L 509.55 139.71 L 499.47 148.09 L 489.15 156.16 L 478.63 163.98 L 467.95 171.58 L 457.13 178.98 L 446.18 186.19 L 435.15 193.27 L 424.09 200.31 L 413.00 207.28 L 401.74 213.99 L 390.24 220.28 L 378.83 226.73 L 368.01 234.12 L 357.67 242.17 L 346.40 248.78 L 333.60 248.78 L 322.33 242.17 L 311.99 234.12 L 301.17 226.73 L 289.76 220.28 L 278.26 213.99 L 267.00 207.28 L 255.91 200.31 L 244.85 193.27 L 233.82 186.19 L 222.87 178.98 L 212.05 171.58 L 201.37 163.98 L 190.85 156.16 L 180.53 148.09 L 170.45 139.71 L 160.67 130.99 L 151.27 121.85 L 142.36 112.25 L 134.06 102.10 L 126.59 91.34 L 120.20 79.90 L 115.23 67.78 L 112.01 55.09 L 110.91 42.05"/>
<path d="M 108.73 40.00 L 108.73 40.04 L 108.73 40.09 L 108.73 40.13 L 108.73 40.18 L 108.73 40.22 L 108.73 40.27 L 108.73 40.31 L 108.73 40.36 L 108.73 40.40 L 108.73 40.45 L 108.73 40.49 L 108.73 40.53 L 108.73 40.58 L 108.73 40.62 L 108.73 40.67 L 108.73 40.71 L 108.73 40.76 L 108.73 40.80 L 108.73 40.85 L 108.73 40.89 L 108.73 40.94 L 108.73 40.98 L 108.73 41.02 L 108.73 41.07 L 108.73 41.11 L 108.73 41.16 L 108.73 41.20 L 108.73 41.25 L 108.73 41.29 L 108.73 41.34 L 108.73 41.38 L 108.73 41.42 L 108.73 41.47 L 108.73 41.51 L 108.73 41.56 L 108.73 41.60 L 108.73 41.65 L 108.73 41.69 L 108.73 41.74 L 108.73 41.78 L 108.73 41.83 L 108.73 41.87 L 108.73 41.91 L 108.73 41.96 L 108.73 42.00 L 108.73 42.05 L 108.73 42.09 L 108.73 42.14 L 108.73 42.18"/>
<path d="M 571.27 40.00 L 561.83 40.00 L 552.39 40.00 L 542.95 40.00 L 533.51 40.00 L 524.08 40.00 L 514.64 40.00 L 505.20 40.00 L 495.76 40.00 L 486.32 40.00 L 476.88 40.00 L 467.44 40.00 L 458.00 40.00 L 448.56 40.00 L 439.12 40.00 L 429.68 40.00 L 420.24 40.00 L 410.80 40.00 L 401.36 40.00 L 391.92 40.00 L 382.48 40.00 L 373.04 40.00 L 363.60 40.00 L 354.16 40.00 L 344.72 40.00 L 335.28 40.00 L 325.84 40.00 L 316.40 40.00 L 306.96 40.00 L 297.52 40.00 L 288.08 40.00 L 278.64 40.00 L 269.20 40.00 L 259.76 40.00 L 250.32 40.00 L 240.88 40.00 L 231.44 40.00 L 222.00 40.00 L 212.56 40.00 L 203.12 40.00 L 193.68 40.00 L 184.24 40.00 L 174.80 40.00 L 165.36 40.00 L 155.92 40.00 L 146.49 40.00 L 137.05 40.00 L 127.61 40.00 L 118.17 40.00 L 108.73 40.00"/>
<path d="M 571.27 40.00 L 571.27 40.04 L 571.27 40.09 L 571.27 40.13 L 571.27 40.18 L 571.27 40.22 L 571.27 40.27 L 571.27 40.31 L 571.27 40.36 L 571.27 40.40 L 571.27 40.45 L 571.27 40.49 L 571.27 40.53 L 571.27 40.58 L 571.27 40.62 L 571.27 40.67 L 571.27 40.71 L 571.27 40.76 L 571.27 40.80 L 571.27 40.85 L 571.27 40.89 L 571.27 40.94 L 571.27 40.98 L 571.27 41.02 L 571.27 41.07 L 571.27 41.11 L 571.27 41.16 L 571.27 41.20 L 571.27 41.25 L 571.27 41.29 L 571.27 41.34 L 571.27 41.38 L 571.27 41.42 L 571.27 41.47 L 571.27 41.51 L 571.27 41.56 L 571.27 41.60 L 571.27 41.65 L 571.27 41.69 L 571.27 41.74 L 571.27 41.78 L 571.27 41.83 L 571.27 41.87 L 571.27 41.91 L 571.27 41.96 L 571.27 42.00 L 571.27 42.05 L 571.27 42.09 L 571.27 42.14 L 571.27 42.18"/>
<path d="M 571.27 42.18 L 561.83 42.18 L 552.39 42.18 L 542.95 42.18 L 533.51 42.18 L 524.08 42.18 L 514.64 42.18 L 505.20 42.18 L 495.76 42.18 L 486.32 42.18 L 476.88 42.18 L 467.44 42.18 L 458.00 42.18 L 448.56 42.18 L 439.12 42.18 L 429.68 42.18 L 420.24 42.18 L 410.80 42.18 L 401.36 42.18 L 391.92 42.18 L 382.48 42.18 L 373.04 42.18 L 363.60 42.18 L 354.16 42.18 L 344.72 42.18 L 335.28 42.18 L 325.84 42.18 L 316.40 42.18 L 306.96 42.18 L 297.52 42.18 L 288.08 42.18 L 278.64 42.18 L 269.20 42.18 L 259.76 42.18 L 250.32 42.18 L 240.88 42.18 L 231.44 42.18 L 222.00 42.18 L 212.56 42.18 L 203.12 42.18 L 193.68 42.18 L 184.24 42.18 L 174.80 42.18 L 165.36 42.18 L 155.92 42.18 L 146.49 42.18 L 137.05 42.18 L 127.61 42.18 L 118.17 42.18 L 108.73 42.18"/>
</g>
<g fill="none" stroke="#8c8c8c" stroke-width="1.0">
<path d="M 615.08 42.05 L 615.13 42.05 L 615.17 42.05 L 615.22 42.05 L 615.26 42.05 L 615.30 42.05 L 615.35 42.05 L 615.39 42.05 L 615.44 42.05 L 615.48 42.05 L 615.53 42.05 L 615.57 42.05 L 615.62 42.05 L 615.66 42.05 L 615.71 42.05 L 615.75 42.05 L 615.79 42.05 L 615.84 42.05 L 615.88 42.05 L 615.93 42.05 L 615.97 42.05 L 616.02 42.05 L 616.06 42.05 L 616.11 42.05 L 616.15 42.05 L 616.20 42.05 L 616.24 42.05 L 616.28 42.05 L 616.33 42.05 L 616.37 42.05 L 616.42 42.05 L 616.46 42.05 L 616.51 42.05 L 616.55 42.05 L 616.60 42.05 L 616.64 42.05 L 616.69 42.05 L 616.73 42.05 L 616.77 42.05 L 616.82 42.05 L 616.86 42.05 L 616.91 42.05 L 616.95 42.05 L 617.00 42.05 L 617.04 42.05 L 617.09 42.05 L 617.13 42.05 L 617.18 42.05 L 617.22 42.05 L 617.26 42.05"/>
<path d="M 617.26 42.05 L 615.83 57.38 L 611.68 72.21 L 605.34 86.26 L 597.29 99.40 L 587.98 111.69 L 577.74 123.22 L 566.80 134.08 L 555.33 144.39 L 543.44 154.21 L 531.23 163.63 L 518.76 172.70 L 506.07 181.47 L 493.22 190.00 L 480.22 198.29 L 467.08 206.37 L 453.86 214.30 L 440.61 222.20 L 427.31 230.01 L 413.83 237.49 L 400.10 244.51 L 386.49 251.76 L 373.53 260.11 L 361.07 269.19 L 347.56 276.53 L 332.44 276.53 L 318.93 269.19 L 306.47 260.11 L 293.51 251.76 L 279.90 244.51 L 266.17 237.49 L 252.69 230.01 L 239.39 222.20 L 226.14 214.30 L 212.92 206.37 L 199.78 198.29 L 186.78 190.00 L 173.93 181.47 L 161.24 172.70 L 148.77 163.63 L 136.56 154.21 L 124.67 144.39 L 113.20 134.08 L 102.26 123.22 L 92.02 111.69 L 82.71 99.40 L 74.66 86.26 L 68.32 72.21 L 64.17 57.38 L 62.74 42.05"/>
<path d="M 62.74 42.05 L 62.78 42.05 L 62.82 42.05 L 62.87 42.05 L 62.91 42.05 L 62.96 42.05 L 63.00 42.05 L 63.05 42.05 L 63.09 42.05 L 63.14 42.05 L 63.18 42.05 L 63.23 42.05 L 63.27 42.05 L 63.31 42.05 L 63.36 42.05 L 63.40 42.05 L 63.45 42.05 L 63.49 42.05 L 63.54 42.05 L 63.58 42.05 L 63.63 42.05 L 63.67 42.05 L 63.72 42.05 L 63.76 42.05 L 63.80 42.05 L 63.85 42.05 L 63.89 42.05 L 63.94 42.05 L 63.98 42.05 L 64.03 42.05 L 64.07 42.05 L 64.12 42.05 L 64.16 42.05 L 64.21 42.05 L 64.25 42.05 L 64.29 42.05 L 64.34 42.05 L 64.38 42.05 L 64.43 42.05 L 64.47 42.05 L 64.52 42.05 L 64.56 42.05 L 64.61 42.05 L 64.65 42.05 L 64.70 42.05 L 64.74 42.05 L 64.78 42.05 L 64.83 42.05 L 64.87 42.05 L 64.92 42.05"/>
<path d="M 615.08 42.05 L 613.66 57.25 L 609.54 71.95 L 603.24 85.88 L 595.24 98.90 L 586.00 111.08 L 575.84 122.50 L 564.98 133.26 L 553.60 143.47 L 541.80 153.21 L 529.69 162.53 L 517.31 171.52 L 504.73 180.21 L 491.98 188.65 L 479.08 196.86 L 466.05 204.86 L 452.94 212.73 L 439.80 220.55 L 426.60 228.28 L 413.23 235.69 L 399.61 242.64 L 386.11 249.82 L 373.26 258.09 L 360.90 267.09 L 347.49 274.36 L 332.51 274.36 L 319.10 267.09 L 306.74 258.09 L 293.89 249.82 L 280.39 242.64 L 266.77 235.69 L 253.40 228.28 L 240.20 220.55 L 227.06 212.73 L 213.95 204.86 L 200.92 196.86 L 188.02 188.65 L 175.27 180.21 L 162.69 171.52 L 150.31 162.53 L 138.20 153.21 L 126.40 143.47 L 115.02 133.26 L 104.16 122.50 L 94.00 111.08 L 84.76 98.90 L 76.76 85.88 L 70.46 71.95 L 66.34 57.25 L 64.92 42.05"/>
<path d="M 62.74 40.00 L 62.74 40.04 L 62.74 40.09 L 62.74 40.13 L 62.74 40.18 L 62.74 40.22 L 62.74 40.27 L 62.74 40.31 L 62.74 40.36 L 62.74 40.40 L 62.74 40.45 L 62.74 40.49 L 62.74 40.53 L 62.74 40.58 L 62.74 40.62 L 62.74 40.67 L 62.74 40.71 L 62.74 40.76 L 62.74 40.80 L 62.74 40.85 L 62.74 40.89 L 62.74 40.94 L 62.74 40.98 L 62.74 41.02 L 62.74 41.07 L 62.74 41.11 L 62.74 41.16 L 62.74 41.20 L 62.74 41.25 L 62.74 41.29 L 62.74 41.34 L 62.74 41.38 L 62.74 41.42 L 62.74 41.47 L 62.74 41.51 L 62.74 41.56 L 62.74 41.60 L 62.74 41.65 L 62.74 41.69 L 62.74 41.74 L 62.74 41.78 L 62.74 41.83 L 62.74 41.87 L 62.74 41.91 L 62.74 41.96 L 62.74 42.00 L 62.74 42.05 L 62.74 42.09 L 62.74 42.14 L 62.74 42.18"/>
<path d="M 617.26 40.00 L 605.95 40.00 L 594.63 40.00 L 583.31 40.00 L 572.00 40.00 L 560.68 40.00 L 549.36 40.00 L 538.05 40.00 L 526.73 40.00 L 515.41 40.00 L 504.10 40.00 L 492.78 40.00 L 481.46 40.00 L 470.14 40.00 L 458.83 40.00 L 447.51 40.00 L 436.19 40.00 L 424.88 40.00 L 413.56 40.00 L 402.24 40.00 L 390.93 40.00 L 379.61 40.00 L 368.29 40.00 L 356.98 40.00 L 345.66 40.00 L 334.34 40.00 L 323.02 40.00 L 311.71 40.00 L 300.39 40.00 L 289.07 40.00 L 277.76 40.00 L 266.44 40.00 L 255.12 40.00 L 243.81 40.00 L 232.49 40.00 L 221.17 40.00 L 209.86 40.00 L 198.54 40.00 L 187.22 40.00 L 175.90 40.00 L 164.59 40.00 L 153.27 40.00 L 141.95 40.00 L 130.64 40.00 L 119.32 40.00 L 108.00 40.00 L 96.69 40.00 L 85.37 40.00 L 74.05 40.00 L 62.74 40.00"/>
<path d="M 617.26 40.00 L 617.26 40.04 L 617.26 40.09 L 617.26 40.13 L 617.26 40.18 L 617.26 40.22 L 617.26 40.27 L 617.26 40.31 L 617.26 40.36 L 617.26 40.40 L 617.26 40.45 L 617.26 40.49 L 617.26 40.53 L 617.26 40.58 L 617.26 40.62 L 617.26 40.67 L 617.26 40.71 L 617.26 40.76 L 617.26 40.80 L 617.26 40.85 L 617.26 40.89 L 617.26 40.94 L 617.26 40.98 L 617.26 41.02 L 617.26 41.07 L 617.26 41.11 L 617.26 41.16 L 617.26 41.20 L 617.26 41.25 L 617.26 41.29 L 617.26 41.34 L 617.26 41.38 L 617.26 41.42 L 617.26 41.47 L 617.26 41.51 L 617.26 41.56 L 617.26 41.60 L 617.26 41.65 L 617.26 41.69 L 617.26 41.74 L 617.26 41.78 L 617.26 41.83 L 617.26 41.87 L 617.26 41.91 L 617.26 41.96 L 617.26 42.00 L 617.26 42.05 L 617.26 42.09 L 617.26 42.14 L 617.26 42.18"/>
<path d="M 617.26 42.18 L 605.95 42.18 L 594.63 42.18 L 583.31 42.18 L 572.00 42.18 L 560.68 42.18 L 549.36 42.18 L 538.05 42.18 L 526.73 42.18 L 515.41 42.18 L 504.10 42.18 L 492.78 42.18 L 481.46 42.18 L 470.14 42.18 L 458.83 42.18 L 447.51 42.18 L 436.19 42.18 L 424.88 42.18 L 413.56 42.18 L 402.24 42.18 L 390.93 42.18 L 379.61 42.18 L 368.29 42.18 L 356.98 42.18 L 345.66 42.18 L 334.34 42.18 L 323.02 42.18 L 311.71 42.18 L 300.39 42.18 L 289.07 42.18 L 277.76 42.18 L 266.44 42.18 L 255.12 42.18 L 243.81 42.18 L 232.49 42.18 L 221.17 42.18 L 209.86 42.18 L 198.54 42.18 L 187.22 42.18 L 175.90 42.18 L 164.59 42.18 L 153.27 42.18 L 141.95 42.18 L 130.64 42.18 L 119.32 42.18 L 108.00 42.18 L 96.69 42.18 L 85.37 42.18 L 74.05 42.18 L 62.74 42.18"/>
</g>
<g fill="none" stroke="#6e6e6e" stroke-width="1.0">
<path d="M 637.82 42.05 L 637.86 42.05 L 637.91 42.05 L 637.95 42.05 L 638.00 42.05 L 638.04 42.05 L 638.08 42.05 L 638.13 42.05 L 638.17 42.05 L 638.22 42.05 L 638.26 42.05 L 638.31 42.05 L 638.35 42.05 L 638.40 42.05 L 638.44 42.05 L 638.49 42.05 L 638.53 42.05 L 638.57 42.05 L 638.62 42.05 L 638.66 42.05 L 638.71 42.05 L 638.75 42.05 L 638.80 42.05 L 638.84 42.05 L 638.89 42.05 L 638.93 42.05 L 638.98 42.05 L 639.02 42.05 L 639.06 42.05 L 639.11 42.05 L 639.15 42.05 L 639.20 42.05 L 639.24 42.05 L 639.29 42.05 L 639.33 42.05 L 639.38 42.05 L 639.42 42.05 L 639.47 42.05 L 639.51 42.05 L 639.55 42.05 L 639.60 42.05 L 639.64 42.05 L 639.69 42.05 L 639.73 42.05 L 639.78 42.05 L 639.82 42.05 L 639.87 42.05 L 639.91 42.05 L 639.95 42.05 L 640.00 42.05"/>
<path d="M 640.00 42.05 L 638.37 58.36 L 633.71 74.08 L 626.63 88.88 L 617.71 102.66 L 607.47 115.49 L 596.26 127.49 L 584.33 138.78 L 571.86 149.47 L 558.98 159.65 L 545.76 169.40 L 532.29 178.78 L 518.60 187.86 L 504.75 196.67 L 490.74 205.24 L 476.59 213.59 L 462.37 221.80 L 448.12 229.97 L 433.82 238.03 L 419.32 245.74 L 404.58 252.98 L 389.98 260.49 L 376.04 269.17 L 362.60 278.59 L 348.06 286.13 L 331.94 286.13 L 317.40 278.59 L 303.96 269.17 L 290.02 260.49 L 275.42 252.98 L 260.68 245.74 L 246.18 238.03 L 231.88 229.97 L 217.63 221.80 L 203.41 213.59 L 189.26 205.24 L 175.25 196.67 L 161.40 187.86 L 147.71 178.78 L 134.24 169.40 L 121.02 159.65 L 108.14 149.47 L 95.67 138.78 L 83.74 127.49 L 72.53 115.49 L 62.29 102.66 L 53.37 88.88 L 46.29 74.08 L 41.63 58.36 L 40.00 42.05"/>
<path d="M 40.00 42.05 L 40.05 42.05 L 40.09 42.05 L 40.13 42.05 L 40.18 42.05 L 40.22 42.05 L 40.27 42.05 L 40.31 42.05 L 40.36 42.05 L 40.40 42.05 L 40.45 42.05 L 40.49 42.05 L 40.53 42.05 L 40.58 42.05 L 40.62 42.05 L 40.67 42.05 L 40.71 42.05 L 40.76 42.05 L 40.80 42.05 L 40.85 42.05 L 40.89 42.05 L 40.94 42.05 L 40.98 42.05 L 41.02 42.05 L 41.07 42.05 L 41.11 42.05 L 41.16 42.05 L 41.20 42.05 L 41.25 42.05 L 41.29 42.05 L 41.34 42.05 L 41.38 42.05 L 41.43 42.05 L 41.47 42.05 L 41.51 42.05 L 41.56 42.05 L 41.60 42.05 L 41.65 42.05 L 41.69 42.05 L 41.74 42.05 L 41.78 42.05 L 41.83 42.05 L 41.87 42.05 L 41.92 42.05 L 41.96 42.05 L 42.00 42.05 L 42.05 42.05 L 42.09 42.05 L 42.14 42.05 L 42.18 42.05"/>
<path d="M 637.82 42.05 L 636.20 58.23 L 631.56 73.82 L 624.52 88.50 L 615.66 102.16 L 605.49 114.88 L 594.35 126.77 L 582.51 137.96 L 570.13 148.55 L 557.34 158.64 L 544.22 168.30 L 530.84 177.60 L 517.26 186.59 L 503.51 195.32 L 489.60 203.81 L 475.56 212.08 L 461.45 220.22 L 447.31 228.31 L 433.11 236.30 L 418.72 243.95 L 404.09 251.11 L 389.60 258.56 L 375.77 267.15 L 362.42 276.50 L 348.00 283.96 L 332.00 283.96 L 317.58 276.50 L 304.23 267.15 L 290.40 258.56 L 275.91 251.11 L 261.28 243.95 L 246.89 236.30 L 232.69 228.31 L 218.55 220.22 L 204.44 212.08 L 190.40 203.81 L 176.49 195.32 L 162.74 186.59 L 149.16 177.60 L 135.78 168.30 L 122.66 158.64 L 109.87 148.55 L 97.49 137.96 L 85.65 126.77 L 74.51 114.88 L 64.34 102.16 L 55.48 88.50 L 48.44 73.82 L 43.80 58.23 L 42.18 42.05"/>
<path d="M 40.00 40.00 L 40.00 40.04 L 40.00 40.09 L 40.00 40.13 L 40.00 40.18 L 40.00 40.22 L 40.00 40.27 L 40.00 40.31 L 40.00 40.36 L 40.00 40.40 L 40.00 40.45 L 40.00 40.49 L 40.00 40.53 L 40.00 40.58 L 40.00 40.62 L 40.00 40.67 L 40.00 40.71 L 40.00 40.76 L 40.00 40.80 L 40.00 40.85 L 40.00 40.89 L 40.00 40.94 L 40.00 40.98 L 40.00 41.02 L 40.00 41.07 L 40.00 41.11 L 40.00 41.16 L 40.00 41.20 L 40.00 41.25 L 40.00 41.29 L 40.00 41.34 L 40.00 41.38 L 40.00 41.42 L 40.00 41.47 L 40.00 41.51 L 40.00 41.56 L 40.00 41.60 L 40.00 41.65 L 40.00 41.69 L 40.00 41.74 L 40.00 41.78 L 40.00 41.83 L 40.00 41.87 L 40.00 41.91 L 40.00 41.96 L 40.00 42.00 L 40.00 42.05 L 40.00 42.09 L 40.00 42.14 L 40.00 42.18"/>
<path d="M 640.00 40.00 L 627.76 40.00 L 615.51 40.00 L 603.27 40.00 L 591.02 40.00 L 578.78 40.00 L 566.53 40.00 L 554.29 40.00 L 542.04 40.00 L 529.80 40.00 L 517.55 40.00 L 505.31 40.00 L 493.06 40.00 L 480.82 40.00 L 468.57 40.00 L 456.33 40.00 L 444.08 40.00 L 431.84 40.00 L 419.59 40.00 L 407.35 40.00 L 395.10 40.00 L 382.86 40.00 L 370.61 40.00 L 358.37 40.00 L 346.12 40.00 L 333.88 40.00 L 321.63 40.00 L 309.39 40.00 L 297.14 40.00 L 284.90 40.00 L 272.65 40.00 L 260.41 40.00 L 248.16 40.00 L 235.92 40.00 L 223.67 40.00 L 211.43 40.00 L 199.18 40.00 L 186.94 40.00 L 174.69 40.00 L 162.45 40.00 L 150.20 40.00 L 137.96 40.00 L 125.71 40.00 L 113.47 40.00 L 101.22 40.00 L 88.98 40.00 L 76.73 40.00 L 64.49 40.00 L 52.24 40.00 L 40.00 40.00"/>
<path d="M 640.00 40.00 L 640.00 40.04 L 640.00 40.09 L 640.00 40.13 L 640.00 40.18 L 640.00 40.22 L 640.00 40.27 L 640.00 40.31 L 640.00 40.36 L 640.00 40.40 L 640.00 40.45 L 640.00 40.49 L 640.00 40.53 L 640.00 40.58 L 640.00 40.62 L 640.00 40.67 L 640.00 40.71 L 640.00 40.76 L 640.00 40.80 L 640.00 40.85 L 640.00 40.89 L 640.00 40.94 L 640.00 40.98 L 640.00 41.02 L 640.00 41.07 L 640.00 41.11 L 640.00 41.16 L 640.00 41.20 L 640.00 41.25 L 640.00 41.29 L 640.00 41.34 L 640.00 41.38 L 640.00 41.42 L 640.00 41.47 L 640.00 41.51 L 640.00 41.56 L 640.00 41.60 L 640.00 41.65 L 640.00 41.69 L 640.00 41.74 L 640.00 41.78 L 640.00 41.83 L 640.00 41.87 L 640.00 41.91 L 640.00 41.96 L 640.00 42.00 L 640.00 42.05 L 640.00 42.09 L 640.00 42.14 L 640.00 42.18"/>
<path d="M 640.00 42.18 L 627.76 42.18 L 615.51 42.18 L 603.27 42.18 L 591.02 42.18 L 578.78 42.18 L 566.53 42.18 L 554.29 42.18 L 542.04 42.18 L 529.80 42.18 L 517.55 42.18 L 505.31 42.18 L 493.06 42.18 L 480.82 42.18 L 468.57 42.18 L 456.33 42.18 L 444.08 42.18 L 431.84 42.18 L 419.59 42.18 L 407.35 42.18 L 395.10 42.18 L 382.86 42.18 L 370.61 42.18 L 358.37 42.18 L 346.12 42.18 L 333.88 42.18 L 321.63 42.18 L 309.39 42.18 L 297.14 42.18 L 284.90 42.18 L 272.65 42.18 L 260.41 42.18 L 248.16 42.18 L 235.92 42.18 L 223.67 42.18 L 211.43 42.18 L 199.18 42.18 L 186.94 42.18 L 174.69 42.18 L 162.45 42.18 L 150.20 42.18 L 137.96 42.18 L 125.71 42.18 L 113.47 42.18 L 101.22 42.18 L 88.98 42.18 L 76.73 42.18 L 64.49 42.18 L 52.24 42.18 L 40.00 42.18"/>
<path d="M 326.91 287.50 L 327.44 287.50 L 327.98 287.50 L 328.51 287.50 L 329.05 287.50 L 329.58 287.50 L 330.11 287.50 L 330.65 287.50 L 331.18 287.50 L 331.72 287.50 L 332.25 287.50 L 332.79 287.50 L 333.32 287.50 L 333.86 287.50 L 334.39 287.50 L 334.92 287.50 L 335.46 287.50 L 335.99 287.50 L 336.53 287.50 L 337.06 287.50 L 337.60 287.50 L 338.13 287.50 L 338.66 287.50 L 339.20 287.50 L 339.73 287.50 L 340.27 287.50 L 340.80 287.50 L 341.34 287.50 L 341.87 287.50 L 342.40 287.50 L 342.94 287.50 L 343.47 287.50 L 344.01 287.50 L 344.54 287.50 L 345.08 287.50 L 345.61 287.50 L 346.14 287.50 L 346.68 287.50 L 347.21 287.50 L 347.75 287.50 L 348.28 287.50 L 348.82 287.50 L 349.35 287.50 L 349.89 287.50 L 350.42 287.50 L 350.95 287.50 L 351.49 287.50 L 352.02 287.50 L 352.56 287.50 L 353.09 287.50"/>
<path d="M 353.09 287.50 L 352.96 292.51 L 352.82 297.52 L 352.69 302.53 L 352.56 307.54 L 352.42 312.55 L 352.29 317.56 L 352.16 322.57 L 352.02 327.58 L 351.89 332.59 L 351.76 337.60 L 351.62 342.61 L 351.49 347.62 L 351.35 352.63 L 351.22 357.64 L 351.09 362.65 L 350.95 367.65 L 350.82 372.66 L 350.69 377.67 L 350.55 382.68 L 350.42 387.69 L 350.29 392.70 L 350.15 397.71 L 350.02 402.72 L 349.89 407.73 L 349.75 412.74 L 349.62 417.75 L 349.48 422.76 L 349.35 427.77 L 349.22 432.78 L 349.08 437.79 L 348.95 442.80 L 348.82 447.81 L 348.68 452.81 L 348.55 457.82 L 348.42 462.83 L 348.28 467.84 L 348.15 472.85 L 348.02 477.86 L 347.88 482.87 L 347.75 487.88 L 347.61 492.89 L 347.48 497.90 L 347.35 502.91 L 347.21 507.92 L 347.08 512.93 L 346.95 517.94 L 346.81 522.95 L 346.68 527.96 L 346.55 532.96"/>
<path d="M 333.45 532.96 L 333.72 532.96 L 333.99 532.96 L 334.26 532.96 L 334.52 532.96 L 334.79 532.96 L 335.06 532.96 L 335.32 532.96 L 335.59 532.96 L 335.86 532.96 L 336.13 532.96 L 336.39 532.96 L 336.66 532.96 L 336.93 532.96 L 337.19 532.96 L 337.46 532.96 L 337.73 532.96 L 338.00 532.96 L 338.26 532.96 L 338.53 532.96 L 338.80 532.96 L 339.06 532.96 L 339.33 532.96 L 339.60 532.96 L 339.87 532.96 L 340.13 532.96 L 340.40 532.96 L 340.67 532.96 L 340.94 532.96 L 341.20 532.96 L 341.47 532.96 L 341.74 532.96 L 342.00 532.96 L 342.27 532.96 L 342.54 532.96 L 342.81 532.96 L 343.07 532.96 L 343.34 532.96 L 343.61 532.96 L 343.87 532.96 L 344.14 532.96 L 344.41 532.96 L 344.68 532.96 L 344.94 532.96 L 345.21 532.96 L 345.48 532.96 L 345.74 532.96 L 346.01 532.96 L 346.28 532.96 L 346.55 532.96"/>
<path d="M 326.91 287.50 L 327.04 292.51 L 327.18 297.52 L 327.31 302.53 L 327.44 307.54 L 327.58 312.55 L 327.71 317.56 L 327.84 322.57 L 327.98 327.58 L 328.11 332.59 L 328.24 337.60 L 328.38 342.61 L 328.51 347.62 L 328.65 352.63 L 328.78 357.64 L 328.91 362.65 L 329.05 367.65 L 329.18 372.66 L 329.31 377.67 L 329.45 382.68 L 329.58 387.69 L 329.71 392.70 L 329.85 397.71 L 329.98 402.72 L 330.11 407.73 L 330.25 412.74 L 330.38 417.75 L 330.52 422.76 L 330.65 427.77 L 330.78 432.78 L 330.92 437.79 L 331.05 442.80 L 331.18 447.81 L 331.32 452.81 L 331.45 457.82 L 331.58 462.83 L 331.72 467.84 L 331.85 472.85 L 331.98 477.86 L 332.12 482.87 L 332.25 487.88 L 332.39 492.89 L 332.52 497.90 L 332.65 502.91 L 332.79 507.92 L 332.92 512.93 L 333.05 517.94 L 333.19 522.95 L 333.32 527.96 L 333.45 532.96"/>
</g>
<g fill="none" stroke="#505050" stroke-width="1.0">
<path d="M 595.27 42.05 L 595.31 42.05 L 595.36 42.05 L 595.40 42.05 L 595.45 42.05 L 595.49 42.05 L 595.53 42.05 L 595.58 42.05 L 595.62 42.05 L 595.67 42.05 L 595.71 42.05 L 595.76 42.05 L 595.80 42.05 L 595.85 42.05 L 595.89 42.05 L 595.94 42.05 L 595.98 42.05 L 596.02 42.05 L 596.07 42.05 L 596.11 42.05 L 596.16 42.05 L 596.20 42.05 L 596.25 42.05 L 596.29 42.05 L 596.34 42.05 L 596.38 42.05 L 596.43 42.05 L 596.47 42.05 L 596.51 42.05 L 596.56 42.05 L 596.60 42.05 L 596.65 42.05 L 596.69 42.05 L 596.74 42.05 L 596.78 42.05 L 596.83 42.05 L 596.87 42.05 L 596.91 42.05 L 596.96 42.05 L 597.00 42.05 L 597.05 42.05 L 597.09 42.05 L 597.14 42.05 L 597.18 42.05 L 597.23 42.05 L 597.27 42.05 L 597.32 42.05 L 597.36 42.05 L 597.40 42.05 L 597.45 42.05"/>
<path d="M 597.45 42.05 L 596.18 56.57 L 592.49 70.68 L 586.80 84.11 L 579.53 96.76 L 571.05 108.64 L 561.67 119.82 L 551.61 130.39 L 541.01 140.44 L 530.01 150.03 L 518.68 159.23 L 507.08 168.10 L 495.27 176.69 L 483.29 185.03 L 471.16 193.15 L 458.89 201.06 L 446.54 208.84 L 434.15 216.57 L 421.72 224.22 L 409.11 231.57 L 396.24 238.47 L 383.48 245.56 L 371.37 253.69 L 359.76 262.54 L 347.14 269.78 L 332.86 269.78 L 320.24 262.54 L 308.63 253.69 L 296.52 245.56 L 283.76 238.47 L 270.89 231.57 L 258.28 224.22 L 245.85 216.57 L 233.46 208.84 L 221.11 201.06 L 208.84 193.15 L 196.71 185.03 L 184.73 176.69 L 172.92 168.10 L 161.32 159.23 L 149.99 150.03 L 138.99 140.44 L 128.39 130.39 L 118.33 119.82 L 108.95 108.64 L 100.47 96.76 L 93.20 84.11 L 87.51 70.68 L 83.82 56.57 L 82.55 42.05"/>
<path d="M 82.55 42.05 L 82.60 42.05 L 82.64 42.05 L 82.68 42.05 L 82.73 42.05 L 82.77 42.05 L 82.82 42.05 L 82.86 42.05 L 82.91 42.05 L 82.95 42.05 L 83.00 42.05 L 83.04 42.05 L 83.09 42.05 L 83.13 42.05 L 83.17 42.05 L 83.22 42.05 L 83.26 42.05 L 83.31 42.05 L 83.35 42.05 L 83.40 42.05 L 83.44 42.05 L 83.49 42.05 L 83.53 42.05 L 83.57 42.05 L 83.62 42.05 L 83.66 42.05 L 83.71 42.05 L 83.75 42.05 L 83.80 42.05 L 83.84 42.05 L 83.89 42.05 L 83.93 42.05 L 83.98 42.05 L 84.02 42.05 L 84.06 42.05 L 84.11 42.05 L 84.15 42.05 L 84.20 42.05 L 84.24 42.05 L 84.29 42.05 L 84.33 42.05 L 84.38 42.05 L 84.42 42.05 L 84.47 42.05 L 84.51 42.05 L 84.55 42.05 L 84.60 42.05 L 84.64 42.05 L 84.69 42.05 L 84.73 42.05"/>
<path d="M 595.27 42.05 L 594.01 56.44 L 590.34 70.42 L 584.70 83.73 L 577.48 96.26 L 569.07 108.03 L 559.77 119.11 L 549.79 129.58 L 539.28 139.52 L 528.37 149.02 L 517.13 158.14 L 505.64 166.92 L 493.93 175.42 L 482.06 183.69 L 470.03 191.73 L 457.87 199.56 L 445.62 207.26 L 433.34 214.92 L 421.01 222.49 L 408.51 229.77 L 395.75 236.60 L 383.11 243.62 L 371.09 251.67 L 359.59 260.45 L 347.07 267.61 L 332.93 267.61 L 320.41 260.45 L 308.91 251.67 L 296.89 243.62 L 284.25 236.60 L 271.49 229.77 L 258.99 222.49 L 246.66 214.92 L 234.38 207.26 L 222.13 199.56 L 209.97 191.73 L 197.94 183.69 L 186.07 175.42 L 174.36 166.92 L 162.87 158.14 L 151.63 149.02 L 140.72 139.52 L 130.21 129.58 L 120.23 119.11 L 110.93 108.03 L 102.52 96.26 L 95.30 83.73 L 89.66 70.42 L 85.99 56.44 L 84.73 42.05"/>
<path d="M 82.55 40.00 L 82.55 40.04 L 82.55 40.09 L 82.55 40.13 L 82.55 40.18 L 82.55 40.22 L 82.55 40.27 L 82.55 40.31 L 82.55 40.36 L 82.55 40.40 L 82.55 40.45 L 82.55 40.49 L 82.55 40.53 L 82.55 40.58 L 82.55 40.62 L 82.55 40.67 L 82.55 40.71 L 82.55 40.76 L 82.55 40.80 L 82.55 40.85 L 82.55 40.89 L 82.55 40.94 L 82.55 40.98 L 82.55 41.02 L 82.55 41.07 L 82.55 41.11 L 82.55 41.16 L 82.55 41.20 L 82.55 41.25 L 82.55 41.29 L 82.55 41.34 L 82.55 41.38 L 82.55 41.42 L 82.55 41.47 L 82.55 41.51 L 82.55 41.56 L 82.55 41.60 L 82.55 41.65 L 82.55 41.69 L 82.55 41.74 L 82.55 41.78 L 82.55 41.83 L 82.55 41.87 L 82.55 41.91 L 82.55 41.96 L 82.55 42.00 L 82.55 42.05 L 82.55 42.09 L 82.55 42.14 L 82.55 42.18"/>
<path d="M 597.45 40.00 L 586.94 40.00 L 576.43 40.00 L 565.93 40.00 L 555.42 40.00 L 544.91 40.00 L 534.40 40.00 L 523.89 40.00 L 513.38 40.00 L 502.88 40.00 L 492.37 40.00 L 481.86 40.00 L 471.35 40.00 L 460.84 40.00 L 450.34 40.00 L 439.83 40.00 L 429.32 40.00 L 418.81 40.00 L 408.30 40.00 L 397.79 40.00 L 387.29 40.00 L 376.78 40.00 L 366.27 40.00 L 355.76 40.00 L 345.25 40.00 L 334.75 40.00 L 324.24 40.00 L 313.73 40.00 L 303.22 40.00 L 292.71 40.00 L 282.21 40.00 L 271.70 40.00 L 261.19 40.00 L 250.68 40.00 L 240.17 40.00 L 229.66 40.00 L 219.16 40.00 L 208.65 40.00 L 198.14 40.00 L 187.63 40.00 L 177.12 40.00 L 166.62 40.00 L 156.11 40.00 L 145.60 40.00 L 135.09 40.00 L 124.58 40.00 L 114.07 40.00 L 103.57 40.00 L 93.06 40.00 L 82.55 40.00"/>
<path d="M 597.45 40.00 L 597.45 40.04 L 597.45 40.09 L 597.45 40.13 L 597.45 40.18 L 597.45 40.22 L 597.45 40.27 L 597.45 40.31 L 597.45 40.36 L 597.45 40.40 L 597.45 40.45 L 597.45 40.49 L 597.45 40.53 L 597.45 40.58 L 597.45 40.62 L 597.45 40.67 L 597.45 40.71 L 597.45 40.76 L 597.45 40.80 L 597.45 40.85 L 597.45 40.89 L 597.45 40.94 L 597.45 40.98 L 597.45 41.02 L 597.45 41.07 L 597.45 41.11 L 597.45 41.16 L 597.45 41.20 L 597.45 41.25 L 597.45 41.29 L 597.45 41.34 L 597.45 41.38 L 597.45 41.42 L 597.45 41.47 L 597.45 41.51 L 597.45 41.56 L 597.45 41.60 L 597.45 41.65 L 597.45 41.69 L 597.45 41.74 L 597.45 41.78 L 597.45 41.83 L 597.45 41.87 L 597.45 41.91 L 597.45 41.96 L 597.45 42.00 L 597.45 42.05 L 597.45 42.09 L 597.45 42.14 L 597.45 42.18"/>
<path d="M 597.45 42.18 L 586.94 42.18 L 576.43 42.18 L 565.93 42.18 L 555.42 42.18 L 544.91 42.18 L 534.40 42.18 L 523.89 42.18 L 513.38 42.18 L 502.88 42.18 L 492.37 42.18 L 481.86 42.18 L 471.35 42.18 L 460.84 42.18 L 450.34 42.18 L 439.83 42.18 L 429.32 42.18 L 418.81 42.18 L 408.30 42.18 L 397.79 42.18 L 387.29 42.18 L 376.78 42.18 L 366.27 42.18 L 355.76 42.18 L 345.25 42.18 L 334.75 42.18 L 324.24 42.18 L 313.73 42.18 L 303.22 42.18 L 292.71 42.18 L 282.21 42.18 L 271.70 42.18 L 261.19 42.18 L 250.68 42.18 L 240.17 42.18 L 229.66 42.18 L 219.16 42.18 L 208.65 42.18 L 198.14 42.18 L 187.63 42.18 L 177.12 42.18 L 166.62 42.18 L 156.11 42.18 L 145.60 42.18 L 135.09 42.18 L 124.58 42.18 L 114.07 42.18 L 103.57 42.18 L 93.06 42.18 L 82.55 42.18"/>
</g>
<g fill="none" stroke="#323232" stroke-width="1.0">
<path d="M 485.05 42.05 L 485.09 42.05 L 485.14 42.05 L 485.18 42.05 L 485.23 42.05 L 485.27 42.05 L 485.32 42.05 L 485.36 42.05 L 485.41 42.05 L 485.45 42.05 L 485.50 42.05 L 485.54 42.05 L 485.58 42.05 L 485.63 42.05 L 485.67 42.05 L 485.72 42.05 L 485.76 42.05 L 485.81 42.05 L 485.85 42.05 L 485.90 42.05 L 485.94 42.05 L 485.99 42.05 L 486.03 42.05 L 486.07 42.05 L 486.12 42.05 L 486.16 42.05 L 486.21 42.05 L 486.25 42.05 L 486.30 42.05 L 486.34 42.05 L 486.39 42.05 L 486.43 42.05 L 486.48 42.05 L 486.52 42.05 L 486.56 42.05 L 486.61 42.05 L 486.65 42.05 L 486.70 42.05 L 486.74 42.05 L 486.79 42.05 L 486.83 42.05 L 486.88 42.05 L 486.92 42.05 L 486.97 42.05 L 487.01 42.05 L 487.05 42.05 L 487.10 42.05 L 487.14 42.05 L 487.19 42.05 L 487.23 42.05"/>
<path d="M 487.23 42.05 L 486.66 51.44 L 484.97 60.70 L 482.28 69.72 L 478.71 78.44 L 474.41 86.81 L 469.49 94.85 L 464.09 102.56 L 458.28 109.97 L 452.14 117.11 L 445.73 124.01 L 439.09 130.69 L 432.27 137.19 L 425.30 143.52 L 418.20 149.71 L 410.97 155.75 L 403.65 161.68 L 396.29 167.56 L 388.91 173.41 L 381.41 179.10 L 373.67 184.48 L 365.95 189.86 L 358.71 195.89 L 351.97 202.47 L 344.51 208.16 L 335.49 208.16 L 328.03 202.47 L 321.29 195.89 L 314.05 189.86 L 306.33 184.48 L 298.59 179.10 L 291.09 173.41 L 283.71 167.56 L 276.35 161.68 L 269.03 155.75 L 261.80 149.71 L 254.70 143.52 L 247.73 137.19 L 240.91 130.69 L 234.27 124.01 L 227.86 117.11 L 221.72 109.97 L 215.91 102.56 L 210.51 94.85 L 205.59 86.81 L 201.29 78.44 L 197.72 69.72 L 195.03 60.70 L 193.34 51.44 L 192.77 42.05"/>
<path d="M 192.77 42.05 L 192.81 42.05 L 192.86 42.05 L 192.90 42.05 L 192.95 42.05 L 192.99 42.05 L 193.03 42.05 L 193.08 42.05 L 193.12 42.05 L 193.17 42.05 L 193.21 42.05 L 193.26 42.05 L 193.30 42.05 L 193.35 42.05 L 193.39 42.05 L 193.44 42.05 L 193.48 42.05 L 193.52 42.05 L 193.57 42.05 L 193.61 42.05 L 193.66 42.05 L 193.70 42.05 L 193.75 42.05 L 193.79 42.05 L 193.84 42.05 L 193.88 42.05 L 193.93 42.05 L 193.97 42.05 L 194.01 42.05 L 194.06 42.05 L 194.10 42.05 L 194.15 42.05 L 194.19 42.05 L 194.24 42.05 L 194.28 42.05 L 194.33 42.05 L 194.37 42.05 L 194.42 42.05 L 194.46 42.05 L 194.50 42.05 L 194.55 42.05 L 194.59 42.05 L 194.64 42.05 L 194.68 42.05 L 194.73 42.05 L 194.77 42.05 L 194.82 42.05 L 194.86 42.05 L 194.91 42.05 L 194.95 42.05"/>
<path d="M 485.05 42.05 L 484.49 51.31 L 482.83 60.44 L 480.18 69.34 L 476.67 77.94 L 472.43 86.20 L 467.59 94.13 L 462.27 101.74 L 456.55 109.05 L 450.50 116.10 L 444.18 122.91 L 437.65 129.51 L 430.93 135.93 L 424.06 142.18 L 417.06 148.29 L 409.94 154.25 L 402.73 160.11 L 395.47 165.91 L 388.20 171.68 L 380.81 177.31 L 373.19 182.62 L 365.57 187.93 L 358.44 193.87 L 351.80 200.37 L 344.45 206.00 L 335.55 206.00 L 328.20 200.37 L 321.56 193.87 L 314.43 187.93 L 306.81 182.62 L 299.19 177.31 L 291.80 171.68 L 284.53 165.91 L 277.27 160.11 L 270.06 154.25 L 262.94 148.29 L 255.94 142.18 L 249.07 135.93 L 242.35 129.51 L 235.82 122.91 L 229.50 116.10 L 223.45 109.05 L 217.73 101.74 L 212.41 94.13 L 207.57 86.20 L 203.33 77.94 L 199.82 69.34 L 197.17 60.44 L 195.51 51.31 L 194.95 42.05"/>
<path d="M 192.77 40.00 L 192.77 40.04 L 192.77 40.09 L 192.77 40.13 L 192.77 40.18 L 192.77 40.22 L 192.77 40.27 L 192.77 40.31 L 192.77 40.36 L 192.77 40.40 L 192.77 40.45 L 192.77 40.49 L 192.77 40.53 L 192.77 40.58 L 192.77 40.62 L 192.77 40.67 L 192.77 40.71 L 192.77 40.76 L 192.77 40.80 L 192.77 40.85 L 192.77 40.89 L 192.77 40.94 L 192.77 40.98 L 192.77 41.02 L 192.77 41.07 L 192.77 41.11 L 192.77 41.16 L 192.77 41.20 L 192.77 41.25 L 192.77 41.29 L 192.77 41.34 L 192.77 41.38 L 192.77 41.42 L 192.77 41.47 L 192.77 41.51 L 192.77 41.56 L 192.77 41.60 L 192.77 41.65 L 192.77 41.69 L 192.77 41.74 L 192.77 41.78 L 192.77 41.83 L 192.77 41.87 L 192.77 41.91 L 192.77 41.96 L 192.77 42.00 L 192.77 42.05 L 192.77 42.09 L 192.77 42.14 L 192.77 42.18"/>
<path d="M 487.23 40.00 L 481.22 40.00 L 475.21 40.00 L 469.20 40.00 L 463.19 40.00 L 457.19 40.00 L 451.18 40.00 L 445.17 40.00 L 439.16 40.00 L 433.15 40.00 L 427.14 40.00 L 421.13 40.00 L 415.12 40.00 L 409.11 40.00 L 403.10 40.00 L 397.09 40.00 L 391.08 40.00 L 385.07 40.00 L 379.06 40.00 L 373.05 40.00 L 367.04 40.00 L 361.03 40.00 L 355.02 40.00 L 349.01 40.00 L 343.00 40.00 L 337.00 40.00 L 330.99 40.00 L 324.98 40.00 L 318.97 40.00 L 312.96 40.00 L 306.95 40.00 L 300.94 40.00 L 294.93 40.00 L 288.92 40.00 L 282.91 40.00 L 276.90 40.00 L 270.89 40.00 L 264.88 40.00 L 258.87 40.00 L 252.86 40.00 L 246.85 40.00 L 240.84 40.00 L 234.83 40.00 L 228.82 40.00 L 222.81 40.00 L 216.81 40.00 L 210.80 40.00 L 204.79 40.00 L 198.78 40.00 L 192.77 40.00"/>
<path d="M 487.23 40.00 L 487.23 40.04 L 487.23 40.09 L 487.23 40.13 L 487.23 40.18 L 487.23 40.22 L 487.23 40.27 L 487.23 40.31 L 487.23 40.36 L 487.23 40.40 L 487.23 40.45 L 487.23 40.49 L 487.23 40.53 L 487.23 40.58 L 487.23 40.62 L 487.23 40.67 L 487.23 40.71 L 487.23 40.76 L 487.23 40.80 L 487.23 40.85 L 487.23 40.89 L 487.23 40.94 L 487.23 40.98 L 487.23 41.02 L 487.23 41.07 L 487.23 41.11 L 487.23 41.16 L 487.23 41.20 L 487.23 41.25 L 487.23 41.29 L 487.23 41.34 L 487.23 41.38 L 487.23 41.42 L 487.23 41.47 L 487.23 41.51 L 487.23 41.56 L 487.23 41.60 L 487.23 41.65 L 487.23 41.69 L 487.23 41.74 L 487.23 41.78 L 487.23 41.83 L 487.23 41.87 L 487.23 41.91 L 487.23 41.96 L 487.23 42.00 L 487.23 42.05 L 487.23 42.09 L 487.23 42.14 L 487.23 42.18"/>
<path d="M 487.23 42.18 L 481.22 42.18 L 475.21 42.18 L 469.20 42.18 L 463.19 42.18 L 457.19 42.18 L 451.18 42.18 L 445.17 42.18 L 439.16 42.18 L 433.15 42.18 L 427.14 42.18 L 421.13 42.18 L 415.12 42.18 L 409.11 42.18 L 403.10 42.18 L 397.09 42.18 L 391.08 42.18 L 385.07 42.18 L 379.06 42.18 L 373.05 42.18 L 367.04 42.18 L 361.03 42.18 L 355.02 42.18 L 349.01 42.18 L 343.00 42.18 L 337.00 42.18 L 330.99 42.18 L 324.98 42.18 L 318.97 42.18 L 312.96 42.18 L 306.95 42.18 L 300.94 42.18 L 294.93 42.18 L 288.92 42.18 L 282.91 42.18 L 276.90 42.18 L 270.89 42.18 L 264.88 42.18 L 258.87 42.18 L 252.86 42.18 L 246.85 42.18 L 240.84 42.18 L 234.83 42.18 L 228.82 42.18 L 222.81 42.18 L 216.81 42.18 L 210.80 42.18 L 204.79 42.18 L 198.78 42.18 L 192.77 42.18"/>
</g>
<g fill="none" stroke="#141414" stroke-width="1.0">
<path d="M 336.18 42.05 L 336.14 42.05 L 336.09 42.05 L 336.05 42.05 L 336.00 42.05 L 335.96 42.05 L 335.91 42.05 L 335.87 42.05 L 335.83 42.05 L 335.78 42.05 L 335.74 42.05 L 335.69 42.05 L 335.65 42.05 L 335.60 42.05 L 335.56 42.05 L 335.51 42.05 L 335.47 42.05 L 335.42 42.05 L 335.38 42.05 L 335.34 42.05 L 335.29 42.05 L 335.25 42.05 L 335.20 42.05 L 335.16 42.05 L 335.11 42.05 L 335.07 42.05 L 335.02 42.05 L 334.98 42.05 L 334.93 42.05 L 334.89 42.05 L 334.85 42.05 L 334.80 42.05 L 334.76 42.05 L 334.71 42.05 L 334.67 42.05 L 334.62 42.05 L 334.58 42.05 L 334.53 42.05 L 334.49 42.05 L 334.45 42.05 L 334.40 42.05 L 334.36 42.05 L 334.31 42.05 L 334.27 42.05 L 334.22 42.05 L 334.18 42.05 L 334.13 42.05 L 334.09 42.05 L 334.04 42.05 L 334.00 42.05"/>
<path d="M 336.18 42.05 L 336.19 43.97 L 336.21 45.89 L 336.25 47.81 L 336.31 49.74 L 336.38 51.66 L 336.46 53.58 L 336.56 55.50 L 336.68 57.42 L 336.80 59.34 L 336.95 61.26 L 337.10 63.18 L 337.26 65.09 L 337.44 67.01 L 337.63 68.92 L 337.82 70.83 L 338.03 72.75 L 338.24 74.66 L 338.46 76.57 L 338.68 78.48 L 338.91 80.39 L 339.17 82.29 L 339.41 84.20 L 339.60 86.12 L 339.80 88.03 L 340.20 88.03 L 340.40 86.12 L 340.59 84.20 L 340.83 82.29 L 341.09 80.39 L 341.32 78.48 L 341.54 76.57 L 341.76 74.66 L 341.97 72.75 L 342.18 70.83 L 342.37 68.92 L 342.56 67.01 L 342.74 65.09 L 342.90 63.18 L 343.05 61.26 L 343.20 59.34 L 343.32 57.42 L 343.44 55.50 L 343.54 53.58 L 343.62 51.66 L 343.69 49.74 L 343.75 47.81 L 343.79 45.89 L 343.81 43.97 L 343.82 42.05"/>
<path d="M 346.00 42.05 L 345.96 42.05 L 345.91 42.05 L 345.87 42.05 L 345.82 42.05 L 345.78 42.05 L 345.73 42.05 L 345.69 42.05 L 345.64 42.05 L 345.60 42.05 L 345.55 42.05 L 345.51 42.05 L 345.47 42.05 L 345.42 42.05 L 345.38 42.05 L 345.33 42.05 L 345.29 42.05 L 345.24 42.05 L 345.20 42.05 L 345.15 42.05 L 345.11 42.05 L 345.07 42.05 L 345.02 42.05 L 344.98 42.05 L 344.93 42.05 L 344.89 42.05 L 344.84 42.05 L 344.80 42.05 L 344.75 42.05 L 344.71 42.05 L 344.66 42.05 L 344.62 42.05 L 344.58 42.05 L 344.53 42.05 L 344.49 42.05 L 344.44 42.05 L 344.40 42.05 L 344.35 42.05 L 344.31 42.05 L 344.26 42.05 L 344.22 42.05 L 344.17 42.05 L 344.13 42.05 L 344.09 42.05 L 344.04 42.05 L 344.00 42.05 L 343.95 42.05 L 343.91 42.05 L 343.86 42.05 L 343.82 42.05"/>
<path d="M 334.00 42.05 L 334.01 44.07 L 334.05 46.09 L 334.11 48.11 L 334.20 50.14 L 334.31 52.16 L 334.45 54.18 L 334.60 56.19 L 334.78 58.21 L 334.99 60.22 L 335.21 62.23 L 335.45 64.24 L 335.71 66.25 L 335.99 68.25 L 336.28 70.26 L 336.59 72.26 L 336.91 74.25 L 337.25 76.25 L 337.60 78.24 L 337.94 80.24 L 338.31 82.23 L 338.70 84.21 L 339.08 86.20 L 339.38 88.20 L 339.69 90.20 L 340.31 90.20 L 340.62 88.20 L 340.92 86.20 L 341.30 84.21 L 341.69 82.23 L 342.06 80.24 L 342.40 78.24 L 342.75 76.25 L 343.09 74.25 L 343.41 72.26 L 343.72 70.26 L 344.01 68.25 L 344.29 66.25 L 344.55 64.24 L 344.79 62.23 L 345.01 60.22 L 345.22 58.21 L 345.40 56.19 L 345.55 54.18 L 345.69 52.16 L 345.80 50.14 L 345.89 48.11 L 345.95 46.09 L 345.99 44.07 L 346.00 42.05"/>
<path d="M 346.00 42.18 L 346.00 42.14 L 346.00 42.09 L 346.00 42.05 L 346.00 42.00 L 346.00 41.96 L 346.00 41.91 L 346.00 41.87 L 346.00 41.83 L 346.00 41.78 L 346.00 41.74 L 346.00 41.69 L 346.00 41.65 L 346.00 41.60 L 346.00 41.56 L 346.00 41.51 L 346.00 41.47 L 346.00 41.42 L 346.00 41.38 L 346.00 41.34 L 346.00 41.29 L 346.00 41.25 L 346.00 41.20 L 346.00 41.16 L 346.00 41.11 L 346.00 41.07 L 346.00 41.02 L 346.00 40.98 L 346.00 40.94 L 346.00 40.89 L 346.00 40.85 L 346.00 40.80 L 346.00 40.76 L 346.00 40.71 L 346.00 40.67 L 346.00 40.62 L 346.00 40.58 L 346.00 40.53 L 346.00 40.49 L 346.00 40.45 L 346.00 40.40 L 346.00 40.36 L 346.00 40.31 L 346.00 40.27 L 346.00 40.22 L 346.00 40.18 L 346.00 40.13 L 346.00 40.09 L 346.00 40.04 L 346.00 40.00"/>
<path d="M 346.00 42.18 L 345.76 42.18 L 345.51 42.18 L 345.27 42.18 L 345.02 42.18 L 344.78 42.18 L 344.53 42.18 L 344.29 42.18 L 344.04 42.18 L 343.80 42.18 L 343.55 42.18 L 343.31 42.18 L 343.06 42.18 L 342.82 42.18 L 342.57 42.18 L 342.33 42.18 L 342.08 42.18 L 341.84 42.18 L 341.59 42.18 L 341.35 42.18 L 341.10 42.18 L 340.86 42.18 L 340.61 42.18 L 340.37 42.18 L 340.12 42.18 L 339.88 42.18 L 339.63 42.18 L 339.39 42.18 L 339.14 42.18 L 338.90 42.18 L 338.65 42.18 L 338.41 42.18 L 338.16 42.18 L 337.92 42.18 L 337.67 42.18 L 337.43 42.18 L 337.18 42.18 L 336.94 42.18 L 336.69 42.18 L 336.45 42.18 L 336.20 42.18 L 335.96 42.18 L 335.71 42.18 L 335.47 42.18 L 335.22 42.18 L 334.98 42.18 L 334.73 42.18 L 334.49 42.18 L 334.24 42.18 L 334.00 42.18"/>
<path d="M 334.00 42.18 L 334.00 42.14 L 334.00 42.09 L 334.00 42.05 L 334.00 42.00 L 334.00 41.96 L 334.00 41.91 L 334.00 41.87 L 334.00 41.83 L 334.00 41.78 L 334.00 41.74 L 334.00 41.69 L 334.00 41.65 L 334.00 41.60 L 334.00 41.56 L 334.00 41.51 L 334.00 41.47 L 334.00 41.42 L 334.00 41.38 L 334.00 41.34 L 334.00 41.29 L 334.00 41.25 L 334.00 41.20 L 334.00 41.16 L 334.00 41.11 L 334.00 41.07 L 334.00 41.02 L 334.00 40.98 L 334.00 40.94 L 334.00 40.89 L 334.00 40.85 L 334.00 40.80 L 334.00 40.76 L 334.00 40.71 L 334.00 40.67 L 334.00 40.62 L 334.00 40.58 L 334.00 40.53 L 334.00 40.49 L 334.00 40.45 L 334.00 40.40 L 334.00 40.36 L 334.00 40.31 L 334.00 40.27 L 334.00 40.22 L 334.00 40.18 L 334.00 40.13 L 334.00 40.09 L 334.00 40.04 L 334.00 40.00"/>
<path d="M 346.00 40.00 L 345.76 40.00 L 345.51 40.00 L 345.27 40.00 L 345.02 40.00 L 344.78 40.00 L 344.53 40.00 L 344.29 40.00 L 344.04 40.00 L 343.80 40.00 L 343.55 40.00 L 343.31 40.00 L 343.06 40.00 L 342.82 40.00 L 342.57 40.00 L 342.33 40.00 L 342.08 40.00 L 341.84 40.00 L 341.59 40.00 L 341.35 40.00 L 341.10 40.00 L 340.86 40.00 L 340.61 40.00 L 340.37 40.00 L 340.12 40.00 L 339.88 40.00 L 339.63 40.00 L 339.39 40.00 L 339.14 40.00 L 338.90 40.00 L 338.65 40.00 L 338.41 40.00 L 338.16 40.00 L 337.92 40.00 L 337.67 40.00 L 337.43 40.00 L 337.18 40.00 L 336.94 40.00 L 336.69 40.00 L 336.45 40.00 L 336.20 40.00 L 335.96 40.00 L 335.71 40.00 L 335.47 40.00 L 335.22 40.00 L 334.98 40.00 L 334.73 40.00 L 334.49 40.00 L 334.24 40.00 L 334.00 40.00"/>
</g>
<g stroke="black" stroke-width="1" fill="black">
<line x1="40.0" y1="588.0" x2="176.4" y2="588.0"/>
<line x1="40.0" y1="583.0" x2="40.0" y2="593.0"/>
<line x1="176.4" y1="583.0" x2="176.4" y2="593.0"/>
<text x="108.2" y="580.0" text-anchor="middle" font-family="sans-serif" font-size="10">0.5 m</text>
</g>
</svg>